<svg width="18" height="18" viewBox="0 0 18 18" fill="none" xmlns="http://www.w3.org/2000/svg">
<path d="M4.20156 0.600098C2.21334 0.600098 0.601562 2.21187 0.601562 4.2001V13.8001C0.601562 15.7883 2.21334 17.4001 4.20156 17.4001H13.8016C15.7898 17.4001 17.4016 15.7883 17.4016 13.8001V4.2001C17.4016 2.21187 15.7898 0.600098 13.8016 0.600098H4.20156ZM13.6258 6.42436L7.62583 12.4244C7.39151 12.6587 7.01161 12.6587 6.7773 12.4244L4.3773 10.0244C4.14298 9.79005 4.14298 9.41015 4.3773 9.17583C4.61161 8.94152 4.99151 8.94152 5.22583 9.17583L7.20156 11.1516L12.7773 5.57583C13.0116 5.34152 13.3915 5.34152 13.6258 5.57583C13.8601 5.81015 13.8601 6.19005 13.6258 6.42436Z" fill="#32C4D5"/>
</svg>
