<svg width="14" height="14" viewBox="0 0 14 14" fill="none" xmlns="http://www.w3.org/2000/svg">
<path d="M6.9987 0.333252C10.6806 0.333252 13.6654 3.31802 13.6654 6.99992C13.6654 10.6818 10.6806 13.6666 6.9987 13.6666C3.3168 13.6666 0.332031 10.6818 0.332031 6.99992C0.332031 3.31802 3.3168 0.333252 6.9987 0.333252ZM9.14515 4.9797L6.16536 7.95948L4.85225 6.64637C4.65699 6.4511 4.34041 6.4511 4.14514 6.64637C3.94988 6.84163 3.94988 7.15821 4.14514 7.35347L5.81181 9.02014C6.00707 9.2154 6.32366 9.2154 6.51892 9.02014L9.85225 5.68681C10.0475 5.49154 10.0475 5.17496 9.85225 4.9797C9.65699 4.78444 9.34041 4.78444 9.14515 4.9797Z" fill="#32C4D4"/>
</svg>
