<svg width="403" height="295" viewBox="0 0 403 295" fill="none" xmlns="http://www.w3.org/2000/svg">
<g filter="url(#filter0_d_718_72532)">
<path d="M209.5 10C161.935 10 122.876 46.5264 118.688 93.1373H116.243C80.7628 93.1373 52 121.984 52 157.569C52 193.153 80.7628 222 116.243 222H302.757C338.237 222 367 193.153 367 157.569C367 121.984 338.237 93.1373 302.757 93.1373H300.312C296.124 46.5264 257.065 10 209.5 10Z" fill="url(#paint0_linear_718_72532)"/>
<circle cx="149" cy="179" r="7.5" fill="white" stroke="white"/>
<path d="M198.846 187V181.462C198.846 175.684 203.53 171 209.308 171V171C215.085 171 219.769 175.684 219.769 181.462V187" stroke="white" strokeWidth="3" strokeLinecap="round"/>
<circle cx="269.615" cy="179" r="7.5" fill="white" stroke="white"/>
</g>
<path d="M25.6402 196.257C25.8995 196.377 26.1011 196.594 26.2006 196.86C26.2281 196.933 26.2617 197.022 26.3009 197.125C26.7867 198.404 28.1189 201.913 28.9699 206.07C29.8803 210.519 30.2922 215.943 28.3119 220.215C26.39 224.361 23.7165 226.852 20.6528 227.899C17.6006 228.942 14.3357 228.492 11.3407 227.104C8.34582 225.716 5.89285 223.514 4.71642 220.511C3.53552 217.497 3.7085 213.847 5.63041 209.701C7.60917 205.432 11.9395 202.267 15.8914 200.097C19.5749 198.075 23.1052 196.825 24.5129 196.327C24.6296 196.286 24.7316 196.25 24.818 196.219C25.0852 196.123 25.3809 196.137 25.6402 196.257Z" fill="#16D9EF" fill-opacity="0.18"/>
<path d="M378.613 185.626C378.878 185.52 379.174 185.523 379.436 185.633C379.508 185.664 379.595 185.7 379.697 185.742C380.96 186.269 384.424 187.712 388.03 189.951C391.887 192.346 396.111 195.775 397.853 200.149C399.544 204.394 399.517 208.048 398.172 210.993C396.832 213.927 394.262 215.99 391.195 217.212C388.129 218.434 384.844 218.703 381.854 217.494C378.852 216.28 376.319 213.646 374.628 209.401C372.887 205.03 373.563 199.709 374.703 195.347C375.765 191.281 377.283 187.858 377.889 186.493C377.939 186.38 377.983 186.281 378.02 186.197C378.134 185.937 378.347 185.732 378.613 185.626Z" fill="#16D9EF" fill-opacity="0.18"/>
<path d="M155.613 258.626C155.878 258.52 156.174 258.523 156.436 258.633C156.508 258.664 156.595 258.7 156.697 258.742C157.96 259.269 161.424 260.712 165.03 262.951C168.887 265.346 173.111 268.775 174.853 273.149C176.544 277.394 176.517 281.048 175.172 283.993C173.832 286.927 171.262 288.99 168.195 290.212C165.129 291.434 161.844 291.703 158.854 290.494C155.852 289.28 153.319 286.646 151.628 282.401C149.887 278.03 150.563 272.709 151.703 268.347C152.765 264.281 154.283 260.858 154.889 259.493C154.939 259.38 154.983 259.281 155.02 259.197C155.134 258.937 155.347 258.732 155.613 258.626Z" fill="#16D9EF" fill-opacity="0.18"/>
<path d="M282.382 246.633C282.662 246.694 282.906 246.861 283.061 247.098C283.104 247.164 283.157 247.243 283.218 247.335C283.973 248.476 286.044 251.605 287.789 255.474C289.656 259.613 291.251 264.814 290.259 269.417C289.297 273.884 287.237 276.902 284.478 278.597C281.73 280.286 278.446 280.566 275.219 279.87C271.992 279.175 269.115 277.567 267.307 274.896C265.492 272.215 264.858 268.617 265.82 264.15C266.811 259.551 270.339 255.51 273.717 252.524C276.865 249.741 280.034 247.745 281.298 246.95C281.403 246.884 281.494 246.826 281.572 246.777C281.811 246.625 282.103 246.573 282.382 246.633Z" fill="#16D9EF" fill-opacity="0.18"/>
<path d="M209.647 69.543C210.415 68.5163 212.048 69.0595 212.048 70.3417V85.7407C212.048 86.4771 212.645 87.0741 213.381 87.0741H227.671C228.769 87.0741 229.396 88.3269 228.739 89.2061L208.353 116.457C207.585 117.484 205.952 116.941 205.952 115.658V100.259C205.952 99.5229 205.355 98.9259 204.619 98.9259H190.329C189.231 98.9259 188.604 97.6731 189.262 96.7939L209.647 69.543Z" fill="white" fill-opacity="0.33"/>
<defs>
<filter id="filter0_d_718_72532" x="23" y="0" width="373" height="270" filterUnits="userSpaceOnUse" color-interpolation-filters="sRGB">
<feFlood flood-opacity="0" result="BackgroundImageFix"/>
<feColorMatrix in="SourceAlpha" type="matrix" values="0 0 0 0 0 0 0 0 0 0 0 0 0 0 0 0 0 0 127 0" result="hardAlpha"/>
<feOffset dy="19"/>
<feGaussianBlur stdDeviation="14.5"/>
<feColorMatrix type="matrix" values="0 0 0 0 0.0705882 0 0 0 0 0.862745 0 0 0 0 0.952941 0 0 0 0.2 0"/>
<feBlend mode="normal" in2="BackgroundImageFix" result="effect1_dropShadow_718_72532"/>
<feBlend mode="normal" in="SourceGraphic" in2="effect1_dropShadow_718_72532" result="shape"/>
</filter>
<linearGradient id="paint0_linear_718_72532" x1="367" y1="10" x2="170.601" y2="301.82" gradientUnits="userSpaceOnUse">
<stop stop-color="#00E5FF"/>
<stop offset="1" stop-color="#2FCCDE"/>
</linearGradient>
</defs>
</svg>
