<svg width="28" height="28" viewBox="0 0 28 28" fill="none" xmlns="http://www.w3.org/2000/svg">
<path d="M13.9993 0.666992C21.3633 0.666992 27.3327 6.63766 27.3327 14.0003C27.3327 21.363 21.3633 27.3337 13.9993 27.3337C6.63535 27.3337 0.666016 21.363 0.666016 14.0003C0.666016 6.63766 6.63535 0.666992 13.9993 0.666992ZM14.0017 18.0053C13.2664 18.0053 12.6702 18.6014 12.6702 19.3368C12.6702 20.0722 13.2664 20.6684 14.0017 20.6684C14.7371 20.6684 15.3333 20.0722 15.3333 19.3368C15.3333 18.6014 14.7371 18.0053 14.0017 18.0053ZM13.9989 7.33366C13.3151 7.33391 12.7517 7.84883 12.6749 8.51197L12.666 8.66747L12.6684 15.3353L12.6774 15.4908C12.7547 16.1539 13.3184 16.6684 14.0022 16.6682C14.686 16.6679 15.2494 16.153 15.3262 15.4898L15.3351 15.3344L15.3327 8.66651L15.3237 8.51102C15.2464 7.84793 14.6827 7.33341 13.9989 7.33366Z" fill="#F67063"/>
</svg>