<svg width="24" height="24" viewBox="0 0 24 24" fill="none" xmlns="http://www.w3.org/2000/svg">
<path d="M3.37109 15.8767L9.35611 5.18652L14.5422 8.27419L8.55796 18.9644L3.37109 15.8767Z" fill="#FBBC04"/>
<path d="M20.578 15.8393L14.5893 5.14531C13.8162 3.63757 12.0047 3.06153 10.5425 3.85872C9.08036 4.6559 8.52246 6.52385 9.29482 8.03158C9.32872 8.0977 9.36483 8.16229 9.40315 8.22613L15.3919 18.9201C16.1996 20.4081 18.0243 20.9393 19.4674 20.1064C20.9104 19.2735 21.4255 17.3918 20.6178 15.9039C20.6045 15.8796 20.5912 15.856 20.578 15.8324V15.8393Z" fill="#4285F4"/>
<path d="M5.99435 20.4839C7.64808 20.4839 8.9887 19.1015 8.9887 17.3963C8.9887 15.691 7.64808 14.3086 5.99435 14.3086C4.34062 14.3086 3 15.691 3 17.3963C3 19.1015 4.34062 20.4839 5.99435 20.4839Z" fill="#34A853"/>
</svg>