<svg width="138" height="138" viewBox="0 0 138 138" fill="none" xmlns="http://www.w3.org/2000/svg">
<rect x="0.5" y="0.5" width="137" height="137" rx="5.5" fill="#F8FBFC" stroke="#EBEFF3"/>
<path d="M68.411 71.1959L68.2995 71.2906L59.0626 80.3581C59.7229 80.7652 60.5007 81 61.3333 81H76.6667C77.4993 81 78.2771 80.7652 78.9374 80.3581L69.7005 71.2906L69.576 71.1866C69.2273 70.9403 68.7566 70.9434 68.411 71.1959ZM81 61.3333C81 58.9401 79.0599 57 76.6667 57H61.3333C58.9401 57 57 58.9401 57 61.3333V76.6667C57 77.5027 57.2368 78.2835 57.6469 78.9456L66.8984 69.8633L67.079 69.6997C68.1922 68.7698 69.8199 68.7724 70.9303 69.7075L71.1016 69.8633L80.3531 78.9456C80.7632 78.2835 81 77.5027 81 76.6667V61.3333ZM73.3333 67.3333C71.8606 67.3333 70.6667 66.1394 70.6667 64.6667C70.6667 63.1939 71.8606 62 73.3333 62C74.8061 62 76 63.1939 76 64.6667C76 66.1394 74.8061 67.3333 73.3333 67.3333Z" fill="#A1B3C4"/>
</svg>
