<svg width="114" height="46" viewBox="0 0 114 46" fill="none" xmlns="http://www.w3.org/2000/svg">
<g clip-path="url(#clip0_718_67101)">
<path d="M27.2324 27.9346C27.2324 26.034 26.4249 24.6222 25.2405 23.862C24.7022 23.4819 24.0562 23.1561 23.2486 22.8846C22.6026 22.6131 21.4183 22.2873 19.6956 21.7985L16.4655 20.8754C16.0348 20.7668 15.6041 20.4953 15.2811 20.1152C14.5813 19.4636 14.7428 18.5948 14.8505 18.1604V18.2147C15.1735 16.7485 16.4655 15.7168 17.919 15.7168H20.0724C21.8489 15.7168 22.8718 16.6399 22.9256 19.0292C22.9256 19.4636 23.2486 19.898 23.787 19.898H25.6174C26.4787 19.898 26.4787 19.355 26.5325 18.812C26.6402 16.6399 25.8327 14.6851 24.5407 13.6534C23.2486 12.6216 21.6874 12.0243 19.9647 12.0243H17.8114C14.6351 12.0243 11.7281 14.305 11.1359 17.4544L11.1897 17.4001C11.0282 18.1604 11.0821 18.7577 11.0821 19.355V19.7351C11.0821 23.5362 14.9581 24.6222 18.565 25.4367C20.6108 25.9254 22.2796 26.197 23.0871 26.9029C23.5716 27.3373 23.5178 28.1518 23.5178 28.5319C23.5178 28.7491 23.464 28.912 23.464 29.0749C23.1948 30.5954 21.7413 31.5185 20.0724 31.5185H17.919C16.4655 31.5185 15.1735 30.4868 14.9043 29.1292C14.8505 28.8034 14.7966 28.5319 14.7966 28.369C14.7966 27.9346 14.8505 27.826 14.689 27.4459C14.5813 27.0115 14.3121 26.7943 13.8814 26.7943H11.9972C11.1359 26.7943 11.0821 27.3373 11.0821 27.8803C11.0821 28.5319 11.0282 29.0206 11.2974 30.1609C11.4051 30.7583 11.6742 31.3556 12.1049 32.0072C13.2893 33.962 15.4965 35.211 17.9729 35.211H20.1262C22.172 35.211 23.9485 34.7222 25.1867 33.5819C26.371 32.4416 27.2324 30.0523 27.2324 27.9346Z" fill="black"/>
</g>
<g clip-path="url(#clip1_718_67101)">
<path d="M56.9416 12.2564H46.9284C46.3901 12.2564 46.0132 12.6908 46.0132 13.1795L46.0671 34.0312C46.0671 34.4656 46.3901 34.9543 46.9284 34.9543H48.9203C49.7817 34.9543 49.8355 34.4113 49.8355 33.8683V26.4833C51.8812 25.4516 53.5501 24.4742 55.4881 23.4425L59.5257 34.2484C59.6872 34.6285 59.8487 34.9543 60.4409 34.9543H62.5943C63.3479 34.9543 63.7786 34.5742 63.4556 33.814C62.4866 31.3161 61.5714 28.764 60.6562 26.2661C60.1179 24.6914 59.5257 23.2253 58.9335 21.5962C60.5485 20.5102 61.6791 19.2613 61.6791 17.0892C61.6791 14.4828 59.4719 12.2564 56.9416 12.2564ZM49.8355 16.0575H56.7263C57.3723 16.0575 57.803 16.5462 57.803 17.1435C57.803 17.3607 57.7492 17.5779 57.6415 17.7408V17.6865C57.0493 18.6097 52.0427 21.1075 49.8355 22.1935V16.0575Z" fill="black"/>
</g>
<g clip-path="url(#clip2_718_67101)">
<path d="M74.7868 11.8636C69.7264 11.8636 65.5811 16.0448 65.5811 21.0948V25.7104C65.5811 31.3577 69.6726 35.0502 74.7868 35.2131C77.7477 35.3217 80.2241 34.2357 82.0545 31.9008C82.862 30.869 83.4003 29.8373 83.6695 28.8056C83.831 28.2626 83.8849 27.611 83.9925 26.7964C84.1002 25.9819 84.1002 25.5475 84.1002 25.3303C84.1002 24.9502 84.1002 24.5701 84.0464 24.19C84.0464 23.8099 83.9925 23.5927 83.9925 23.1582C83.9925 22.5609 83.7234 22.2351 83.1312 22.2351H75.702C75.1098 22.2351 74.7868 22.5609 74.7868 23.1582V24.8959C74.7868 25.3303 75.2175 25.819 75.702 25.819H80.5471L80.3856 26.905C80.2779 27.5567 80.1703 28.0997 79.9549 28.5341C78.9859 30.5975 76.9402 31.5749 74.7868 31.5749C73.2256 31.5749 71.8798 30.9776 70.8569 29.9459C69.8341 28.9142 69.2419 27.6653 69.2419 25.7104V21.0948C69.2419 18.0539 71.7183 15.5561 74.7868 15.5561C77.0479 15.5561 78.6629 16.7507 79.6858 18.6512C79.9011 19.0314 80.1164 19.1943 80.4933 19.1943H82.539C83.2927 19.1943 83.6695 18.6512 83.4003 18.0539C81.7853 14.3614 78.6629 11.8636 74.7868 11.8636Z" fill="black"/>
</g>
<g clip-path="url(#clip3_718_67101)">
<path d="M88.0836 34.9543H102.027C102.942 34.9543 102.942 34.4113 102.942 33.814V32.2936C102.942 31.2618 102.78 31.2075 101.811 31.2075H90.9368V24.8543H100.25C100.789 24.8543 101.165 24.4742 101.165 23.9312V21.9763C101.165 21.4333 100.789 21.0532 100.25 21.0532H90.9368V16.0575H101.488C102.457 16.0575 102.619 15.9489 102.619 14.9715V13.3967C102.619 12.8537 102.619 12.3107 101.704 12.3107H88.1374C87.5991 12.3107 87.1684 12.6908 87.1684 13.2338L87.2222 34.0855C87.1684 34.5742 87.5452 34.9543 88.0836 34.9543Z" fill="black"/>
</g>
<mask id="mask0_718_67101" style="mask-type:luminance" maskUnits="userSpaceOnUse" x="31" y="16" width="10" height="19">
<path d="M40.0844 16.889H31.6094V34.009H40.0844V16.889Z" fill="white"/>
</mask>
<g mask="url(#mask0_718_67101)">
<path d="M40.1073 24.2823H36.6257L38.5497 16.889L31.6094 26.6158H35.091L33.167 34.009L40.1073 24.2823Z" fill="#00E5FF"/>
</g>
<g clip-path="url(#clip4_718_67101)">
<path d="M38.0925 13.7791V11.6613C38.0925 11.2269 37.7157 10.7382 37.1773 10.7382H35.2931C34.7548 10.7382 34.3779 11.1726 34.3779 11.6613V13.7791C34.3779 14.2135 34.7548 14.7022 35.2931 14.7022H37.1773C37.6618 14.7022 38.0925 14.2678 38.0925 13.7791Z" fill="black"/>
</g>
<defs>
<clipPath id="clip0_718_67101">
<rect width="16.2042" height="23.1866" fill="white" transform="translate(11.0821 11.97)"/>
</clipPath>
<clipPath id="clip1_718_67101">
<rect width="17.55" height="22.6979" fill="white" transform="translate(46.0132 12.2564)"/>
</clipPath>
<clipPath id="clip2_718_67101">
<rect width="18.4652" height="23.3495" fill="white" transform="translate(65.5811 11.8636)"/>
</clipPath>
<clipPath id="clip3_718_67101">
<rect width="15.8273" height="22.6979" fill="white" transform="translate(87.1146 12.2564)"/>
</clipPath>
<clipPath id="clip4_718_67101">
<rect width="3.71458" height="3.90969" fill="white" transform="translate(34.3241 10.7925)"/>
</clipPath>
</defs>
</svg>
