<svg width="24" height="24" viewBox="0 0 24 24" fill="none" xmlns="http://www.w3.org/2000/svg">
<path fill-rule="evenodd" clip-rule="evenodd" d="M22 12C22 6.47716 17.5228 2 12 2C6.47716 2 2 6.47716 2 12C2 17.5228 6.47716 22 12 22C17.5228 22 22 17.5228 22 12ZM17.2 8.82609C15.5621 8.71809 14.62 7.70286 14.4238 6V6.0036H12.4576V13.1714C12.7537 16.9984 9.19247 16.4187 8.9177 14.4603C8.77496 13.4378 9.28881 12.8582 10.1952 12.5486C10.4985 12.4442 10.8304 12.365 11.1408 12.3146V10.2949C7.06569 10.4425 6.28777 14.1255 7.55813 16.2243C9.53504 19.486 14.4523 18.064 14.4523 13.5134V9.93133C15.4194 10.5217 16.2508 10.835 17.2 10.7414V8.82609Z" fill="#34404B"/>
</svg>
