<svg width="28" height="25" viewBox="0 0 28 25" fill="none" xmlns="http://www.w3.org/2000/svg">
<path d="M11.3703 1.87865C12.5119 -0.185113 15.4788 -0.18514 16.6205 1.87859L26.9482 20.5472C28.0543 22.5467 26.6082 24.9994 24.3231 24.9994H3.66836C1.38333 24.9994 -0.0628372 22.5468 1.04324 20.5473L11.3703 1.87865ZM15.3272 19.6679C15.3272 18.9326 14.731 18.3364 13.9956 18.3364C13.2602 18.3364 12.6641 18.9326 12.6641 19.6679C12.6641 20.4033 13.2602 20.9995 13.9956 20.9995C14.731 20.9995 15.3272 20.4033 15.3272 19.6679ZM14.9816 9.19693C14.915 8.70888 14.4963 8.33301 13.99 8.33342C13.4377 8.33386 12.9904 8.78193 12.9908 9.33422L12.9956 15.3363L13.0049 15.472C13.0715 15.9601 13.4902 16.3359 13.9964 16.3355C14.5487 16.3351 14.9961 15.887 14.9956 15.3347L14.9908 9.33262L14.9816 9.19693Z" fill="#F67063"/>
</svg>
