<svg width="32" height="32" viewBox="0 0 32 32" fill="none" xmlns="http://www.w3.org/2000/svg">
<path d="M15.9998 2.66663C23.3636 2.66663 29.3332 8.63616 29.3332 16C29.3332 23.3638 23.3636 29.3333 15.9998 29.3333C8.63604 29.3333 2.6665 23.3638 2.6665 16C2.6665 8.63616 8.63604 2.66663 15.9998 2.66663ZM15.9998 4.66663C9.74061 4.66663 4.6665 9.74073 4.6665 16C4.6665 22.2592 9.74061 27.3333 15.9998 27.3333C22.2591 27.3333 27.3332 22.2592 27.3332 16C27.3332 9.74073 22.2591 4.66663 15.9998 4.66663ZM15.9998 9.33329C16.5521 9.33329 16.9998 9.78101 16.9998 10.3333V15H21.6665C22.2188 15 22.6665 15.4477 22.6665 16C22.6665 16.5522 22.2188 17 21.6665 17H16.9998V21.6666C16.9998 22.2189 16.5521 22.6666 15.9998 22.6666C15.4476 22.6666 14.9998 22.2189 14.9998 21.6666V17H10.3332C9.78089 17 9.33317 16.5522 9.33317 16C9.33317 15.4477 9.78089 15 10.3332 15H14.9998V10.3333C14.9998 9.78101 15.4476 9.33329 15.9998 9.33329Z" fill="#A1B3C4"/>
</svg>
