<svg width="21" height="20" viewBox="0 0 21 20" fill="none" xmlns="http://www.w3.org/2000/svg">
<path d="M11.9585 2.91602H9.04183C8.69665 2.91602 8.41683 3.19584 8.41683 3.54102C8.41683 3.88619 8.69665 4.16602 9.04183 4.16602H11.9585C12.3037 4.16602 12.5835 3.88619 12.5835 3.54102C12.5835 3.19584 12.3037 2.91602 11.9585 2.91602ZM11.9585 1.66602C12.9077 1.66602 13.6922 2.3714 13.8164 3.28659L13.8277 3.39935L13.822 3.33222L15.2918 3.33268C16.3274 3.33268 17.1668 4.17215 17.1668 5.20768V16.4577C17.1668 17.4932 16.3274 18.3327 15.2918 18.3327H5.7085C4.67296 18.3327 3.8335 17.4932 3.8335 16.4577V5.20768C3.8335 4.17215 4.67296 3.33268 5.7085 3.33268L7.17832 3.33222L7.17183 3.39935L7.18395 3.28659C7.3081 2.3714 8.09259 1.66602 9.04183 1.66602H11.9585ZM12.1668 14.166H7.16683C6.82165 14.166 6.54183 14.4458 6.54183 14.791C6.54183 15.1362 6.82165 15.416 7.16683 15.416H12.1668C12.512 15.416 12.7918 15.1362 12.7918 14.791C12.7918 14.4458 12.512 14.166 12.1668 14.166ZM10.5002 10.8327H7.16683C6.82165 10.8327 6.54183 11.1125 6.54183 11.4577C6.54183 11.8029 6.82165 12.0827 7.16683 12.0827H10.5002C10.8453 12.0827 11.1252 11.8029 11.1252 11.4577C11.1252 11.1125 10.8453 10.8327 10.5002 10.8327ZM13.8335 7.49935H7.16683C6.82165 7.49935 6.54183 7.77917 6.54183 8.12435C6.54183 8.46953 6.82165 8.74935 7.16683 8.74935H13.8335C14.1787 8.74935 14.4585 8.46953 14.4585 8.12435C14.4585 7.77917 14.1787 7.49935 13.8335 7.49935Z" fill="#34404B"/>
</svg>
