<svg width="20" height="20" viewBox="0 0 20 20" fill="none" xmlns="http://www.w3.org/2000/svg">
<path d="M11.458 2.91602H8.54134C8.19616 2.91602 7.91634 3.19584 7.91634 3.54102C7.91634 3.88619 8.19616 4.16602 8.54134 4.16602H11.458C11.8032 4.16602 12.083 3.88619 12.083 3.54102C12.083 3.19584 11.8032 2.91602 11.458 2.91602ZM11.458 1.66602C12.4072 1.66602 13.1917 2.3714 13.3159 3.28659L13.3272 3.39935L13.3215 3.33222L14.7913 3.33268C15.8269 3.33268 16.6663 4.17215 16.6663 5.20768V16.4577C16.6663 17.4932 15.8269 18.3327 14.7913 18.3327H5.20801C4.17247 18.3327 3.33301 17.4932 3.33301 16.4577V5.20768C3.33301 4.17215 4.17247 3.33268 5.20801 3.33268L6.67784 3.33222L6.67134 3.39935L6.68346 3.28659C6.80761 2.3714 7.5921 1.66602 8.54134 1.66602H11.458ZM11.6663 14.166H6.66634C6.32116 14.166 6.04134 14.4458 6.04134 14.791C6.04134 15.1362 6.32116 15.416 6.66634 15.416H11.6663C12.0115 15.416 12.2913 15.1362 12.2913 14.791C12.2913 14.4458 12.0115 14.166 11.6663 14.166ZM9.99967 10.8327H6.66634C6.32116 10.8327 6.04134 11.1125 6.04134 11.4577C6.04134 11.8029 6.32116 12.0827 6.66634 12.0827H9.99967C10.3449 12.0827 10.6247 11.8029 10.6247 11.4577C10.6247 11.1125 10.3449 10.8327 9.99967 10.8327ZM13.333 7.49935H6.66634C6.32116 7.49935 6.04134 7.77917 6.04134 8.12435C6.04134 8.46953 6.32116 8.74935 6.66634 8.74935H13.333C13.6782 8.74935 13.958 8.46953 13.958 8.12435C13.958 7.77917 13.6782 7.49935 13.333 7.49935Z" fill="#A1B3C4"/>
</svg>
