<svg width="12" height="12" viewBox="0 0 12 12" fill="none" xmlns="http://www.w3.org/2000/svg">
<path d="M0.806795 0.924693L0.862254 0.861888C1.10258 0.621566 1.48073 0.603079 1.74226 0.806429L1.80506 0.861888L6.00033 5.05663L10.1956 0.861888C10.4559 0.601539 10.878 0.601539 11.1384 0.861888C11.3987 1.12224 11.3987 1.54435 11.1384 1.8047L6.94366 5.99996L11.1384 10.1952C11.3787 10.4355 11.3972 10.8137 11.1939 11.0752L11.1384 11.138C10.8981 11.3784 10.5199 11.3968 10.2584 11.1935L10.1956 11.138L6.00033 6.94329L1.80506 11.138C1.54471 11.3984 1.1226 11.3984 0.862254 11.138C0.601905 10.8777 0.601905 10.4556 0.862254 10.1952L5.05699 5.99996L0.862254 1.8047C0.621932 1.56437 0.603445 1.18622 0.806795 0.924693L0.862254 0.861888L0.806795 0.924693Z" fill="#A1B3C4"/>
</svg>
