<svg width="21" height="21" viewBox="0 0 21 21" fill="none" xmlns="http://www.w3.org/2000/svg">
<path fill-rule="evenodd" clip-rule="evenodd" d="M8.55595 11.1837C8.24296 12.6173 6.96618 13.6907 5.43871 13.6907C3.67656 13.6907 2.24805 12.2621 2.24805 10.5C2.24805 8.73784 3.67656 7.30933 5.43871 7.30933C6.96618 7.30933 8.24296 8.38267 8.55595 9.81628H12.4443C12.7572 8.38267 14.034 7.30933 15.5615 7.30933C17.3236 7.30933 18.7522 8.73784 18.7522 10.5C18.7522 12.2621 17.3236 13.6907 15.5615 13.6907C14.034 13.6907 12.7572 12.6173 12.4443 11.1837H8.55595ZM15.5615 12.3232C16.5684 12.3232 17.3847 11.5069 17.3847 10.5C17.3847 9.49304 16.5684 8.67675 15.5615 8.67675C14.5545 8.67675 13.7383 9.49304 13.7383 10.5C13.7383 11.5069 14.5545 12.3232 15.5615 12.3232Z" fill="white"/>
</svg>
