<svg width="16" height="15" viewBox="0 0 16 15" fill="none" xmlns="http://www.w3.org/2000/svg">
<path d="M1.04812 14.3205C0.705315 13.9606 0.719158 13.391 1.07904 13.0481L7.3791 7.04645C7.72668 6.71534 8.27293 6.71534 8.6205 7.04645L14.9206 13.0481C15.2804 13.3909 15.2943 13.9606 14.9515 14.3205C14.6087 14.6805 14.0391 14.6943 13.6792 14.3515L7.9998 8.9411L2.32044 14.3515C1.96056 14.6943 1.39092 14.6805 1.04812 14.3205ZM1.04812 8.32224C0.705315 7.96233 0.719158 7.39264 1.07904 7.04981L7.3791 1.04814C7.72668 0.717027 8.27293 0.717027 8.6205 1.04814L14.9206 7.04981C15.2804 7.39264 15.2943 7.96233 14.9515 8.32224C14.6087 8.68215 14.0391 8.69599 13.6792 8.35316L7.9998 2.94279L2.32044 8.35316C1.96056 8.69599 1.39092 8.68215 1.04812 8.32224Z" fill="#32C4D5"/>
</svg>
