<svg width="13" height="12" viewBox="0 0 13 12" fill="none" xmlns="http://www.w3.org/2000/svg">
<path d="M2.60485 2.19355L2.64645 2.14645C2.82669 1.9662 3.1103 1.95234 3.30645 2.10485L3.35355 2.14645L6.5 5.2925L9.64645 2.14645C9.84171 1.95118 10.1583 1.95118 10.3536 2.14645C10.5488 2.34171 10.5488 2.65829 10.3536 2.85355L7.2075 6L10.3536 9.14645C10.5338 9.32669 10.5477 9.6103 10.3951 9.80645L10.3536 9.85355C10.1733 10.0338 9.8897 10.0477 9.69355 9.89515L9.64645 9.85355L6.5 6.7075L3.35355 9.85355C3.15829 10.0488 2.84171 10.0488 2.64645 9.85355C2.45118 9.65829 2.45118 9.34171 2.64645 9.14645L5.7925 6L2.64645 2.85355C2.4662 2.67331 2.45234 2.3897 2.60485 2.19355L2.64645 2.14645L2.60485 2.19355Z" fill="#A1B3C4"/>
</svg>
