<svg width="161" height="160" viewBox="0 0 161 160" fill="none" xmlns="http://www.w3.org/2000/svg">
<rect x="36.5" y="58" width="90" height="8" rx="4" fill="#E4EAEE"/>
<rect x="36.5" y="73" width="90" height="8" rx="4" fill="#E4EAEE"/>
<rect x="36.5" y="88" width="90" height="8" rx="4" fill="#E4EAEE"/>
<rect x="36.5" y="103" width="90" height="8" rx="4" fill="#E4EAEE"/>
<rect x="36.5" y="118" width="90" height="8" rx="4" fill="#E4EAEE"/>
<g filter="url(#filter0_d_1210_116393)">
<circle cx="36.5" cy="58" r="24" fill="url(#paint0_linear_1210_116393)"/>
<path d="M38.5 62L34.5 62C33.9477 62 33.5 62.4477 33.5 63C33.5 63.5128 33.886 63.9355 34.3834 63.9933L34.5 64L38.5 64C39.0523 64 39.5 63.5523 39.5 63C39.5 62.4872 39.114 62.0645 38.6166 62.0067L38.5 62L34.5 62L38.5 62ZM40.5 57L32.5 57C31.9477 57 31.5 57.4477 31.5 58C31.5 58.5128 31.886 58.9355 32.3834 58.9933L32.5 59L40.5 59C41.0523 59 41.5 58.5523 41.5 58C41.5 57.4872 41.114 57.0645 40.6166 57.0067L40.5 57L32.5 57L40.5 57ZM43.5 52L29.5 52C28.9477 52 28.5 52.4477 28.5 53C28.5 53.5128 28.886 53.9355 29.3834 53.9933L29.5 54L43.5 54C44.0523 54 44.5 53.5523 44.5 53C44.5 52.4872 44.114 52.0645 43.6166 52.0067L43.5 52L29.5 52L43.5 52Z" fill="white"/>
</g>
<path d="M143.626 65.1226C142.585 64.6951 142.059 63.49 142.583 62.4944C142.87 61.9496 143.196 61.4274 143.586 60.9532C144.174 60.2512 144.803 59.7512 145.472 59.4529C146.144 59.1471 146.902 58.9246 147.743 58.7855C148.321 58.6878 148.861 58.5436 149.363 58.3529C149.875 58.1577 150.324 57.8922 150.708 57.5565C151.096 57.2132 151.399 56.7775 151.616 56.2494C151.86 55.6534 151.933 55.0793 151.834 54.527C151.734 53.9748 151.497 53.4803 151.12 53.0436C150.752 52.6101 150.277 52.274 149.696 52.0353C149.16 51.8153 148.603 51.7231 148.024 51.7586C147.456 51.7897 146.917 51.9741 146.408 52.3117C145.475 52.9356 144.353 53.5177 143.315 53.0911L143.233 53.0574C142.085 52.5859 141.516 51.2224 142.301 50.2623C142.705 49.7687 143.158 49.3566 143.658 49.026C144.718 48.333 145.891 47.9682 147.176 47.9316C148.468 47.8981 149.774 48.1525 151.095 48.6948C152.536 49.2868 153.699 50.0601 154.586 51.015C155.48 51.9729 156.04 53.0452 156.267 54.2317C156.504 55.4138 156.361 56.6424 155.837 57.9174C155.484 58.7775 155.028 59.4897 154.47 60.0541C153.92 60.6215 153.283 61.0655 152.561 61.386C151.839 61.7065 151.045 61.9316 150.181 62.0615C149.414 62.1877 148.752 62.3739 148.192 62.6202C147.64 62.8695 147.156 63.2309 146.741 63.7041C146.635 63.8281 146.535 63.9569 146.442 64.0898C145.794 65.0099 144.667 65.55 143.626 65.1226ZM140.81 72.2192C140.131 71.9403 139.646 71.4587 139.354 70.7744C139.061 70.0901 139.058 69.4009 139.343 68.7068C139.622 68.0278 140.106 67.5476 140.795 67.2661C141.483 66.9847 142.167 66.9835 142.846 67.2624C143.518 67.5382 143.999 68.0183 144.292 68.7026C144.591 69.3899 144.601 70.0731 144.323 70.7522C144.134 71.2124 143.845 71.5831 143.456 71.8642C143.074 72.1485 142.649 72.3263 142.179 72.3977C141.719 72.4646 141.263 72.4051 140.81 72.2192Z" fill="#E4EAEE"/>
<path d="M19.5268 123.777C18.5329 124.359 17.2254 124.039 16.7401 122.994C16.4746 122.423 16.2518 121.833 16.1082 121.221C15.9019 120.307 15.8851 119.484 16.0577 118.755C16.2261 118.018 16.515 117.263 16.9244 116.491C17.2037 115.96 17.4214 115.431 17.5775 114.905C17.7366 114.367 17.7989 113.837 17.7645 113.315C17.7259 112.786 17.559 112.27 17.2637 111.765C16.9306 111.196 16.5084 110.78 15.9971 110.518C15.4859 110.257 14.9358 110.143 14.3469 110.178C13.7651 110.209 13.1968 110.387 12.642 110.712C12.1304 111.011 11.7093 111.408 11.3789 111.901C11.0514 112.383 10.8671 112.936 10.826 113.56C10.7545 114.707 10.5321 115.981 9.54027 116.561L9.46174 116.607C8.36556 117.249 6.90211 116.866 6.60842 115.63C6.45745 114.995 6.40265 114.371 6.44401 113.759C6.5383 112.465 6.96932 111.284 7.73706 110.216C8.51201 109.143 9.53 108.238 10.791 107.5C12.1674 106.694 13.5193 106.227 14.8467 106.098C16.1814 105.965 17.402 106.175 18.5087 106.727C19.6183 107.267 20.5295 108.146 21.2422 109.364C21.723 110.186 22.0199 110.999 22.1329 111.803C22.253 112.604 22.2193 113.397 22.0317 114.184C21.8442 114.971 21.5349 115.757 21.1039 116.541C20.7311 117.243 20.4712 117.898 20.3242 118.507C20.1845 119.111 20.1784 119.729 20.3062 120.36C20.3407 120.524 20.3838 120.685 20.4339 120.844C20.7811 121.942 20.5207 123.195 19.5268 123.777ZM23.5554 130.474C22.9069 130.854 22.2135 130.95 21.4752 130.763C20.7368 130.576 20.1737 130.151 19.7857 129.488C19.4061 128.839 19.3156 128.148 19.514 127.412C19.7125 126.677 20.136 126.119 20.7845 125.74C21.4259 125.364 22.1157 125.27 22.854 125.457C23.5995 125.64 24.1621 126.056 24.5416 126.704C24.7989 127.144 24.9213 127.609 24.9088 128.1C24.9035 128.587 24.7839 129.044 24.5501 129.471C24.3194 129.887 23.9878 130.221 23.5554 130.474Z" fill="#E4EAEE"/>
<defs>
<filter id="filter0_d_1210_116393" x="3.5" y="29" width="66" height="66" filterUnits="userSpaceOnUse" color-interpolation-filters="sRGB">
<feFlood flood-opacity="0" result="BackgroundImageFix"/>
<feColorMatrix in="SourceAlpha" type="matrix" values="0 0 0 0 0 0 0 0 0 0 0 0 0 0 0 0 0 0 127 0" result="hardAlpha"/>
<feOffset dy="4"/>
<feGaussianBlur stdDeviation="4.5"/>
<feColorMatrix type="matrix" values="0 0 0 0 0.0705882 0 0 0 0 0.862745 0 0 0 0 0.952941 0 0 0 0.2 0"/>
<feBlend mode="normal" in2="BackgroundImageFix" result="effect1_dropShadow_1210_116393"/>
<feBlend mode="normal" in="SourceGraphic" in2="effect1_dropShadow_1210_116393" result="shape"/>
</filter>
<linearGradient id="paint0_linear_1210_116393" x1="60.5" y1="34" x2="12.5" y2="82" gradientUnits="userSpaceOnUse">
<stop stop-color="#00E5FF"/>
<stop offset="1" stop-color="#2FCCDE"/>
</linearGradient>
</defs>
</svg>
