<svg width="32" height="31" viewBox="0 0 32 31" fill="none" xmlns="http://www.w3.org/2000/svg">
<path d="M15.9999 0.915039C24.2854 0.915039 31.0022 7.44523 31.0022 15.5006C31.0022 23.556 24.2854 30.0862 15.9999 30.0862C7.71433 30.0862 0.997559 23.556 0.997559 15.5006C0.997559 7.44523 7.71433 0.915039 15.9999 0.915039ZM15.9942 12.9471C15.2249 12.9476 14.5913 13.511 14.5051 14.2363L14.4952 14.4064L14.5006 22.4296L14.5108 22.5996C14.5979 23.3249 15.2323 23.8875 16.0015 23.887C16.7708 23.8865 17.4044 23.3231 17.4906 22.5978L17.5006 22.4277L17.4952 14.4045L17.485 14.2345C17.3978 13.5092 16.7634 12.9466 15.9942 12.9471ZM16.0006 7.47904C14.9638 7.47904 14.1233 8.29619 14.1233 9.30418C14.1233 10.3122 14.9638 11.1293 16.0006 11.1293C17.0373 11.1293 17.8778 10.3122 17.8778 9.30418C17.8778 8.29619 17.0373 7.47904 16.0006 7.47904Z" fill="#EECD5F"/>
</svg>
