<svg width="17" height="16" viewBox="0 0 17 16" fill="none" xmlns="http://www.w3.org/2000/svg">
<path d="M8.59998 6.00292C10.0727 6.00292 11.2666 7.19683 11.2666 8.66959C11.2666 10.1423 10.0727 11.3363 8.59998 11.3363C7.12722 11.3363 5.93332 10.1423 5.93332 8.66959C5.93332 7.19683 7.12722 6.00292 8.59998 6.00292ZM8.59998 7.00292C7.67951 7.00292 6.93332 7.74911 6.93332 8.66959C6.93332 9.59006 7.67951 10.3363 8.59998 10.3363C9.52046 10.3363 10.2666 9.59006 10.2666 8.66959C10.2666 7.74911 9.52046 7.00292 8.59998 7.00292ZM8.59998 3.6665C11.6757 3.6665 14.3307 5.76651 15.0674 8.70943C15.1345 8.97731 14.9717 9.24882 14.7038 9.31588C14.4359 9.38294 14.1644 9.22014 14.0973 8.95226C13.4714 6.45181 11.2142 4.6665 8.59998 4.6665C5.9846 4.6665 3.72671 6.45335 3.10189 8.95527C3.03498 9.22319 2.76355 9.38613 2.49564 9.31922C2.22772 9.25232 2.06478 8.98089 2.13169 8.71297C2.86708 5.76832 5.52297 3.6665 8.59998 3.6665Z" fill="#A1B3C4"/>
</svg>