<svg width="24" height="24" viewBox="0 0 24 24" fill="none" xmlns="http://www.w3.org/2000/svg">
<path fill-rule="evenodd" clip-rule="evenodd" d="M22 12C22 6.47716 17.5228 2 12 2C6.47716 2 2 6.47716 2 12C2 17.3978 6.27668 21.7967 11.6264 21.9932C11.0839 21.9731 10.5525 21.9096 10.0353 21.8066V14.1924H8.40437V11.4736H10.0353V9.84154C10.0353 7.62353 10.956 6.30481 13.5722 6.30481H15.7503V9.02382H14.3888C13.3704 9.02382 13.303 9.40357 13.303 10.1126L13.2994 11.4734H15.7656L15.4769 14.1919H13.2994V21.9161C12.9843 21.957 12.6676 21.983 12.3503 21.994C17.7109 21.8094 22 17.4056 22 12Z" fill="#525D67"/>
</svg>
