<svg width="20" height="20" viewBox="0 0 20 20" fill="none" xmlns="http://www.w3.org/2000/svg">
<path fill-rule="evenodd" clip-rule="evenodd" d="M9.99984 1.66699C14.6022 1.66699 18.3332 5.39796 18.3332 10.0003C18.3332 14.6027 14.6022 18.3337 9.99984 18.3337C5.39747 18.3337 1.6665 14.6027 1.6665 10.0003C1.6665 5.39796 5.39747 1.66699 9.99984 1.66699Z" fill="url(#paint0_linear_1095_19698)"/>
<path d="M11.0826 18.2633V11.8265H12.8972L13.1378 9.56105H11.0826L11.0856 8.42709C11.0856 7.8362 11.1417 7.51975 11.9905 7.51975H13.125V5.25391H11.31C9.12976 5.25391 8.3625 6.35284 8.3625 8.20118V9.56122H7.00342V11.8269H8.3625V18.1721C8.89196 18.2775 9.43934 18.3333 9.99979 18.3333C10.3618 18.3333 10.7235 18.3099 11.0826 18.2633Z" fill="white"/>
<defs>
<linearGradient id="paint0_linear_1095_19698" x1="9.99984" y1="1.51515" x2="9.99984" y2="19.0443" gradientUnits="userSpaceOnUse">
<stop stop-color="#00B2FF"/>
<stop offset="1" stop-color="#006AFF"/>
</linearGradient>
</defs>
</svg>
