<svg width="26" height="26" viewBox="0 0 26 26" fill="none" xmlns="http://www.w3.org/2000/svg">
<path d="M13.0167 0C13.9954 0.0112793 14.9702 0.12435 15.9254 0.337384C16.3424 0.43038 16.6542 0.778015 16.7016 1.20262L16.9285 3.23841C17.0312 4.17315 17.8204 4.88112 18.7613 4.88211C19.0142 4.8825 19.2644 4.82984 19.4981 4.72644L21.3656 3.90608C21.754 3.73546 22.2078 3.82848 22.4977 4.13815C23.8473 5.57952 24.8524 7.3082 25.4374 9.19411C25.5635 9.60077 25.4184 10.0427 25.0756 10.2953L23.4203 11.5155C22.9481 11.8624 22.6693 12.4133 22.6693 12.9993C22.6693 13.5852 22.9481 14.1362 23.4214 14.4839L25.0781 15.7044C25.4209 15.957 25.5662 16.399 25.4401 16.8057C24.8553 18.6913 23.8508 20.4199 22.502 21.8615C22.2123 22.1711 21.7588 22.2643 21.3705 22.0942L19.4954 21.2727C18.9589 21.0379 18.3428 21.0723 17.8359 21.3653C17.3289 21.6583 16.9915 22.1749 16.9271 22.757L16.7017 24.7925C16.6552 25.2123 16.35 25.5576 15.9392 25.6553C14.0079 26.1148 11.9958 26.1148 10.0645 25.6553C9.6537 25.5576 9.34855 25.2123 9.30206 24.7925L9.07697 22.76C9.01085 22.179 8.67294 21.664 8.16639 21.372C7.65983 21.08 7.04476 21.0457 6.51009 21.2792L4.63459 22.1009C4.24612 22.2711 3.79253 22.1777 3.50286 21.8679C2.15332 20.4246 1.14875 18.694 0.564756 16.8064C0.438971 16.3998 0.584304 15.9582 0.92695 15.7057L2.58473 14.4844C3.05691 14.1375 3.33579 13.5865 3.33579 13.0006C3.33579 12.4147 3.05691 11.8637 2.58411 11.5163L0.92737 10.2971C0.584216 10.0446 0.43875 9.60238 0.564978 9.19544C1.14998 7.30953 2.15508 5.58086 3.50466 4.13949C3.79461 3.82981 4.24841 3.73679 4.63681 3.90741L6.50398 4.72763C7.04124 4.96341 7.65889 4.92779 8.16818 4.63025C8.67527 4.33612 9.01287 3.81896 9.07804 3.23686L9.30481 1.20262C9.35217 0.7778 9.6643 0.430054 10.0816 0.337256C11.0379 0.12456 12.0138 0.0115383 13.0167 0ZM13.017 1.99986C12.4116 2.00699 11.8079 2.05924 11.2109 2.15602L11.0657 3.45891C10.9299 4.67157 10.2272 5.74803 9.17438 6.35871C8.11512 6.97756 6.82364 7.05203 5.69993 6.55889L4.50221 6.03275C3.73963 6.9583 3.13268 8.0018 2.70518 9.12224L3.76891 9.90505C4.75399 10.6288 5.33579 11.7782 5.33579 13.0006C5.33579 14.223 4.75399 15.3724 3.76995 16.0954L2.70455 16.8803C3.13167 18.0027 3.73872 19.0482 4.50182 19.9755L5.70867 19.4468C6.82612 18.9589 8.10881 19.0303 9.16519 19.6392C10.2216 20.2482 10.9263 21.3223 11.0645 22.5368L11.2098 23.8487C12.396 24.0504 13.6078 24.0504 14.794 23.8487L14.9392 22.5369C15.0736 21.3227 15.7775 20.2449 16.8351 19.6337C17.8928 19.0224 19.1781 18.9507 20.2976 19.4406L21.5034 19.9689C22.2659 19.043 22.8727 17.9993 23.3001 16.8786L22.2361 16.0948C21.2511 15.3711 20.6693 14.2217 20.6693 12.9993C20.6693 11.7769 21.2511 10.6275 22.2349 9.90463L23.2974 9.12146C22.8699 8.00081 22.2629 6.95712 21.5002 6.03141L20.3049 6.55649C19.8178 6.77201 19.2909 6.88294 18.7587 6.88211C16.7991 6.88005 15.1545 5.40473 14.9407 3.45843L14.7954 2.1556C14.2014 2.05893 13.604 2.00683 13.017 1.99986ZM13.0001 7.99993C15.7615 7.99993 18.0001 10.2385 18.0001 12.9999C18.0001 15.7614 15.7615 17.9999 13.0001 17.9999C10.2387 17.9999 8.00008 15.7614 8.00008 12.9999C8.00008 10.2385 10.2387 7.99993 13.0001 7.99993ZM13.0001 9.99993C11.3432 9.99993 10.0001 11.3431 10.0001 12.9999C10.0001 14.6568 11.3432 15.9999 13.0001 15.9999C14.6569 15.9999 16.0001 14.6568 16.0001 12.9999C16.0001 11.3431 14.6569 9.99993 13.0001 9.99993Z" fill="#32C4D4"/>
</svg>
