<svg width="25" height="24" viewBox="0 0 25 24" fill="none" xmlns="http://www.w3.org/2000/svg">
<path d="M3.87146 15.8765L9.85648 5.18631L15.0426 8.27397L9.05833 18.9641L3.87146 15.8765Z" fill="#525D67"/>
<path d="M21.0777 15.8392L15.089 5.14528C14.3159 3.63754 12.5044 3.0615 11.0423 3.85869C9.58011 4.65587 9.02222 6.52382 9.79457 8.03155C9.82847 8.09767 9.86459 8.16226 9.90291 8.2261L15.8916 18.9201C16.6993 20.408 18.5241 20.9392 19.9671 20.1063C21.4101 19.2734 21.9253 17.3918 21.1175 15.9038C21.1043 15.8795 21.091 15.856 21.0777 15.8324V15.8392Z" fill="#34404B"/>
<path d="M6.49435 20.484C8.14808 20.484 9.4887 19.1016 9.4887 17.3964C9.4887 15.6911 8.14808 14.3087 6.49435 14.3087C4.84062 14.3087 3.5 15.6911 3.5 17.3964C3.5 19.1016 4.84062 20.484 6.49435 20.484Z" fill="#A1B3C4"/>
</svg>
