<svg width="24" height="24" viewBox="0 0 24 24" fill="none" xmlns="http://www.w3.org/2000/svg">
<mask id="mask0_648_113339" style="mask-type:luminance" maskUnits="userSpaceOnUse" x="3" y="3" width="18" height="18">
<path d="M20.3023 10.4186H12.1977V13.7791H16.8628C16.4279 15.914 14.6093 17.1395 12.1977 17.1395C9.35116 17.1395 7.05814 14.8465 7.05814 12C7.05814 9.15349 9.35116 6.86047 12.1977 6.86047C13.4233 6.86047 14.5302 7.29536 15.4 8.00699L17.9302 5.47674C16.3884 4.13256 14.4116 3.30233 12.1977 3.30233C7.37442 3.30233 3.5 7.17674 3.5 12C3.5 16.8233 7.37442 20.6977 12.1977 20.6977C16.5465 20.6977 20.5 17.5349 20.5 12C20.5 11.486 20.4209 10.9326 20.3023 10.4186Z" fill="white"/>
</mask>
<g mask="url(#mask0_648_113339)">
<path d="M2.70898 17.1395V6.86047L9.42991 12L2.70898 17.1395Z" fill="#FBBC05"/>
</g>
<mask id="mask1_648_113339" style="mask-type:luminance" maskUnits="userSpaceOnUse" x="3" y="3" width="18" height="18">
<path d="M20.3023 10.4186H12.1977V13.7791H16.8628C16.4279 15.914 14.6093 17.1395 12.1977 17.1395C9.35116 17.1395 7.05814 14.8465 7.05814 12C7.05814 9.15349 9.35116 6.86047 12.1977 6.86047C13.4233 6.86047 14.5302 7.29536 15.4 8.00699L17.9302 5.47674C16.3884 4.13256 14.4116 3.30233 12.1977 3.30233C7.37442 3.30233 3.5 7.17674 3.5 12C3.5 16.8233 7.37442 20.6977 12.1977 20.6977C16.5465 20.6977 20.5 17.5349 20.5 12C20.5 11.486 20.4209 10.9326 20.3023 10.4186Z" fill="white"/>
</mask>
<g mask="url(#mask1_648_113339)">
<path d="M2.70898 6.86053L9.42991 12.0001L12.1974 9.58845L21.6857 8.04658V2.51169H2.70898V6.86053Z" fill="#EA4335"/>
</g>
<mask id="mask2_648_113339" style="mask-type:luminance" maskUnits="userSpaceOnUse" x="3" y="3" width="18" height="18">
<path d="M20.3023 10.4186H12.1977V13.7791H16.8628C16.4279 15.914 14.6093 17.1395 12.1977 17.1395C9.35116 17.1395 7.05814 14.8465 7.05814 12C7.05814 9.15349 9.35116 6.86047 12.1977 6.86047C13.4233 6.86047 14.5302 7.29536 15.4 8.00699L17.9302 5.47674C16.3884 4.13256 14.4116 3.30233 12.1977 3.30233C7.37442 3.30233 3.5 7.17674 3.5 12C3.5 16.8233 7.37442 20.6977 12.1977 20.6977C16.5465 20.6977 20.5 17.5349 20.5 12C20.5 11.486 20.4209 10.9326 20.3023 10.4186Z" fill="white"/>
</mask>
<g mask="url(#mask2_648_113339)">
<path d="M2.70898 17.1396L14.5694 8.04658L17.6927 8.44192L21.6857 2.51169V21.4884H2.70898V17.1396Z" fill="#34A853"/>
</g>
<mask id="mask3_648_113339" style="mask-type:luminance" maskUnits="userSpaceOnUse" x="3" y="3" width="18" height="18">
<path d="M20.3023 10.4186H12.1977V13.7791H16.8628C16.4279 15.914 14.6093 17.1395 12.1977 17.1395C9.35116 17.1395 7.05814 14.8465 7.05814 12C7.05814 9.15349 9.35116 6.86047 12.1977 6.86047C13.4233 6.86047 14.5302 7.29536 15.4 8.00699L17.9302 5.47674C16.3884 4.13256 14.4116 3.30233 12.1977 3.30233C7.37442 3.30233 3.5 7.17674 3.5 12C3.5 16.8233 7.37442 20.6977 12.1977 20.6977C16.5465 20.6977 20.5 17.5349 20.5 12C20.5 11.486 20.4209 10.9326 20.3023 10.4186Z" fill="white"/>
</mask>
<g mask="url(#mask3_648_113339)">
<path d="M21.6858 21.4884L9.43003 12L7.84863 10.814L21.6858 6.86047V21.4884Z" fill="#4285F4"/>
</g>
</svg>
