<svg width="374" height="120" viewBox="0 0 374 120" fill="none" xmlns="http://www.w3.org/2000/svg">
<rect width="374" height="120" rx="6" fill="url(#paint0_linear_1912_207385)"/>
<path d="M125.584 50.0592V69H121.785V60.9407H113.671V69H109.872V50.0592H113.671V57.8472H121.785V50.0592H125.584ZM143.298 61.1578C143.298 61.7005 143.262 62.1889 143.19 62.6231H132.2C132.29 63.7085 132.67 64.5588 133.339 65.1739C134.009 65.7889 134.832 66.0965 135.809 66.0965C137.22 66.0965 138.224 65.4904 138.821 64.2784H142.918C142.484 65.7256 141.652 66.9196 140.422 67.8603C139.192 68.7829 137.681 69.2442 135.89 69.2442C134.443 69.2442 133.14 68.9276 131.983 68.2945C130.843 67.6432 129.947 66.7296 129.296 65.5538C128.663 64.3779 128.346 63.0211 128.346 61.4834C128.346 59.9276 128.663 58.5618 129.296 57.3859C129.929 56.21 130.816 55.3055 131.955 54.6723C133.095 54.0391 134.407 53.7225 135.89 53.7225C137.319 53.7225 138.595 54.0301 139.716 54.6452C140.856 55.2602 141.733 56.1376 142.348 57.2773C142.982 58.3989 143.298 59.6924 143.298 61.1578ZM139.363 60.0723C139.345 59.0954 138.993 58.3175 138.305 57.7386C137.618 57.1417 136.777 56.8432 135.782 56.8432C134.841 56.8432 134.045 57.1326 133.394 57.7115C132.76 58.2723 132.371 59.0593 132.227 60.0723H139.363ZM149.87 48.9195V69H146.071V48.9195H149.87ZM157.423 56.1376C157.911 55.4502 158.58 54.8803 159.431 54.4281C160.299 53.9577 161.285 53.7225 162.388 53.7225C163.673 53.7225 164.831 54.0391 165.862 54.6723C166.911 55.3055 167.734 56.21 168.331 57.3859C168.946 58.5437 169.254 59.8914 169.254 61.4291C169.254 62.9668 168.946 64.3326 168.331 65.5266C167.734 66.7025 166.911 67.6161 165.862 68.2673C164.831 68.9186 163.673 69.2442 162.388 69.2442C161.285 69.2442 160.308 69.0181 159.458 68.5658C158.626 68.1136 157.947 67.5437 157.423 66.8563V76.1639H153.624V53.9668H157.423V56.1376ZM165.373 61.4291C165.373 60.5246 165.183 59.7467 164.804 59.0954C164.442 58.4261 163.953 57.9195 163.338 57.5758C162.741 57.2321 162.09 57.0602 161.384 57.0602C160.697 57.0602 160.046 57.2412 159.431 57.603C158.834 57.9467 158.345 58.4532 157.965 59.1226C157.603 59.7919 157.423 60.5789 157.423 61.4834C157.423 62.3879 157.603 63.1748 157.965 63.8442C158.345 64.5135 158.834 65.0291 159.431 65.3909C160.046 65.7347 160.697 65.9065 161.384 65.9065C162.09 65.9065 162.741 65.7256 163.338 65.3638C163.953 65.002 164.442 64.4864 164.804 63.8171C165.183 63.1477 165.373 62.3517 165.373 61.4291ZM177.503 61.4834C177.503 59.9276 177.82 58.5708 178.453 57.413C179.086 56.2371 179.964 55.3326 181.085 54.6994C182.207 54.0482 183.491 53.7225 184.939 53.7225C186.802 53.7225 188.34 54.1929 189.552 55.1336C190.782 56.0562 191.605 57.3587 192.021 59.0412H187.924C187.707 58.3899 187.336 57.8834 186.811 57.5216C186.305 57.1417 185.671 56.9517 184.912 56.9517C183.826 56.9517 182.967 57.3497 182.334 58.1457C181.7 58.9236 181.384 60.0361 181.384 61.4834C181.384 62.9125 181.7 64.0251 182.334 64.8211C182.967 65.599 183.826 65.9879 184.912 65.9879C186.449 65.9879 187.453 65.3005 187.924 63.9256H192.021C191.605 65.5538 190.782 66.8472 189.552 67.806C188.322 68.7648 186.784 69.2442 184.939 69.2442C183.491 69.2442 182.207 68.9276 181.085 68.2945C179.964 67.6432 179.086 66.7387 178.453 65.5809C177.82 64.405 177.503 63.0392 177.503 61.4834ZM208.779 61.1578C208.779 61.7005 208.743 62.1889 208.671 62.6231H197.681C197.771 63.7085 198.151 64.5588 198.82 65.1739C199.49 65.7889 200.313 66.0965 201.29 66.0965C202.701 66.0965 203.705 65.4904 204.302 64.2784H208.399C207.965 65.7256 207.133 66.9196 205.903 67.8603C204.673 68.7829 203.162 69.2442 201.371 69.2442C199.924 69.2442 198.621 68.9276 197.464 68.2945C196.324 67.6432 195.428 66.7296 194.777 65.5538C194.144 64.3779 193.827 63.0211 193.827 61.4834C193.827 59.9276 194.144 58.5618 194.777 57.3859C195.41 56.21 196.297 55.3055 197.436 54.6723C198.576 54.0391 199.888 53.7225 201.371 53.7225C202.8 53.7225 204.076 54.0301 205.197 54.6452C206.337 55.2602 207.214 56.1376 207.829 57.2773C208.463 58.3989 208.779 59.6924 208.779 61.1578ZM204.845 60.0723C204.826 59.0954 204.474 58.3175 203.786 57.7386C203.099 57.1417 202.258 56.8432 201.263 56.8432C200.322 56.8432 199.526 57.1326 198.875 57.7115C198.241 58.2723 197.853 59.0593 197.708 60.0723H204.845ZM219.883 53.7497C221.674 53.7497 223.121 54.3195 224.225 55.4592C225.328 56.5808 225.88 58.1547 225.88 60.1809V69H222.081V60.6964C222.081 59.5025 221.782 58.5889 221.185 57.9557C220.588 57.3045 219.774 56.9788 218.743 56.9788C217.694 56.9788 216.862 57.3045 216.247 57.9557C215.65 58.5889 215.351 59.5025 215.351 60.6964V69H211.552V53.9668H215.351V55.8391C215.858 55.1879 216.5 54.6813 217.278 54.3195C218.074 53.9396 218.942 53.7497 219.883 53.7497ZM233.916 57.0874V64.3598C233.916 64.8663 234.033 65.2372 234.268 65.4723C234.522 65.6894 234.938 65.798 235.517 65.798H237.28V69H234.893C231.691 69 230.089 67.4442 230.089 64.3326V57.0874H228.299V53.9668H230.089V50.2492H233.916V53.9668H237.28V57.0874H233.916ZM253.988 61.1578C253.988 61.7005 253.952 62.1889 253.879 62.6231H242.889C242.98 63.7085 243.36 64.5588 244.029 65.1739C244.698 65.7889 245.522 66.0965 246.498 66.0965C247.909 66.0965 248.913 65.4904 249.51 64.2784H253.608C253.174 65.7256 252.342 66.9196 251.111 67.8603C249.881 68.7829 248.371 69.2442 246.58 69.2442C245.133 69.2442 243.83 68.9276 242.672 68.2945C241.533 67.6432 240.637 66.7296 239.986 65.5538C239.353 64.3779 239.036 63.0211 239.036 61.4834C239.036 59.9276 239.353 58.5618 239.986 57.3859C240.619 56.21 241.505 55.3055 242.645 54.6723C243.785 54.0391 245.096 53.7225 246.58 53.7225C248.009 53.7225 249.284 54.0301 250.406 54.6452C251.546 55.2602 252.423 56.1376 253.038 57.2773C253.671 58.3989 253.988 59.6924 253.988 61.1578ZM250.053 60.0723C250.035 59.0954 249.682 58.3175 248.995 57.7386C248.307 57.1417 247.466 56.8432 246.471 56.8432C245.531 56.8432 244.735 57.1326 244.083 57.7115C243.45 58.2723 243.061 59.0593 242.916 60.0723H250.053ZM260.56 56.3004C261.048 55.5045 261.681 54.8803 262.459 54.4281C263.255 53.9758 264.16 53.7497 265.173 53.7497V57.7386H264.169C262.975 57.7386 262.07 58.019 261.455 58.5799C260.858 59.1407 260.56 60.1175 260.56 61.5105V69H256.761V53.9668H260.56V56.3004Z" fill="white"/>
<path opacity="0.5" d="M343.31 79.7122C344.772 80.8969 345.621 82.2486 345.857 83.7673C346.118 85.2833 345.685 86.737 344.557 88.1283C343.441 89.5056 342.144 90.2008 340.666 90.2139C339.2 90.213 337.736 89.6201 336.274 88.4354L334.874 89.9903L332.281 87.8886L335.081 84.2195L336.029 84.9884C337.252 85.9794 338.325 86.581 339.247 86.7932C340.17 87.0054 340.978 86.6828 341.673 85.8255C342.175 85.2072 342.391 84.5672 342.321 83.9057C342.266 83.2555 341.929 82.6798 341.311 82.1786C340.665 81.6545 340.016 81.4201 339.366 81.4753C338.73 81.5418 338.161 81.8843 337.66 82.5027L334.877 80.2472C335.558 79.3785 336.362 78.7607 337.288 78.3937C338.214 78.0267 339.197 77.9496 340.235 78.1625C341.287 78.3868 342.312 78.9034 343.31 79.7122ZM329.484 93.9691C328.949 93.5362 328.638 93.0158 328.548 92.4077C328.485 91.7971 328.652 91.2458 329.051 90.7539C329.449 90.262 329.948 89.9912 330.548 89.9413C331.172 89.8888 331.752 90.079 332.286 90.5119C332.806 90.9334 333.098 91.4495 333.162 92.0601C333.237 92.6568 333.075 93.201 332.677 93.6929C332.278 94.1848 331.773 94.4626 331.162 94.5265C330.563 94.5764 330.004 94.3906 329.484 93.9691Z" fill="white"/>
<path opacity="0.5" d="M304.456 20.5086C306.251 19.9445 307.846 19.9834 309.243 20.6254C310.651 21.2447 311.624 22.4086 312.161 24.1172C312.692 25.8085 312.555 27.2737 311.75 28.5128C310.94 29.7347 309.637 30.6278 307.842 31.1919L308.365 33.2178L305.181 34.2186L303.668 29.8584L304.833 29.4923C306.335 29.0204 307.429 28.4584 308.115 27.8066C308.801 27.1547 308.979 26.3024 308.648 25.2496C308.409 24.4903 307.995 23.9567 307.406 23.6491C306.833 23.336 306.167 23.2987 305.408 23.5374C304.614 23.7869 304.06 24.1979 303.747 24.7704C303.451 25.3375 303.423 26.0007 303.662 26.7601L300.244 27.8341C299.896 26.7868 299.825 25.7757 300.031 24.8008C300.236 23.826 300.714 22.9645 301.465 22.2165C302.234 21.463 303.23 20.8937 304.456 20.5086ZM308.705 39.9093C308.049 40.1154 307.443 40.0878 306.887 39.8265C306.342 39.5425 305.975 39.0984 305.785 38.4944C305.595 37.8904 305.645 37.3248 305.935 36.7977C306.236 36.2479 306.714 35.8699 307.37 35.6638C308.009 35.4631 308.6 35.5047 309.145 35.7887C309.684 36.0555 310.048 36.4909 310.238 37.0949C310.428 37.6989 310.381 38.2732 310.097 38.8175C309.807 39.3447 309.343 39.7086 308.705 39.9093Z" fill="white"/>
<path opacity="0.5" d="M82.144 31.6897C83.6176 32.8595 84.4801 34.2025 84.7316 35.7187C85.0085 37.232 84.5903 38.69 83.4767 40.0927C82.3745 41.4813 81.0846 42.1896 79.607 42.2178C78.1408 42.2318 76.6708 41.6539 75.1973 40.4842L73.8132 42.0532L71.199 39.978L73.9609 36.2806L74.9173 37.0398C76.15 38.0183 77.2287 38.609 78.1533 38.8118C79.0779 39.0145 79.8833 38.6838 80.5694 37.8195C81.0643 37.196 81.2738 36.5539 81.1978 35.8931C81.1361 35.2435 80.7935 34.6712 80.17 34.1763C79.5183 33.6589 78.8676 33.4311 78.218 33.4929C77.5826 33.5659 77.0174 33.9142 76.5225 34.5376L73.7171 32.3106C74.389 31.435 75.1862 30.809 76.1087 30.4326C77.0311 30.0562 78.0126 29.9691 79.0531 30.1715C80.1077 30.385 81.138 30.8911 82.144 31.6897ZM68.4632 46.0867C67.9247 45.6593 67.6078 45.142 67.5122 44.535C67.4421 43.925 67.6039 43.372 67.9976 42.8761C68.3913 42.3802 68.8875 42.1043 69.4862 42.0483C70.1104 41.9895 70.6917 42.1737 71.2301 42.6012C71.7543 43.0173 72.0515 43.5304 72.1216 44.1404C72.203 44.7362 72.0468 45.2821 71.6531 45.778C71.2595 46.2739 70.7576 46.5569 70.1476 46.627C69.5489 46.683 68.9874 46.5029 68.4632 46.0867Z" fill="white"/>
<path opacity="0.5" d="M39.1826 78.0072C41.0174 77.5911 42.6046 77.7598 43.9442 78.5133C45.2974 79.2452 46.1721 80.4844 46.5682 82.231C46.9604 83.9599 46.7048 85.4092 45.8014 86.5787C44.894 87.7305 43.5229 88.5146 41.6881 88.9307L42.0444 90.9924L38.7894 91.7307L37.6366 87.2619L38.8275 86.9918C40.3624 86.6437 41.4984 86.1727 42.2356 85.5788C42.9727 84.985 43.2193 84.15 42.9752 83.0738C42.7991 82.2975 42.4297 81.732 41.8669 81.3774C41.3218 81.0187 40.6612 80.9274 39.8849 81.1035C39.0733 81.2876 38.4882 81.6521 38.1296 82.1972C37.7886 82.7383 37.7061 83.397 37.8821 84.1733L34.3889 84.9656C34.1272 83.8934 34.1385 82.8799 34.4227 81.925C34.707 80.9701 35.2538 80.1505 36.0632 79.466C36.8902 78.7776 37.93 78.2914 39.1826 78.0072ZM41.8382 97.6894C41.1678 97.8414 40.566 97.7646 40.0329 97.4589C39.5135 97.1315 39.1837 96.6591 39.0437 96.0416C38.9036 95.4241 38.9993 94.8644 39.3307 94.3626C39.6757 93.8392 40.1834 93.5014 40.8538 93.3493C41.5066 93.2013 42.0927 93.2909 42.6121 93.6183C43.1276 93.9281 43.4554 94.3917 43.5954 95.0092C43.7355 95.6266 43.6418 96.1951 43.3144 96.7146C42.983 97.2164 42.491 97.5413 41.8382 97.6894Z" fill="white"/>
<defs>
<linearGradient id="paint0_linear_1912_207385" x1="374" y1="0" x2="304.182" y2="217.599" gradientUnits="userSpaceOnUse">
<stop stop-color="#00E5FF"/>
<stop offset="1" stop-color="#2FCCDE"/>
</linearGradient>
</defs>
</svg>
