<svg width="21" height="20" viewBox="0 0 21 20" fill="none" xmlns="http://www.w3.org/2000/svg">
<path d="M10.6 1.66602C15.2031 1.66602 18.9346 5.39755 18.9346 10.0006C18.9346 14.6037 15.2031 18.3353 10.6 18.3353C5.99689 18.3353 2.26535 14.6037 2.26535 10.0006C2.26535 5.39755 5.99689 1.66602 10.6 1.66602ZM10.6 2.91602C6.68725 2.91602 3.51535 6.08791 3.51535 10.0006C3.51535 13.9134 6.68725 17.0853 10.6 17.0853C14.5127 17.0853 17.6846 13.9134 17.6846 10.0006C17.6846 6.08791 14.5127 2.91602 10.6 2.91602ZM10.5969 8.74984C10.9134 8.74963 11.175 8.98459 11.2166 9.28962L11.2223 9.37443L11.2253 13.9591C11.2256 14.3043 10.9459 14.5843 10.6008 14.5845C10.2843 14.5847 10.0227 14.3497 9.98111 14.0447L9.97535 13.9599L9.97235 9.37524C9.97212 9.03007 10.2518 8.75006 10.5969 8.74984ZM10.6003 5.83503C11.06 5.83503 11.4326 6.20763 11.4326 6.66725C11.4326 7.12687 11.06 7.49947 10.6003 7.49947C10.1407 7.49947 9.76813 7.12687 9.76813 6.66725C9.76813 6.20763 10.1407 5.83503 10.6003 5.83503Z" fill="#A1B3C4"/>
</svg>