<svg width="16" height="16" viewBox="0 0 16 16" fill="none" xmlns="http://www.w3.org/2000/svg">
<path d="M3.20827 1.75C2.40287 1.75 1.74997 2.40292 1.74997 3.20833V12.7917C1.74997 13.5971 2.40287 14.25 3.20827 14.25H12.7914C13.5968 14.25 14.2497 13.5971 14.2497 12.7917V9.45833C14.2497 9.11316 14.5295 8.83333 14.8746 8.83333C15.2198 8.83333 15.4996 9.11316 15.4996 9.45833V12.7917C15.4996 14.2874 14.2871 15.5 12.7914 15.5H3.20827C1.71253 15.5 0.5 14.2874 0.5 12.7917V3.20833C0.5 1.71256 1.71253 0.5 3.20827 0.5H6.54152C6.88668 0.5 7.1665 0.779822 7.1665 1.125C7.1665 1.47018 6.88668 1.75 6.54152 1.75H3.20827ZM8.83313 1.125C8.83313 0.779822 9.11294 0.5 9.45811 0.5H14.875C15.2202 0.5 15.5 0.779822 15.5 1.125V6.54167C15.5 6.88684 15.2202 7.16667 14.875 7.16667C14.5298 7.16667 14.25 6.88684 14.25 6.54167V2.63395L9.90002 6.98363C9.65593 7.2277 9.26021 7.22768 9.01616 6.98359C8.7721 6.7395 8.77212 6.34377 9.0162 6.0997L13.3662 1.75H9.45811C9.11294 1.75 8.83313 1.47018 8.83313 1.125Z" fill="#A1B3C4"/>
</svg>