<svg width="20" height="25" viewBox="0 0 20 25" fill="none" xmlns="http://www.w3.org/2000/svg">
<path d="M10.0001 0.55957C12.638 0.55957 14.7763 2.69794 14.7763 5.33576V7.72386H17.7614C18.7506 7.72386 19.5525 8.52575 19.5525 9.51493V22.6495C19.5525 23.6386 18.7506 24.4405 17.7614 24.4405H2.23883C1.24964 24.4405 0.447754 23.6386 0.447754 22.6495V9.51493C0.447754 8.52575 1.24964 7.72386 2.23883 7.72386H5.22394V5.33576C5.22394 2.69794 7.36232 0.55957 10.0001 0.55957ZM10.0003 14.2911C9.0111 14.2911 8.20921 15.093 8.20921 16.0822C8.20921 17.0714 9.0111 17.8733 10.0003 17.8733C10.9895 17.8733 11.7914 17.0714 11.7914 16.0822C11.7914 15.093 10.9895 14.2911 10.0003 14.2911ZM10.0001 2.94767C8.68123 2.94767 7.61204 4.01685 7.61204 5.33576V7.72386H12.3882V5.33576C12.3882 4.01685 11.319 2.94767 10.0001 2.94767Z" fill="#32C4D4"/>
</svg>
