<svg width="21" height="20" viewBox="0 0 21 20" fill="none" xmlns="http://www.w3.org/2000/svg">
<path d="M14.8431 1.8644C14.9523 1.53695 14.7753 1.18297 14.4479 1.07377C14.1204 0.964574 13.7665 1.1415 13.6573 1.46895L13.0323 3.3431C12.9231 3.67055 13.1 4.02453 13.4274 4.13373C13.7549 4.24293 14.1089 4.066 14.2181 3.73855L14.8431 1.8644ZM18.6503 1.84974C18.8944 2.09382 18.8944 2.48955 18.6503 2.73362L16.5669 4.81696C16.3229 5.06103 15.9271 5.06103 15.6831 4.81696C15.439 4.57288 15.439 4.17715 15.6831 3.93307L17.7664 1.84974C18.0105 1.60566 18.4062 1.60566 18.6503 1.84974ZM11.2255 3.11741C10.2956 2.12122 8.65509 2.37082 8.06358 3.59848L3.14873 13.799C2.86496 14.388 2.99531 15.0929 3.47094 15.5414L4.66989 16.6721C5.10931 17.0865 5.75442 17.1969 6.30665 16.9522L7.48787 16.4289C8.02292 17.5549 9.17069 18.3333 10.5003 18.3333C12.3412 18.3333 13.8336 16.841 13.8336 15C13.8336 14.5498 13.7444 14.1204 13.5826 13.7286L16.4325 12.466C17.6507 11.9262 17.9733 10.3464 17.0641 9.3724L11.2255 3.11741ZM12.4388 14.2354C12.5323 14.4721 12.5836 14.7301 12.5836 15C12.5836 16.1506 11.6509 17.0833 10.5003 17.0833C9.68079 17.0833 8.9718 16.6102 8.63163 15.9221L12.4388 14.2354ZM16.3333 6.87441C16.3333 6.52923 16.6132 6.24941 16.9583 6.24941H18.625C18.9702 6.24941 19.25 6.52923 19.25 6.87441C19.25 7.21958 18.9702 7.49941 18.625 7.49941H16.9583C16.6132 7.49941 16.3333 7.21958 16.3333 6.87441Z" fill="#A1B3C4"/>
</svg>
