<svg width="116" height="116" viewBox="0 0 116 116" fill="none" xmlns="http://www.w3.org/2000/svg">
<path d="M58.0003 32.1666C72.2677 32.1666 83.8337 43.7326 83.8337 58C83.8337 72.2673 72.2677 83.8333 58.0003 83.8333C43.733 83.8333 32.167 72.2673 32.167 58C32.167 43.7326 43.733 32.1666 58.0003 32.1666ZM66.3178 50.1716L54.7712 61.7183L49.6828 56.6299C48.9262 55.8733 47.6994 55.8733 46.9428 56.6299C46.1862 57.3866 46.1862 58.6133 46.9428 59.37L53.4011 65.8283C54.1578 66.5849 55.3845 66.5849 56.1412 65.8283L69.0578 52.9116C69.8145 52.155 69.8145 50.9282 69.0578 50.1716C68.3012 49.415 67.0744 49.415 66.3178 50.1716Z" fill="#E4EAEE"/>
<g filter="url(#filter0_d_3234_318868)">
<circle cx="36.5387" cy="38.86" r="16.82" fill="url(#paint0_linear_3234_318868)"/>
<path d="M37.0003 32.3334C33.3183 32.3334 30.3337 35.3187 30.3337 39C30.3337 42.6814 33.3183 45.6667 37.0003 45.6667C40.6823 45.6667 43.667 42.6814 43.667 39C43.667 35.3187 40.6823 32.3334 37.0003 32.3334ZM36.9991 41.0025C37.3668 41.0025 37.6649 41.3006 37.6649 41.6683C37.6649 42.036 37.3668 42.3341 36.9991 42.3341C36.6314 42.3341 36.3334 42.036 36.3334 41.6683C36.3334 41.3006 36.6314 41.0025 36.9991 41.0025ZM37.0006 35.6667C37.3425 35.6668 37.6241 35.9243 37.6625 36.2559L37.667 36.3336L37.6658 39.6675L37.6613 39.7453C37.6226 40.0768 37.3408 40.3341 36.9989 40.334C36.657 40.3338 36.3753 40.0764 36.3369 39.7448L36.3325 39.6671L36.3337 36.3331L36.3382 36.2554C36.3768 35.9238 36.6587 35.6666 37.0006 35.6667Z" fill="white"/>
</g>
<path d="M91.3047 32.0017C90.5844 31.7059 90.2204 30.8718 90.583 30.1827C90.7813 29.8056 91.0068 29.4442 91.2771 29.116C91.6841 28.6302 92.1192 28.2841 92.5824 28.0777C93.0477 27.866 93.5717 27.7121 94.1544 27.6158C94.5544 27.5482 94.928 27.4484 95.2751 27.3164C95.6297 27.1813 95.9401 26.9975 96.2064 26.7652C96.4749 26.5276 96.6842 26.2261 96.8343 25.8605C97.0037 25.448 97.0541 25.0507 96.9853 24.6685C96.9165 24.2862 96.7519 23.944 96.4916 23.6418C96.2365 23.3417 95.9079 23.1091 95.5058 22.944C95.1351 22.7917 94.7494 22.7278 94.3487 22.7524C93.9554 22.774 93.5826 22.9015 93.2303 23.1352C92.5843 23.567 91.8082 23.9699 91.0894 23.6747L91.0325 23.6513C90.2382 23.325 89.844 22.3813 90.3879 21.7168C90.6675 21.3752 90.9804 21.09 91.3267 20.8612C92.0607 20.3815 92.8723 20.1291 93.7615 20.1037C94.6559 20.0806 95.56 20.2566 96.4738 20.632C97.4711 21.0417 98.2765 21.5769 98.8899 22.2378C99.5086 22.9008 99.8964 23.6429 100.053 24.4641C100.218 25.2822 100.119 26.1325 99.7562 27.015C99.5117 27.6103 99.1963 28.1032 98.8101 28.4938C98.4291 28.8865 97.9886 29.1938 97.4886 29.4156C96.9886 29.6374 96.4394 29.7932 95.8411 29.8831C95.3109 29.9704 94.8521 30.0993 94.4648 30.2698C94.0826 30.4424 93.748 30.6924 93.4609 31.02C93.3869 31.1058 93.318 31.1949 93.2533 31.2869C92.8053 31.9237 92.0249 32.2975 91.3047 32.0017ZM89.3558 36.9133C88.8859 36.7202 88.5498 36.3869 88.3477 35.9133C88.1456 35.4397 88.1432 34.9627 88.3405 34.4823C88.5335 34.0124 88.8684 33.68 89.345 33.4853C89.8217 33.2905 90.295 33.2896 90.765 33.4827C91.2297 33.6736 91.5631 34.0058 91.7653 34.4794C91.9726 34.9551 91.9798 35.428 91.7868 35.8979C91.6559 36.2165 91.456 36.473 91.1868 36.6676C90.9229 36.8643 90.6283 36.9874 90.3029 37.0368C89.9848 37.0832 89.6691 37.042 89.3558 36.9133Z" fill="#E4EAEE"/>
<path d="M22.7864 91.5594C21.9818 92.0303 20.9234 91.7713 20.5306 90.9258C20.3157 90.4632 20.1353 89.9862 20.0191 89.4905C19.8521 88.7503 19.8385 88.0848 19.9782 87.494C20.1146 86.8973 20.3484 86.2867 20.6798 85.662C20.9059 85.2321 21.0821 84.8039 21.2085 84.3776C21.3372 83.942 21.3877 83.513 21.3599 83.0908C21.3286 82.6627 21.1935 82.2445 20.9545 81.8362C20.6848 81.3754 20.343 81.0389 19.9292 80.8269C19.5153 80.6149 19.07 80.5231 18.5933 80.5516C18.1224 80.5766 17.6624 80.7205 17.2132 80.9834C16.7991 81.2258 16.4582 81.5466 16.1908 81.946C15.9257 82.336 15.7765 82.7836 15.7432 83.2886C15.6853 84.2172 15.5053 85.2486 14.7024 85.7185L14.6388 85.7558C13.7515 86.2751 12.5669 85.9652 12.3291 84.9649C12.2069 84.4507 12.1625 83.9457 12.196 83.45C12.2724 82.4029 12.6213 81.4469 13.2427 80.5819C13.87 79.7136 14.6941 78.9807 15.7149 78.3832C16.829 77.7312 17.9234 77.353 18.9979 77.2488C20.0783 77.1412 21.0664 77.3108 21.9622 77.7575C22.8605 78.1951 23.5981 78.9067 24.175 79.8925C24.5642 80.5575 24.8045 81.2157 24.896 81.867C24.9932 82.5148 24.9659 83.1573 24.8141 83.7944C24.6623 84.4314 24.4119 85.0674 24.063 85.7023C23.7612 86.2705 23.5509 86.8009 23.4319 87.2934C23.3188 87.7825 23.3139 88.2826 23.4173 88.7938C23.4453 88.9265 23.4801 89.0569 23.5207 89.1852C23.8017 90.0741 23.591 91.0885 22.7864 91.5594ZM26.0475 96.9808C25.5225 97.2881 24.9612 97.366 24.3636 97.2146C23.7659 97.0632 23.31 96.7192 22.996 96.1825C22.6887 95.6575 22.6154 95.0974 22.7761 94.5022C22.9367 93.907 23.2795 93.4557 23.8045 93.1485C24.3237 92.8446 24.8821 92.7684 25.4797 92.9198C26.0832 93.0678 26.5386 93.4043 26.8458 93.9293C27.0541 94.2851 27.1532 94.6618 27.143 95.0593C27.1387 95.4533 27.042 95.8232 26.8527 96.1689C26.6659 96.5054 26.3975 96.776 26.0475 96.9808Z" fill="#E4EAEE"/>
<defs>
<filter id="filter0_d_3234_318868" x="13.4113" y="18.5359" width="46.2546" height="46.255" filterUnits="userSpaceOnUse" color-interpolation-filters="sRGB">
<feFlood flood-opacity="0" result="BackgroundImageFix"/>
<feColorMatrix in="SourceAlpha" type="matrix" values="0 0 0 0 0 0 0 0 0 0 0 0 0 0 0 0 0 0 127 0" result="hardAlpha"/>
<feOffset dy="2.80333"/>
<feGaussianBlur stdDeviation="3.15375"/>
<feColorMatrix type="matrix" values="0 0 0 0 0.0705882 0 0 0 0 0.862745 0 0 0 0 0.952941 0 0 0 0.2 0"/>
<feBlend mode="normal" in2="BackgroundImageFix" result="effect1_dropShadow_3234_318868"/>
<feBlend mode="normal" in="SourceGraphic" in2="effect1_dropShadow_3234_318868" result="shape"/>
</filter>
<linearGradient id="paint0_linear_3234_318868" x1="53.3587" y1="22.04" x2="19.7188" y2="55.68" gradientUnits="userSpaceOnUse">
<stop stop-color="#00E5FF"/>
<stop offset="1" stop-color="#2FCCDE"/>
</linearGradient>
</defs>
</svg>
