<svg width="161" height="160" viewBox="0 0 161 160" fill="none" xmlns="http://www.w3.org/2000/svg">
<rect x="36.5" y="58" width="90" height="8" rx="4" fill="#E4EAEE"/>
<rect x="36.5" y="73" width="90" height="8" rx="4" fill="#E4EAEE"/>
<rect x="36.5" y="88" width="90" height="8" rx="4" fill="#E4EAEE"/>
<rect x="36.5" y="103" width="90" height="8" rx="4" fill="#E4EAEE"/>
<rect x="36.5" y="118" width="90" height="8" rx="4" fill="#E4EAEE"/>
<g filter="url(#filter0_d_4_200673)">
<circle cx="36.5" cy="58" r="24" fill="url(#paint0_linear_4_200673)"/>
<path d="M38.5 48.5C34.3579 48.5 31 51.8579 31 56C31 57.7101 31.5724 59.2866 32.536 60.5483L27.7929 65.2929C27.4024 65.6834 27.4024 66.3166 27.7929 66.7071C28.1534 67.0676 28.7206 67.0953 29.1129 66.7903L29.2071 66.7071L33.9517 61.964C35.2134 62.9276 36.7899 63.5 38.5 63.5C42.6421 63.5 46 60.1421 46 56C46 51.8579 42.6421 48.5 38.5 48.5ZM38.5 50.5C41.5376 50.5 44 52.9624 44 56C44 59.0376 41.5376 61.5 38.5 61.5C35.4624 61.5 33 59.0376 33 56C33 52.9624 35.4624 50.5 38.5 50.5Z" fill="white"/>
</g>
<path d="M143.626 65.1226C142.586 64.6951 142.06 63.49 142.584 62.4944C142.87 61.9496 143.196 61.4274 143.587 60.9532C144.175 60.2512 144.803 59.7512 145.473 59.4529C146.145 59.1471 146.902 58.9246 147.744 58.7855C148.322 58.6878 148.862 58.5436 149.363 58.3529C149.876 58.1577 150.324 57.8922 150.709 57.5565C151.097 57.2132 151.399 56.7775 151.616 56.2494C151.861 55.6534 151.934 55.0793 151.834 54.527C151.735 53.9748 151.497 53.4803 151.121 53.0436C150.752 52.6101 150.278 52.274 149.697 52.0353C149.161 51.8153 148.604 51.7231 148.025 51.7586C147.456 51.7897 146.918 51.9741 146.409 52.3117C145.475 52.9356 144.354 53.5177 143.315 53.0911L143.233 53.0574C142.086 52.5859 141.516 51.2224 142.302 50.2623C142.706 49.7687 143.158 49.3566 143.658 49.026C144.719 48.333 145.892 47.9682 147.176 47.9316C148.469 47.8981 149.775 48.1525 151.095 48.6948C152.536 49.2868 153.7 50.0601 154.586 51.015C155.48 51.9729 156.04 53.0452 156.267 54.2317C156.505 55.4138 156.362 56.6424 155.838 57.9174C155.485 58.7775 155.029 59.4897 154.471 60.0541C153.92 60.6215 153.284 61.0655 152.561 61.386C151.839 61.7065 151.046 61.9316 150.181 62.0615C149.415 62.1877 148.752 62.3739 148.192 62.6202C147.64 62.8695 147.157 63.2309 146.742 63.7041C146.635 63.8281 146.536 63.9569 146.442 64.0898C145.795 65.0099 144.667 65.55 143.626 65.1226ZM140.811 72.2192C140.132 71.9403 139.646 71.4587 139.354 70.7744C139.062 70.0901 139.059 69.4009 139.344 68.7068C139.623 68.0278 140.106 67.5476 140.795 67.2661C141.484 66.9847 142.168 66.9835 142.847 67.2624C143.518 67.5382 144 68.0183 144.292 68.7026C144.592 69.3899 144.602 70.0731 144.323 70.7522C144.134 71.2124 143.845 71.5831 143.456 71.8642C143.075 72.1485 142.649 72.3263 142.179 72.3977C141.719 72.4646 141.263 72.4051 140.811 72.2192Z" fill="#E4EAEE"/>
<path d="M19.5268 123.777C18.5329 124.359 17.2254 124.039 16.7401 122.995C16.4746 122.423 16.2518 121.834 16.1082 121.222C15.9019 120.307 15.8851 119.485 16.0577 118.755C16.2261 118.018 16.515 117.264 16.9244 116.492C17.2037 115.961 17.4214 115.432 17.5775 114.905C17.7366 114.367 17.7989 113.837 17.7645 113.316C17.7259 112.787 17.559 112.27 17.2637 111.766C16.9306 111.196 16.5084 110.781 15.9971 110.519C15.4859 110.257 14.9358 110.144 14.3469 110.179C13.7651 110.21 13.1968 110.387 12.642 110.712C12.1304 111.012 11.7093 111.408 11.3789 111.901C11.0514 112.383 10.8671 112.936 10.826 113.56C10.7545 114.707 10.5321 115.981 9.54027 116.562L9.46174 116.608C8.36556 117.249 6.90211 116.867 6.60842 115.631C6.45745 114.996 6.40265 114.372 6.44401 113.759C6.5383 112.466 6.96932 111.285 7.73706 110.216C8.51201 109.144 9.53 108.238 10.791 107.5C12.1674 106.695 13.5193 106.227 14.8467 106.099C16.1814 105.966 17.402 106.175 18.5087 106.727C19.6183 107.268 20.5295 108.147 21.2422 109.365C21.723 110.186 22.0199 110.999 22.1329 111.804C22.253 112.604 22.2193 113.398 22.0317 114.185C21.8442 114.972 21.5349 115.757 21.1039 116.542C20.7311 117.244 20.4712 117.899 20.3242 118.507C20.1845 119.112 20.1784 119.729 20.3062 120.361C20.3407 120.525 20.3838 120.686 20.4339 120.844C20.7811 121.942 20.5207 123.196 19.5268 123.777ZM23.5554 130.475C22.9069 130.854 22.2135 130.951 21.4752 130.763C20.7368 130.576 20.1737 130.151 19.7857 129.488C19.4061 128.84 19.3156 128.148 19.514 127.413C19.7125 126.677 20.136 126.12 20.7845 125.74C21.4259 125.365 22.1157 125.271 22.854 125.458C23.5995 125.641 24.1621 126.056 24.5416 126.705C24.7989 127.144 24.9213 127.61 24.9088 128.101C24.9035 128.588 24.7839 129.045 24.5501 129.472C24.3194 129.887 23.9878 130.222 23.5554 130.475Z" fill="#E4EAEE"/>
<defs>
<filter id="filter0_d_4_200673" x="3.5" y="29" width="66" height="66" filterUnits="userSpaceOnUse" color-interpolation-filters="sRGB">
<feFlood flood-opacity="0" result="BackgroundImageFix"/>
<feColorMatrix in="SourceAlpha" type="matrix" values="0 0 0 0 0 0 0 0 0 0 0 0 0 0 0 0 0 0 127 0" result="hardAlpha"/>
<feOffset dy="4"/>
<feGaussianBlur stdDeviation="4.5"/>
<feColorMatrix type="matrix" values="0 0 0 0 0.0705882 0 0 0 0 0.862745 0 0 0 0 0.952941 0 0 0 0.2 0"/>
<feBlend mode="normal" in2="BackgroundImageFix" result="effect1_dropShadow_4_200673"/>
<feBlend mode="normal" in="SourceGraphic" in2="effect1_dropShadow_4_200673" result="shape"/>
</filter>
<linearGradient id="paint0_linear_4_200673" x1="60.5" y1="34" x2="12.5" y2="82" gradientUnits="userSpaceOnUse">
<stop stop-color="#00E5FF"/>
<stop offset="1" stop-color="#2FCCDE"/>
</linearGradient>
</defs>
</svg>
