<svg width="161" height="160" viewBox="0 0 161 160" fill="none" xmlns="http://www.w3.org/2000/svg">
<rect x="36.5" y="58" width="90" height="8" rx="4" fill="#E4EAEE"/>
<rect x="36.5" y="73" width="90" height="8" rx="4" fill="#E4EAEE"/>
<rect x="36.5" y="88" width="90" height="8" rx="4" fill="#E4EAEE"/>
<rect x="36.5" y="103" width="90" height="8" rx="4" fill="#E4EAEE"/>
<rect x="36.5" y="118" width="90" height="8" rx="4" fill="#E4EAEE"/>
<g filter="url(#filter0_d_1206_73804)">
<circle cx="36.5" cy="58" r="24" fill="url(#paint0_linear_1206_73804)"/>
<path d="M38.5 48.5C34.3579 48.5 31 51.8579 31 56C31 57.7101 31.5724 59.2866 32.536 60.5483L27.7929 65.2929C27.4024 65.6834 27.4024 66.3166 27.7929 66.7071C28.1534 67.0676 28.7206 67.0953 29.1129 66.7903L29.2071 66.7071L33.9517 61.964C35.2134 62.9276 36.7899 63.5 38.5 63.5C42.6421 63.5 46 60.1421 46 56C46 51.8579 42.6421 48.5 38.5 48.5ZM38.5 50.5C41.5376 50.5 44 52.9624 44 56C44 59.0376 41.5376 61.5 38.5 61.5C35.4624 61.5 33 59.0376 33 56C33 52.9624 35.4624 50.5 38.5 50.5Z" fill="white"/>
</g>
<path d="M143.626 65.1223C142.586 64.6949 142.06 63.4897 142.584 62.4941C142.87 61.9493 143.196 61.4272 143.587 60.9529C144.175 60.251 144.803 59.7509 145.473 59.4527C146.145 59.1469 146.902 58.9244 147.744 58.7853C148.322 58.6876 148.862 58.5434 149.363 58.3526C149.876 58.1574 150.324 57.892 150.709 57.5563C151.097 57.213 151.399 56.7773 151.616 56.2492C151.861 55.6531 151.934 55.079 151.834 54.5268C151.735 53.9745 151.497 53.4801 151.121 53.0434C150.752 52.6098 150.278 52.2737 149.697 52.0351C149.161 51.8151 148.604 51.7228 148.025 51.7584C147.456 51.7895 146.918 51.9738 146.409 52.3114C145.475 52.9353 144.354 53.5175 143.315 53.0909L143.233 53.0571C142.086 52.5857 141.516 51.2222 142.302 50.262C142.706 49.7685 143.158 49.3564 143.658 49.0257C144.719 48.3327 145.892 47.9679 147.176 47.9313C148.469 47.8978 149.775 48.1523 151.095 48.6946C152.536 49.2865 153.7 50.0599 154.586 51.0147C155.48 51.9727 156.04 53.0449 156.267 54.2315C156.505 55.4136 156.362 56.6422 155.838 57.9172C155.485 58.7773 155.029 59.4895 154.471 60.0538C153.92 60.6213 153.284 61.0653 152.561 61.3857C151.839 61.7062 151.046 61.9314 150.181 62.0612C149.415 62.1874 148.752 62.3737 148.192 62.6199C147.64 62.8693 147.157 63.2306 146.742 63.7039C146.635 63.8278 146.536 63.9567 146.442 64.0895C145.795 65.0097 144.667 65.5498 143.626 65.1223ZM140.811 72.2189C140.132 71.94 139.646 71.4584 139.354 70.7741C139.062 70.0899 139.059 69.4007 139.344 68.7065C139.623 68.0275 140.106 67.5473 140.795 67.2659C141.484 66.9845 142.168 66.9832 142.847 67.2621C143.518 67.538 144 68.018 144.292 68.7023C144.592 69.3897 144.602 70.0729 144.323 70.7519C144.134 71.2121 143.845 71.5828 143.456 71.864C143.075 72.1482 142.649 72.3261 142.179 72.3974C141.719 72.4644 141.263 72.4049 140.811 72.2189Z" fill="#E4EAEE"/>
<path d="M19.5268 123.777C18.5329 124.359 17.2254 124.039 16.7401 122.994C16.4746 122.423 16.2518 121.833 16.1082 121.221C15.9019 120.307 15.8851 119.485 16.0577 118.755C16.2261 118.018 16.515 117.263 16.9244 116.492C17.2037 115.96 17.4214 115.432 17.5775 114.905C17.7366 114.367 17.7989 113.837 17.7645 113.315C17.7259 112.786 17.559 112.27 17.2637 111.765C16.9306 111.196 16.5084 110.781 15.9971 110.519C15.4859 110.257 14.9358 110.143 14.3469 110.178C13.7651 110.209 13.1968 110.387 12.642 110.712C12.1304 111.011 11.7093 111.408 11.3789 111.901C11.0514 112.383 10.8671 112.936 10.826 113.56C10.7545 114.707 10.5321 115.981 9.54027 116.561L9.46174 116.607C8.36556 117.249 6.90211 116.866 6.60842 115.63C6.45745 114.995 6.40265 114.371 6.44401 113.759C6.5383 112.465 6.96932 111.284 7.73706 110.216C8.51201 109.143 9.53 108.238 10.791 107.5C12.1674 106.694 13.5193 106.227 14.8467 106.098C16.1814 105.965 17.402 106.175 18.5087 106.727C19.6183 107.267 20.5295 108.146 21.2422 109.364C21.723 110.186 22.0199 110.999 22.1329 111.803C22.253 112.604 22.2193 113.397 22.0317 114.184C21.8442 114.971 21.5349 115.757 21.1039 116.541C20.7311 117.243 20.4712 117.898 20.3242 118.507C20.1845 119.111 20.1784 119.729 20.3062 120.36C20.3407 120.524 20.3838 120.685 20.4339 120.844C20.7811 121.942 20.5207 123.195 19.5268 123.777ZM23.5554 130.474C22.9069 130.854 22.2135 130.95 21.4752 130.763C20.7368 130.576 20.1737 130.151 19.7857 129.488C19.4061 128.84 19.3156 128.148 19.514 127.412C19.7125 126.677 20.136 126.12 20.7845 125.74C21.4259 125.365 22.1157 125.27 22.854 125.458C23.5995 125.64 24.1621 126.056 24.5416 126.705C24.7989 127.144 24.9213 127.609 24.9088 128.1C24.9035 128.587 24.7839 129.044 24.5501 129.471C24.3194 129.887 23.9878 130.221 23.5554 130.474Z" fill="#E4EAEE"/>
<defs>
<filter id="filter0_d_1206_73804" x="3.5" y="29" width="66" height="66" filterUnits="userSpaceOnUse" color-interpolation-filters="sRGB">
<feFlood flood-opacity="0" result="BackgroundImageFix"/>
<feColorMatrix in="SourceAlpha" type="matrix" values="0 0 0 0 0 0 0 0 0 0 0 0 0 0 0 0 0 0 127 0" result="hardAlpha"/>
<feOffset dy="4"/>
<feGaussianBlur stdDeviation="4.5"/>
<feColorMatrix type="matrix" values="0 0 0 0 0.0705882 0 0 0 0 0.862745 0 0 0 0 0.952941 0 0 0 0.2 0"/>
<feBlend mode="normal" in2="BackgroundImageFix" result="effect1_dropShadow_1206_73804"/>
<feBlend mode="normal" in="SourceGraphic" in2="effect1_dropShadow_1206_73804" result="shape"/>
</filter>
<linearGradient id="paint0_linear_1206_73804" x1="60.5" y1="34" x2="12.5" y2="82" gradientUnits="userSpaceOnUse">
<stop stop-color="#00E5FF"/>
<stop offset="1" stop-color="#2FCCDE"/>
</linearGradient>
</defs>
</svg>
