<svg width="8" height="8" viewBox="0 0 8 8" fill="none" xmlns="http://www.w3.org/2000/svg">
<g id="Pause" opacity="0.5">
<path id="Shape" d="M1.91536 1C1.5932 1 1.33203 1.26117 1.33203 1.58333V6.41667C1.33203 6.73883 1.5932 7 1.91536 7H3.08203C3.4042 7 3.66536 6.73883 3.66536 6.41667V1.58333C3.66536 1.26117 3.4042 1 3.08203 1H1.91536ZM4.91536 1C4.5932 1 4.33203 1.26117 4.33203 1.58333V6.41667C4.33203 6.73883 4.5932 7 4.91536 7H6.08203C6.4042 7 6.66536 6.73883 6.66536 6.41667V1.58333C6.66536 1.26117 6.4042 1 6.08203 1H4.91536Z" fill="white"/>
</g>
</svg>
