<svg width="27" height="27" viewBox="0 0 27 27" fill="none" xmlns="http://www.w3.org/2000/svg">
<path d="M14.4099 7.90802C15.7116 6.60627 17.8222 6.60627 19.1239 7.90802C20.4257 9.20976 20.4257 11.3203 19.1239 12.6221C17.8222 13.9238 15.7116 13.9238 14.4099 12.6221C13.1081 11.3203 13.1081 9.20977 14.4099 7.90802ZM17.7097 9.32223C17.189 8.80153 16.3448 8.80153 15.8241 9.32223C15.3034 9.84293 15.3034 10.6871 15.8241 11.2078C16.3448 11.7285 17.189 11.7285 17.7097 11.2078C18.2304 10.6872 18.2304 9.84293 17.7097 9.32223ZM25.6784 3.7632C25.3201 2.61013 24.417 1.70742 23.2638 1.34952L22.381 1.07556C19.1897 0.0851266 15.7123 0.944357 13.3495 3.30717L12.0216 4.63501C10.1953 3.26349 7.59121 3.40861 5.92945 5.07036L4.27275 6.72707C3.88222 7.11759 3.88222 7.75076 4.27275 8.14128L6.39404 10.2626L6.1543 10.5023C5.24307 11.4136 5.24307 12.8909 6.1543 13.8022L6.81476 14.4626L4.95401 15.5239C4.68316 15.6784 4.49986 15.9504 4.45835 16.2594C4.41683 16.5684 4.52185 16.8792 4.74234 17.0996L9.92782 22.2851C10.1481 22.5055 10.4586 22.6105 10.7674 22.5692C11.0763 22.5279 11.3482 22.345 11.5029 22.0746L12.5668 20.2147L13.2297 20.8776C14.141 21.7888 15.6183 21.7888 16.5296 20.8776L16.7653 20.6419L18.8847 22.7613C19.2753 23.1519 19.9084 23.1519 20.299 22.7613L21.9557 21.1046C23.6168 19.4435 23.7624 16.8408 22.3926 15.0146L23.7232 13.684C26.0869 11.3202 26.9458 7.84116 25.9537 4.64895L25.6784 3.7632ZM22.671 3.25965C23.1952 3.42233 23.6056 3.83265 23.7685 4.35677L24.0438 5.24252C24.8155 7.72535 24.1474 10.4313 22.309 12.2698L15.1153 19.4634C14.9852 19.5935 14.7741 19.5935 14.6439 19.4634L7.56851 12.3879C7.43834 12.2578 7.43834 12.0467 7.56851 11.9165L14.7637 4.72138C16.6014 2.88364 19.3061 2.21535 21.7882 2.98569L22.671 3.25965ZM20.9525 16.4547C21.5558 17.4757 21.4188 18.8131 20.5414 19.6904L19.5918 20.64L18.1795 19.2277L20.9525 16.4547ZM7.34367 6.48458C8.22168 5.60656 9.56039 5.47001 10.5817 6.07493L7.80826 8.84837L6.39407 7.43418L7.34367 6.48458ZM11.1011 18.749L10.4167 19.9456L7.08311 16.612L8.28095 15.9288L11.1011 18.749ZM5.92015 22.5259C6.31067 22.1354 6.31067 21.5022 5.92015 21.1117C5.52962 20.7212 4.89646 20.7212 4.50593 21.1117L1.2061 24.4115C0.815579 24.8021 0.815579 25.4352 1.2061 25.8258C1.59663 26.2163 2.22979 26.2163 2.62032 25.8258L5.92015 22.5259ZM3.32737 18.519C3.7179 18.9095 3.7179 19.5427 3.32737 19.9332L1.91316 21.3474C1.52264 21.7379 0.889472 21.7379 0.498948 21.3474C0.108423 20.9569 0.108424 20.3237 0.498948 19.9332L1.91316 18.519C2.30369 18.1285 2.93685 18.1285 3.32737 18.519ZM8.51017 25.1214C8.9007 24.7309 8.9007 24.0978 8.51019 23.7072C8.11967 23.3167 7.4865 23.3167 7.09597 23.7072L5.6845 25.1186C5.29397 25.5092 5.29396 26.1423 5.68448 26.5329C6.075 26.9234 6.70816 26.9234 7.09869 26.5329L8.51017 25.1214Z" fill="#E387CB"/>
</svg>
