<svg width="22" height="28" viewBox="0 0 22 28" fill="none" xmlns="http://www.w3.org/2000/svg">
<path fill-rule="evenodd" clip-rule="evenodd" d="M12.6952 0.717336C13.1204 0.854715 13.4083 1.24846 13.4083 1.6927V10.2397H20.6341C21.0223 10.2397 21.3778 10.4561 21.5539 10.7999C21.7301 11.1437 21.6973 11.5566 21.4689 11.8685L10.4582 26.9112C10.1952 27.2705 9.7293 27.4207 9.30411 27.2833C8.87892 27.1459 8.59107 26.7522 8.59107 26.308V17.761H1.36527C0.977012 17.761 0.621592 17.5445 0.44541 17.2008C0.269227 16.857 0.302084 16.4441 0.530446 16.1321L11.5412 1.08945C11.8042 0.730173 12.27 0.579957 12.6952 0.717336ZM3.39239 15.7097H9.62333C10.1934 15.7097 10.6556 16.1689 10.6556 16.7354V23.1539L18.607 12.2909H12.376C11.8059 12.2909 11.3438 11.8317 11.3438 11.2653V4.84672L3.39239 15.7097Z" fill="#6B8BF0"/>
</svg>
