<svg width="29" height="29" viewBox="0 0 29 29" fill="none" xmlns="http://www.w3.org/2000/svg">
<path d="M12.1213 1.3497C13.326 0.861297 14.6736 0.861297 15.8784 1.3497L25.8765 5.40299C26.757 5.75997 27.3332 6.61523 27.3332 7.56539V15.0798C26.7408 14.5113 26.0679 14.0262 25.3332 13.6433V8.36324L15.0003 12.3529V15.417C14.0774 16.4045 13.3827 17.608 13.0003 18.9434V12.3511L2.6665 8.3324V20.4357C2.6665 20.5714 2.74881 20.6936 2.8746 20.7446L12.8727 24.7979C12.915 24.815 12.9575 24.8311 13.0003 24.8462V24.8446L13.2518 24.9469C13.33 24.9787 13.4098 25.0054 13.4905 25.0269C13.8216 25.7287 14.2442 26.3789 14.7427 26.9622C13.8638 27.0942 12.9581 26.9906 12.1213 26.6513L2.12319 22.5981C1.24265 22.2411 0.666504 21.3858 0.666504 20.4357V7.56539C0.666504 6.61523 1.24265 5.75997 2.12319 5.40299L12.1213 1.3497ZM15.127 3.20318C14.4041 2.91014 13.5956 2.91014 12.8727 3.20318L10.3215 4.23744L20.3577 8.14041L23.9163 6.76642L15.127 3.20318ZM4.11981 6.75166L14.0016 10.5946L17.5888 9.20952L7.61988 5.33271L4.11981 6.75166ZM28.6665 21.3337C28.6665 17.2836 25.3833 14.0003 21.3332 14.0003C17.2831 14.0003 13.9998 17.2836 13.9998 21.3337C13.9998 25.3837 17.2831 28.667 21.3332 28.667C25.3833 28.667 28.6665 25.3837 28.6665 21.3337ZM21.3897 16.6694L21.504 16.6891L21.5879 16.7174L21.6778 16.7628L21.7412 16.8057L25.1379 20.1956L25.215 20.2879C25.395 20.5477 25.3693 20.907 25.1379 21.1384C24.9065 21.3698 24.5473 21.3955 24.2874 21.2155L24.1951 21.1384L21.9985 18.9417L21.9998 26.0003L21.9891 26.1202C21.9397 26.3923 21.7251 26.6069 21.453 26.6562L21.3332 26.667L21.2133 26.6562C20.9412 26.6069 20.7266 26.3923 20.6772 26.1202L20.6665 26.0003L20.6652 18.9443L18.4712 21.1384L18.3789 21.2155C18.1516 21.373 17.8481 21.373 17.6208 21.2155L17.5284 21.1384L17.4513 21.0461C17.2938 20.8187 17.2938 20.5153 17.4513 20.2879L17.5284 20.1956L20.8783 16.8462L20.9536 16.7854L21.0513 16.7293L21.1623 16.6891L21.2425 16.6737L21.3172 16.667L21.3897 16.6694Z" fill="#EECD5F"/>
</svg>
