<svg width="20" height="20" viewBox="0 0 20 20" fill="none" xmlns="http://www.w3.org/2000/svg">
<path d="M9.0462 6.79565C8.35192 6.41112 7.49984 6.91324 7.49984 7.70689V12.2928C7.49984 13.0865 8.35192 13.5886 9.0462 13.2041L13.8443 10.5466C14.0431 10.4365 14.1665 10.2271 14.1665 9.99986C14.1665 9.77258 14.0431 9.56323 13.8443 9.45311L9.0462 6.79565ZM9.99984 1.6665C5.39746 1.6665 1.6665 5.39746 1.6665 9.99984C1.6665 14.6022 5.39746 18.3332 9.99984 18.3332C14.6022 18.3332 18.3332 14.6022 18.3332 9.99984C18.3332 5.39746 14.6022 1.6665 9.99984 1.6665ZM2.9165 9.99984C2.9165 6.08782 6.08782 2.9165 9.99984 2.9165C13.9119 2.9165 17.0832 6.08782 17.0832 9.99984C17.0832 13.9119 13.9119 17.0832 9.99984 17.0832C6.08782 17.0832 2.9165 13.9119 2.9165 9.99984Z" fill="#32C4D5"/>
</svg>
