<svg width="20" height="20" viewBox="0 0 20 20" fill="none" xmlns="http://www.w3.org/2000/svg">
<path d="M16.2636 4.40282C16.2505 4.31068 16.1671 4.25968 16.0981 4.25407C16.0293 4.24851 14.5725 4.14407 14.5725 4.14407C14.5725 4.14407 13.5607 3.17249 13.4497 3.06495C13.3386 2.95747 13.1216 2.99016 13.0373 3.01414C13.0249 3.01768 12.8163 3.07997 12.4712 3.18328C12.1332 2.24256 11.5367 1.37808 10.4874 1.37808C10.4584 1.37808 10.4286 1.37922 10.3988 1.38086C10.1003 0.999105 9.73067 0.833252 9.41136 0.833252C6.96696 0.833252 5.79915 3.78901 5.43299 5.29103C4.48316 5.57572 3.8084 5.77811 3.72221 5.8043C3.19203 5.96517 3.17526 5.98133 3.10564 6.46456C3.05325 6.83041 1.66602 17.2075 1.66602 17.2075L12.4757 19.1666L18.3327 17.941C18.3327 17.941 16.2766 4.49496 16.2636 4.40282ZM11.8737 3.36201L10.959 3.63584C10.9594 3.57349 10.9597 3.51215 10.9597 3.44506C10.9597 2.86041 10.8758 2.38967 10.7412 2.0165C11.2819 2.08214 11.642 2.6772 11.8737 3.36201ZM10.0705 2.13243C10.2208 2.49677 10.3185 3.01964 10.3185 3.72521C10.3185 3.7613 10.3182 3.79431 10.3179 3.8277C9.72304 4.00592 9.07666 4.19941 8.42884 4.39354C8.79258 3.03567 9.47439 2.37983 10.0705 2.13243ZM9.34423 1.46744C9.44973 1.46744 9.55601 1.50209 9.65773 1.56981C8.87433 1.92638 8.03463 2.82444 7.68003 4.61783L6.18683 5.06516C6.60218 3.69725 7.58849 1.46744 9.34423 1.46744Z" fill="#525D67"/>
<path d="M16.1076 4.56546C16.039 4.56002 14.588 4.45776 14.588 4.45776C14.588 4.45776 13.5803 3.50646 13.4697 3.40116C13.4283 3.36199 13.3724 3.3419 13.3141 3.33325L12.5 19.1666L18.3333 17.9667C18.3333 17.9667 16.2853 4.80132 16.2725 4.71111C16.2594 4.62089 16.1763 4.57096 16.1076 4.56546Z" fill="#34404B"/>
<path d="M10.8327 7.76984L10.0642 9.81799C10.0642 9.81799 9.39084 9.49602 8.56547 9.49602C7.35546 9.49602 7.29457 10.1764 7.29457 10.3478C7.29457 11.2832 10.0162 11.6416 10.0162 13.8327C10.0162 15.5566 8.79584 16.6667 7.15036 16.6667C5.17579 16.6667 4.16602 15.5656 4.16602 15.5656L4.69472 14.0006C4.69472 14.0006 5.73269 14.799 6.60854 14.799C7.18084 14.799 7.41364 14.3953 7.41364 14.1003C7.41364 12.8801 5.18079 12.8257 5.18079 10.8206C5.18079 9.13306 6.53272 7.5 9.26171 7.5C10.3132 7.5 10.8327 7.76984 10.8327 7.76984Z" fill="white"/>
</svg>
