  <svg
                    width="52"
                    height="53"
                    viewBox="0 0 52 45"
                    fill="none"
                    xmlns="http://www.w3.org/2000/svg"
                  >
                    <g filter="url(#filter0_d_2400_223622)">
                      <path
                        d="M32.8919 15.895C32.8774 15.7945 32.7853 15.7388 32.7092 15.7327C32.6333 15.7266 31.0258 15.6127 31.0258 15.6127C31.0258 15.6127 29.9093 14.5525 29.7868 14.4352C29.6642 14.3179 29.4247 14.3535 29.3318 14.3797C29.3181 14.3836 29.0879 14.4515 28.707 14.5643C28.3341 13.5378 27.6759 12.5945 26.518 12.5945C26.4861 12.5945 26.4532 12.5957 26.4203 12.5975C26.091 12.181 25.683 12 25.3307 12C22.6334 12 21.3448 15.2252 20.9407 16.8642C19.8926 17.1748 19.1481 17.3957 19.053 17.4242C18.4679 17.5998 18.4494 17.6174 18.3726 18.1447C18.3148 18.5439 16.7841 29.8671 16.7841 29.8671L28.712 32.0047L35.175 30.6674C35.175 30.6674 32.9061 15.9955 32.8919 15.895ZM28.0478 14.7593L27.0385 15.0581C27.0388 14.9901 27.0392 14.9231 27.0392 14.8499C27.0392 14.212 26.9466 13.6983 26.7981 13.2911C27.3947 13.3627 27.792 14.0121 28.0478 14.7593ZM26.058 13.4176C26.2239 13.8152 26.3317 14.3857 26.3317 15.1556C26.3317 15.195 26.3313 15.231 26.331 15.2674C25.6746 15.4619 24.9614 15.673 24.2465 15.8849C24.6479 14.4032 25.4002 13.6876 26.058 13.4176ZM25.2566 12.692C25.373 12.692 25.4903 12.7298 25.6025 12.8037C24.7381 13.1928 23.8115 14.1727 23.4202 16.1296L21.7726 16.6177C22.2309 15.1251 23.3192 12.692 25.2566 12.692Z"
                        fill="#95BF46"
                      />
                      <path
                        d="M32.7093 15.7326C32.6333 15.7265 31.0258 15.6126 31.0258 15.6126C31.0258 15.6126 29.9094 14.5524 29.7869 14.4351C29.741 14.3914 29.6792 14.369 29.6145 14.3594L28.7126 32.0045L35.175 30.6673C35.175 30.6673 32.9062 15.9954 32.8919 15.8949C32.8775 15.7944 32.7854 15.7387 32.7093 15.7326Z"
                        fill="#5E8E3E"
                      />
                      <path
                        d="M26.5181 19.1485L25.7212 21.4159C25.7212 21.4159 25.023 21.0594 24.1671 21.0594C22.9124 21.0594 22.8493 21.8126 22.8493 22.0024C22.8493 23.0379 25.6714 23.4347 25.6714 25.8604C25.6714 27.7688 24.406 28.9977 22.6997 28.9977C20.6522 28.9977 19.6051 27.7788 19.6051 27.7788L20.1533 26.0462C20.1533 26.0462 21.2297 26.93 22.1379 26.93C22.7313 26.93 22.9727 26.4831 22.9727 26.1566C22.9727 24.8057 20.6574 24.7455 20.6574 22.5258C20.6574 20.6576 22.0593 18.8497 24.8891 18.8497C25.9794 18.8497 26.5181 19.1485 26.5181 19.1485Z"
                        fill="white"
                      />
                    </g>
                    <defs>
                      <filter
                        id="filter0_d_2400_223622"
                        x="-2"
                        y="-2"
                        width="56"
                        height="56"
                        filterUnits="userSpaceOnUse"
                        color-interpolation-filters="sRGB"
                      >
                        <feFlood
                          flood-opacity="0"
                          result="BackgroundImageFix"
                        />
                        <feColorMatrix
                          in="SourceAlpha"
                          type="matrix"
                          values="0 0 0 0 0 0 0 0 0 0 0 0 0 0 0 0 0 0 127 0"
                          result="hardAlpha"
                        />
                        <feOffset dy="4" />
                        <feGaussianBlur stdDeviation="8" />
                        <feColorMatrix
                          type="matrix"
                          values="0 0 0 0 0.584314 0 0 0 0 0.74902 0 0 0 0 0.27451 0 0 0 0.25 0"
                        />
                        <feBlend
                          mode="normal"
                          in2="BackgroundImageFix"
                          result="effect1_dropShadow_2400_223622"
                        />
                        <feBlend
                          mode="normal"
                          in="SourceGraphic"
                          in2="effect1_dropShadow_2400_223622"
                          result="shape"
                        />
                      </filter>
                    </defs>
                  </svg>