<svg width="24" height="24" viewBox="0 0 24 24" fill="none" xmlns="http://www.w3.org/2000/svg">
<path d="M18.892 5.89499C18.8775 5.79445 18.7854 5.73881 18.7093 5.73268C18.6334 5.72662 17.0259 5.61265 17.0259 5.61265C17.0259 5.61265 15.9095 4.5525 15.7869 4.43515C15.6643 4.31788 15.4249 4.35355 15.3319 4.37972C15.3182 4.38357 15.088 4.45154 14.7071 4.56427C14.3342 3.53779 13.676 2.5945 12.5181 2.5945C12.4862 2.5945 12.4533 2.59574 12.4204 2.59753C12.0911 2.18097 11.6832 2 11.3308 2C8.63353 2 7.3449 5.22522 6.94086 6.86418C5.89277 7.17482 5.1482 7.39567 5.05309 7.42424C4.46806 7.59978 4.44956 7.61741 4.37274 8.1447C4.31493 8.5439 2.78418 19.8671 2.78418 19.8671L14.7121 22.0047L21.1751 20.6674C21.1751 20.6674 18.9062 5.99553 18.892 5.89499ZM14.0479 4.75929L13.0386 5.05809C13.039 4.99006 13.0393 4.92312 13.0393 4.84992C13.0393 4.21197 12.9467 3.69831 12.7982 3.29112C13.3948 3.36274 13.7922 4.01206 14.0479 4.75929ZM12.0581 3.41763C12.224 3.81517 12.3318 4.38571 12.3318 5.1556C12.3318 5.19499 12.3315 5.23101 12.3311 5.26744C11.6747 5.46191 10.9615 5.67304 10.2466 5.88487C10.648 4.4032 11.4004 3.68757 12.0581 3.41763ZM11.2567 2.69201C11.3731 2.69201 11.4904 2.72982 11.6027 2.80371C10.7382 3.19279 9.81165 4.17271 9.42036 6.12961L7.77269 6.61771C8.23101 5.1251 9.31935 2.69201 11.2567 2.69201Z" fill="#95BF46"/>
<path d="M18.7095 5.73261C18.6336 5.72655 17.0261 5.61258 17.0261 5.61258C17.0261 5.61258 15.9097 4.55243 15.7871 4.43509C15.7413 4.39143 15.6794 4.36905 15.6148 4.35941L14.7129 22.0045L21.1753 20.6673C21.1753 20.6673 18.9064 5.99547 18.8922 5.89493C18.8777 5.79438 18.7856 5.73874 18.7095 5.73261Z" fill="#5E8E3E"/>
<path d="M12.5185 9.14843L11.7216 11.4158C11.7216 11.4158 11.0234 11.0594 10.1675 11.0594C8.91276 11.0594 8.84962 11.8126 8.84962 12.0023C8.84962 13.0379 11.6718 13.4347 11.6718 15.8604C11.6718 17.7688 10.4064 18.9976 8.70009 18.9976C6.65256 18.9976 5.60547 17.7788 5.60547 17.7788L6.15371 16.0462C6.15371 16.0462 7.23003 16.93 8.13824 16.93C8.73169 16.93 8.97309 16.4831 8.97309 16.1565C8.97309 14.8057 6.65774 14.7455 6.65774 12.5258C6.65774 10.6576 8.05962 8.8497 10.8894 8.8497C11.9798 8.8497 12.5185 9.14843 12.5185 9.14843Z" fill="white"/>
</svg>
