<svg width="82" height="34" viewBox="0 0 82 34" fill="none" xmlns="http://www.w3.org/2000/svg">
<g clip-path="url(#clip0_142_3993)">
<path d="M19.5882 20.54C19.5882 19.1766 19.0074 18.1637 18.1554 17.6183C17.7682 17.3457 17.3035 17.1119 16.7227 16.9171C16.258 16.7224 15.4061 16.4886 14.167 16.138L11.8436 15.4758C11.5338 15.3979 11.224 15.2031 10.9917 14.9304C10.4883 14.463 10.6045 13.8397 10.6819 13.528V13.567C10.9142 12.5152 11.8436 11.7751 12.8891 11.7751H14.438C15.7159 11.7751 16.4516 12.4373 16.4904 14.1513C16.4904 14.463 16.7227 14.7746 17.1099 14.7746H18.4265C19.0461 14.7746 19.0461 14.3851 19.0848 13.9955C19.1622 12.4373 18.5814 11.0349 17.652 10.2948C16.7227 9.55461 15.5997 9.1261 14.3606 9.1261H12.8117C10.527 9.1261 8.43596 10.7622 8.01001 13.0216L8.04873 12.9827C7.93256 13.528 7.97128 13.9565 7.97128 14.3851V14.6577C7.97128 17.3846 10.7593 18.1637 13.3538 18.748C14.8253 19.0986 16.0257 19.2934 16.6065 19.7998C16.955 20.1115 16.9163 20.6958 16.9163 20.9685C16.9163 21.1243 16.8776 21.2412 16.8776 21.358C16.684 22.4488 15.6384 23.111 14.438 23.111H12.8891C11.8436 23.111 10.9142 22.3709 10.7206 21.397C10.6819 21.1633 10.6432 20.9685 10.6432 20.8516C10.6432 20.54 10.6819 20.4621 10.5657 20.1894C10.4883 19.8777 10.2947 19.7219 9.98488 19.7219H8.62958C8.01001 19.7219 7.97128 20.1115 7.97128 20.501C7.97128 20.9685 7.93256 21.3191 8.12618 22.1372C8.20362 22.5657 8.39724 22.9942 8.70702 23.4616C9.55893 24.864 11.1466 25.76 12.9278 25.76H14.4768C15.9482 25.76 17.2261 25.4094 18.1167 24.5913C18.9686 23.7733 19.5882 22.0592 19.5882 20.54Z" fill="#34404B"/>
</g>
<g clip-path="url(#clip1_142_3993)">
<path d="M40.9579 9.2926H33.7555C33.3682 9.2926 33.0972 9.60424 33.0972 9.95484L33.1359 24.9137C33.1359 25.2253 33.3682 25.5759 33.7555 25.5759H35.1882C35.8078 25.5759 35.8465 25.1863 35.8465 24.7968V19.4989C37.318 18.7587 38.5184 18.0575 39.9124 17.3174L42.8167 25.0695C42.9328 25.3422 43.049 25.5759 43.4749 25.5759H45.0239C45.566 25.5759 45.8758 25.3032 45.6434 24.7578C44.9464 22.9659 44.2881 21.135 43.6298 19.3431C43.2426 18.2134 42.8167 17.1616 42.3907 15.9929C43.5524 15.2138 44.3656 14.3178 44.3656 12.7596C44.3656 10.8898 42.7779 9.2926 40.9579 9.2926ZM35.8465 12.0195H40.8031C41.2677 12.0195 41.5775 12.3701 41.5775 12.7986C41.5775 12.9544 41.5388 13.1102 41.4613 13.2271V13.1881C41.0354 13.8504 37.4341 15.6423 35.8465 16.4214V12.0195Z" fill="#34404B"/>
</g>
<g clip-path="url(#clip2_142_3993)">
<path d="M53.794 9.01086C50.154 9.01086 47.1724 12.0104 47.1724 15.6333V18.9445C47.1724 22.9958 50.1153 25.6448 53.794 25.7616C55.9238 25.8395 57.705 25.0604 59.0216 23.3854C59.6025 22.6452 59.9897 21.9051 60.1833 21.1649C60.2995 20.7753 60.3382 20.3079 60.4156 19.7236C60.4931 19.1392 60.4931 18.8276 60.4931 18.6718C60.4931 18.3991 60.4931 18.1264 60.4544 17.8537C60.4544 17.581 60.4156 17.4252 60.4156 17.1136C60.4156 16.685 60.222 16.4513 59.7961 16.4513H54.4523C54.0263 16.4513 53.794 16.685 53.794 17.1136V18.3601C53.794 18.6718 54.1038 19.0224 54.4523 19.0224H57.9374L57.8212 19.8015C57.7438 20.2689 57.6663 20.6585 57.5114 20.9701C56.8144 22.4504 55.3429 23.1516 53.794 23.1516C52.671 23.1516 51.703 22.7231 50.9672 21.983C50.2315 21.2428 49.8055 20.3468 49.8055 18.9445V15.6333C49.8055 13.4518 51.5868 11.6598 53.794 11.6598C55.4204 11.6598 56.5821 12.5168 57.3178 13.8803C57.4727 14.153 57.6276 14.2698 57.8986 14.2698H59.3701C59.9122 14.2698 60.1833 13.8803 59.9897 13.4518C58.828 10.8028 56.5821 9.01086 53.794 9.01086Z" fill="#34404B"/>
</g>
<g clip-path="url(#clip3_142_3993)">
<path d="M63.3585 25.5759H73.3878C74.0461 25.5759 74.0461 25.1863 74.0461 24.7578V23.6671C74.0461 22.9269 73.9299 22.888 73.2329 22.888H65.4108V18.3302H72.1099C72.4971 18.3302 72.7682 18.0575 72.7682 17.668V16.2656C72.7682 15.876 72.4971 15.6033 72.1099 15.6033H65.4108V12.0195H73.0005C73.6975 12.0195 73.8137 11.9415 73.8137 11.2403V10.1106C73.8137 9.7211 73.8137 9.33154 73.1554 9.33154H63.3972C63.01 9.33154 62.7002 9.60423 62.7002 9.99378L62.7389 24.9526C62.7002 25.3032 62.9713 25.5759 63.3585 25.5759Z" fill="#34404B"/>
</g>
<mask id="mask0_142_3993" style="mask-type:luminance" maskUnits="userSpaceOnUse" x="22" y="12" width="7" height="13">
<path d="M28.8326 12.616H22.7366V24.8977H28.8326V12.616Z" fill="white"/>
</mask>
<g mask="url(#mask0_142_3993)">
<path d="M28.8491 17.9198H26.3448L27.7287 12.616L22.7366 19.5939H25.2409L23.8569 24.8977L28.8491 17.9198Z" fill="#00E5FF"/>
</g>
<g clip-path="url(#clip4_142_3993)">
<path d="M27.3999 10.385V8.86573C27.3999 8.55409 27.1289 8.20349 26.7416 8.20349H25.3863C24.9991 8.20349 24.728 8.51513 24.728 8.86573V10.385C24.728 10.6966 24.9991 11.0472 25.3863 11.0472H26.7416C27.0901 11.0472 27.3999 10.7356 27.3999 10.385Z" fill="#34404B"/>
</g>
<defs>
<clipPath id="clip0_142_3993">
<rect width="11.6556" height="16.6339" fill="white" transform="translate(7.97119 9.08716)"/>
</clipPath>
<clipPath id="clip1_142_3993">
<rect width="12.6237" height="16.2833" fill="white" transform="translate(33.0972 9.2926)"/>
</clipPath>
<clipPath id="clip2_142_3993">
<rect width="13.282" height="16.7508" fill="white" transform="translate(47.1724 9.01086)"/>
</clipPath>
<clipPath id="clip3_142_3993">
<rect width="11.3846" height="16.2833" fill="white" transform="translate(62.6614 9.2926)"/>
</clipPath>
<clipPath id="clip4_142_3993">
<rect width="2.67189" height="2.80478" fill="white" transform="translate(24.6892 8.24243)"/>
</clipPath>
</defs>
</svg>
