<svg width="107" height="101" viewBox="0 0 107 101" fill="none" xmlns="http://www.w3.org/2000/svg">
<g id="Frame 7234">
<path id="Vector" d="M90.44 68.775L76.227 64.0823L93.7521 37.3551L52.6807 66.5776L66.8937 71.2703L49.3687 97.9974L90.44 68.775Z" fill="#D5F2F5"/>
<path id="Vector_2" d="M108.636 115.741C108.642 115.683 108.66 115.631 108.678 115.579C108.688 115.55 108.698 115.522 108.706 115.492C108.532 109.307 104.222 104.334 98.935 104.334C98.1442 104.334 97.505 103.694 97.505 102.902C97.505 102.11 98.1442 101.47 98.935 101.47C105.464 101.47 110.851 107.135 111.513 114.378C121.386 113.673 129.21 105.417 129.21 95.3438C129.21 95.1805 129.2 95.0219 129.191 94.8635C129.185 94.7747 129.18 94.686 129.177 94.5965C123.244 93.7933 118.62 87.8689 118.62 80.6917C118.62 79.9 119.26 79.26 120.05 79.26C120.841 79.26 121.48 79.9 121.48 80.6917C121.48 86.7149 125.394 91.6242 130.259 91.8147C136.877 88.7594 141.14 82.1277 141.14 74.8189C141.14 67.6188 137.105 61.179 130.609 58.0135L108.636 115.741ZM108.636 115.741C107.861 124.635 100.261 131.602 91.3317 131.602C82.2626 131.602 74.818 124.788 74.0172 115.753L108.636 115.741ZM130.16 91.3094C136.538 88.3131 140.64 81.8914 140.64 74.8189C140.64 67.8109 136.714 61.545 130.39 58.4629L130.386 58.4606C130.352 58.4438 130.324 58.4257 130.302 58.4091C130.279 58.3999 130.253 58.3876 130.226 58.3713L130.215 58.3651L130.215 58.365C125.634 55.5143 120.492 57.3838 117.144 60.2122L116.821 59.8303L117.144 60.2123C115.799 61.3482 114.887 62.5133 114.355 63.4778C114.089 63.9609 113.924 64.3832 113.843 64.7179C113.759 65.0702 113.785 65.2594 113.811 65.3242L113.348 65.5128L113.811 65.3237C114.214 66.3106 113.74 67.4383 112.754 67.8408M130.16 91.3094L112.564 67.3783M130.16 91.3094C125.7 91.0574 121.98 86.4882 121.98 80.6917C121.98 79.6244 121.118 78.76 120.05 78.76C118.983 78.76 118.12 79.6244 118.12 80.6917C118.12 87.8973 122.667 93.9745 128.699 95.0284C128.705 95.1319 128.71 95.2325 128.71 95.3438C128.71 104.989 121.344 112.923 111.959 113.839C111.083 106.63 105.625 100.97 98.935 100.97C97.8675 100.97 97.005 101.834 97.005 102.902C97.005 103.969 97.8675 104.834 98.935 104.834C103.855 104.834 107.998 109.468 108.204 115.421C108.2 115.43 108.197 115.441 108.192 115.455C108.174 115.508 108.148 115.592 108.138 115.694L108.138 115.698C107.385 124.333 100.001 131.102 91.3317 131.102C82.5219 131.102 75.2936 124.487 74.5153 115.709C74.4257 114.68 73.4837 113.949 72.5172 113.949C72.5013 113.949 72.4862 113.949 72.4721 113.95C72.4581 113.949 72.443 113.949 72.4271 113.949C71.4263 113.949 70.5934 114.714 70.5048 115.71L70.5047 115.71C69.7411 124.339 62.3484 131.102 53.6826 131.102C45.0134 131.102 37.621 124.334 36.8578 115.698C36.8492 115.594 36.8198 115.51 36.8047 115.468L36.8033 115.465C36.9909 109.49 41.1411 104.834 46.0722 104.834C47.1379 104.834 48.0022 103.969 48.0022 102.902C48.0022 101.834 47.1379 100.97 46.0722 100.97C39.3849 100.97 33.9253 106.63 33.0513 113.839C23.6663 112.923 16.2991 104.989 16.2991 95.3438C16.2991 95.2381 16.3037 95.1361 16.3099 95.0284C22.3451 93.9755 26.8954 87.8986 26.8954 80.6917C26.8954 79.6241 26.0311 78.76 24.9654 78.76C23.8996 78.76 23.0354 79.6241 23.0354 80.6917C23.0354 86.488 19.3143 91.0575 14.8502 91.3094C8.46558 88.3116 4.36 81.8897 4.36 74.8189C4.36 67.8119 8.29025 61.5479 14.6234 58.4653C14.659 58.4482 14.6883 58.4295 14.7113 58.4128C14.7388 58.4014 14.7711 58.3859 14.8042 58.365C19.3788 55.515 24.5211 57.3854 27.8689 60.2123L27.869 60.2124C29.2158 61.3491 30.1301 62.515 30.6633 63.4801C30.9305 63.9636 31.0962 64.3861 31.1768 64.7211C31.2616 65.0737 31.2364 65.2631 31.2101 65.3278C30.8093 66.3158 31.2832 67.442 32.2699 67.8442L32.2714 67.8448C32.5077 67.9402 32.7528 67.9871 32.9962 67.9871C33.7577 67.9871 34.4801 67.5336 34.7852 66.7817C35.4238 65.2101 35.0138 63.425 34.1392 61.7824C33.2583 60.1282 31.8614 58.5282 30.3558 57.2577C26.4459 53.9573 20.3452 51.5471 14.4327 54.1958C12.7228 51.3386 11.8217 48.1198 11.8217 44.7859C11.8217 35.974 18.2022 28.4176 26.6728 26.7539C26.9528 31.8195 28.1463 36.3031 29.9606 39.5723C31.8341 42.9482 34.4379 45.1342 37.4593 45.1342C38.5253 45.1342 39.3893 44.2683 39.3893 43.2025C39.3893 42.1366 38.5253 41.2707 37.4593 41.2707C36.7448 41.2707 35.95 40.9113 35.1362 40.1375C34.3249 39.3663 33.5312 38.2156 32.8334 36.7264C31.4388 33.7502 30.4618 29.4951 30.4618 24.4514C30.4618 13.3733 39.4608 4.36055 50.518 4.36055C61.5827 4.36055 70.5872 13.3736 70.5872 24.4514C70.5872 25.5173 71.4511 26.3831 72.5172 26.3831C73.5832 26.3831 74.4472 25.5173 74.4472 24.4514C74.4472 13.373 83.4407 4.36055 94.4934 4.36055C105.544 4.36055 114.54 13.3562 114.555 24.51C114.548 29.537 113.568 33.7771 112.173 36.7427C111.475 38.2266 110.681 39.3731 109.87 40.1415C109.057 40.9124 108.262 41.2707 107.548 41.2707C106.48 41.2707 105.618 42.1369 105.618 43.2025C105.618 44.268 106.48 45.1342 107.548 45.1342C110.572 45.1342 113.179 42.9486 115.054 39.5725C116.871 36.3033 118.066 31.8197 118.346 26.754C126.809 28.4178 133.183 35.9724 133.183 44.7859C133.183 48.1349 132.284 51.3536 130.583 54.196C124.662 51.5456 118.56 53.9571 114.653 57.2593M130.16 91.3094L114.653 57.2593M112.754 67.8408C112.754 67.841 112.753 67.8411 112.753 67.8413L112.564 67.3783M112.754 67.8408C112.754 67.8408 112.754 67.8407 112.755 67.8406L112.564 67.3783M112.754 67.8408C112.515 67.939 112.268 67.9856 112.024 67.9856C111.262 67.9856 110.541 67.5319 110.236 66.7822M112.564 67.3783C112.387 67.4513 112.204 67.4856 112.024 67.4856C111.459 67.4856 110.926 67.1492 110.7 66.5937M110.236 66.7822L110.7 66.5937M110.236 66.7822C109.597 65.2108 110.004 63.4258 110.877 61.7831C111.755 60.129 113.149 58.5292 114.653 57.2593M110.236 66.7822C110.236 66.7821 110.236 66.7821 110.236 66.7821L110.7 66.5937M110.7 66.5937L114.653 57.2593M72.6017 113.977L72.6014 113.976L72.6017 113.977ZM144.5 74.8189C144.5 67.0544 140.522 60.0372 133.99 56.0377C135.992 52.6336 137.043 48.785 137.043 44.7888C137.043 33.8691 128.969 24.5398 118.362 22.8226C117.523 10.3717 107.139 0.5 94.4934 0.5C84.6246 0.5 76.1599 6.53336 72.5169 15.0997C68.8695 6.53319 60.3976 0.5 50.518 0.5C37.9019 0.5 27.5387 10.3341 26.662 22.8222C16.0446 24.536 7.96174 33.8669 7.96174 44.7888C7.96174 48.7698 9.01571 52.6182 11.0245 56.0359C4.48348 60.0352 0.5 67.0526 0.5 74.8189C0.5 83.1082 5.1495 90.669 12.4534 94.4444C12.4431 94.7378 12.4376 95.0377 12.4376 95.3453C12.4376 107.189 21.6267 116.922 33.2367 117.755C34.9439 127.537 43.6055 134.967 53.6826 134.967C61.8916 134.967 69.1542 130.032 72.4881 122.919C75.7713 130.106 82.9716 134.967 91.3331 134.967C101.409 134.967 110.062 127.537 111.759 117.756C123.373 116.926 132.57 107.191 132.57 95.3453C132.57 95.0415 132.562 94.7419 132.551 94.4471C139.852 90.6729 144.5 83.1121 144.5 74.8189Z" fill="#D5F2F5" stroke="#D5F2F5"/>
</g>
</svg>