<svg width="20" height="20" viewBox="0 0 20 20" fill="none" xmlns="http://www.w3.org/2000/svg">
<path d="M5.59955 7.26196L9.34518 3.51608C9.5669 3.29435 9.9138 3.27401 10.1585 3.45519L10.2286 3.51559L13.9826 7.26146C14.227 7.50528 14.2274 7.901 13.9836 8.14535C13.762 8.36748 13.4148 8.38803 13.1699 8.20675L13.0997 8.14631L10.414 5.4656L10.4146 16.0455C10.4146 16.3619 10.1794 16.6234 9.87436 16.6648L9.78956 16.6705C9.47314 16.6705 9.21165 16.4353 9.17026 16.1303L9.16456 16.0455L9.164 5.46393L6.48346 8.14581C6.26158 8.36771 5.91436 8.38789 5.66968 8.20636L5.59958 8.14584C5.37768 7.92396 5.3575 7.57674 5.53903 7.33206L5.59955 7.26196L9.34518 3.51608L5.59955 7.26196Z" fill="#A1B3C4"/>
</svg>
