<svg width="20" height="20" viewBox="0 0 20 20" fill="none" xmlns="http://www.w3.org/2000/svg">
<path d="M10.0004 2.20039C5.69257 2.20039 2.20039 5.69257 2.20039 10.0004C2.20039 10.4974 1.79745 10.9004 1.30039 10.9004C0.803334 10.9004 0.400391 10.4974 0.400391 10.0004C0.400391 4.69846 4.69846 0.400391 10.0004 0.400391C15.3023 0.400391 19.6004 4.69846 19.6004 10.0004C19.6004 15.3023 15.3023 19.6004 10.0004 19.6004C9.50333 19.6004 9.10039 19.1974 9.10039 18.7004C9.10039 18.2033 9.50333 17.8004 10.0004 17.8004C14.3082 17.8004 17.8004 14.3082 17.8004 10.0004C17.8004 5.69257 14.3082 2.20039 10.0004 2.20039Z" fill="url(#paint0_linear_2958_20759)"/>
<defs>
<linearGradient id="paint0_linear_2958_20759" x1="19.6004" y1="0.400391" x2="0.400391" y2="19.6004" gradientUnits="userSpaceOnUse">
<stop stop-color="white"/>
<stop offset="1" stop-color="white"/>
</linearGradient>
</defs>
</svg>