 <svg
                              width="58"
                              height="58"
                              viewBox="0 0 58 58"
                              fill="none"
                              xmlns="http://www.w3.org/2000/svg"
                            >
                              <path
                                fill-rule="evenodd"
                                clip-rule="evenodd"
                                d="M29 4C24.0555 4 19.222 5.46622 15.1108 8.21326C10.9995 10.9603 7.79521 14.8648 5.90302 19.4329C4.01083 24.0011 3.51575 29.0277 4.48038 33.8773C5.44501 38.7268 7.82603 43.1814 11.3223 46.6777C14.8187 50.174 19.2732 52.555 24.1228 53.5196C28.9723 54.4843 33.9989 53.9892 38.5671 52.097C43.1352 50.2048 47.0397 47.0005 49.7867 42.8892C52.5338 38.778 54 33.9445 54 29C54 27.8954 54.8954 27 56 27C57.1046 27 58 27.8954 58 29C58 34.7356 56.2992 40.3425 53.1126 45.1115C49.9261 49.8806 45.3969 53.5976 40.0978 55.7925C34.7988 57.9874 28.9678 58.5617 23.3424 57.4428C17.7169 56.3238 12.5496 53.5618 8.49391 49.5061C4.43819 45.4504 1.67621 40.2831 0.55724 34.6576C-0.561731 29.0322 0.0125654 23.2012 2.20751 17.9022C4.40245 12.6031 8.11945 8.07394 12.8885 4.88738C17.6575 1.70082 23.2644 0 29 0C30.1046 0 31 0.89543 31 2C31 3.10457 30.1046 4 29 4Z"
                                fill="url(#paint0_angular_921_47654)"
                              />
                              <defs>
                                <radialGradient
                                  id="paint0_angular_921_47654"
                                  cx="0"
                                  cy="0"
                                  r="1"
                                  gradientUnits="userSpaceOnUse"
                                  gradientTransform="translate(29 29) rotate(-78.518) scale(32.6535)"
                                >
                                  <stop
                                    offset="0.216559"
                                    stop-color="#32C4D4"
                                    stop-opacity="0"
                                  />
                                  <stop
                                    offset="0.430432"
                                    stop-color="#32C4D4"
                                    stop-opacity="0.04"
                                  />
                                  <stop
                                    offset="0.972484"
                                    stop-color="#32C4D4"
                                  />
                                </radialGradient>
                              </defs>
                            </svg>