<svg width="28" height="28" viewBox="0 0 28 28" fill="none" xmlns="http://www.w3.org/2000/svg">
<path d="M14.0013 0.666748C21.3651 0.666748 27.3346 6.63628 27.3346 14.0001C27.3346 21.3639 21.3651 27.3334 14.0013 27.3334C6.63751 27.3334 0.667969 21.3639 0.667969 14.0001C0.667969 6.63628 6.63751 0.666748 14.0013 0.666748ZM18.2942 9.95964L12.3346 15.9192L9.70841 13.293C9.31788 12.9025 8.68472 12.9025 8.2942 13.293C7.90367 13.6835 7.90367 14.3167 8.2942 14.7072L11.6275 18.0405C12.0181 18.431 12.6512 18.431 13.0417 18.0405L19.7084 11.3739C20.0989 10.9833 20.0989 10.3502 19.7084 9.95964C19.3179 9.56912 18.6847 9.56912 18.2942 9.95964Z" fill="#2FC546"/>
</svg>
