<svg width="20" height="20" viewBox="0 0 20 20" fill="none" xmlns="http://www.w3.org/2000/svg">
<path fill-rule="evenodd" clip-rule="evenodd" d="M20 10C20 4.47716 15.5228 0 10 0C4.47716 0 0 4.47716 0 10C0 15.5228 4.47716 20 10 20C15.5228 20 20 15.5228 20 10ZM15.2 6.82609C13.5621 6.71809 12.62 5.70286 12.4238 4V4.0036H10.4576V11.1714C10.7537 14.9984 7.19247 14.4187 6.9177 12.4603C6.77496 11.4378 7.28881 10.8582 8.19519 10.5486C8.49851 10.4442 8.83037 10.365 9.14082 10.3146V8.29494C5.06569 8.44254 4.28777 12.1255 5.55813 14.2243C7.53504 17.486 12.4523 16.064 12.4523 11.5134V7.93133C13.4194 8.52175 14.2508 8.83496 15.2 8.74135V6.82609Z" fill="#525D67"/>
</svg>
