<svg width="374" height="234" viewBox="0 0 374 234" fill="none" xmlns="http://www.w3.org/2000/svg">
<g clip-path="url(#clip0_1901_31351)">
<rect width="374" height="234" rx="8" fill="white"/>
<g opacity="0.8" filter="url(#filter0_d_1901_31351)">
<g clip-path="url(#clip1_1901_31351)">
<rect x="222.063" y="43" width="147.092" height="116.196" rx="4.70157" transform="rotate(22.8188 222.063 43)" fill="#F8FBFC"/>
<path d="M220.24 47.3336C221.247 44.9402 224.003 43.8163 226.397 44.8234L353.309 98.2217C355.703 99.2287 356.827 101.985 355.82 104.379L352.694 111.808L217.114 54.7626L220.24 47.3336Z" fill="#E4EAEE"/>
<circle cx="333.989" cy="97.3792" r="2.01496" transform="rotate(22.8188 333.989 97.3792)" fill="#A1B3C4"/>
<circle cx="348.847" cy="103.631" r="2.01496" transform="rotate(22.8188 348.847 103.631)" fill="#A1B3C4"/>
<circle cx="341.418" cy="100.505" r="2.01496" transform="rotate(22.8188 341.418 100.505)" fill="#A1B3C4"/>
<line x1="217.244" y1="54.4529" x2="352.824" y2="111.498" stroke="#E4EAEE" strokeWidth="0.671653"/>
</g>
<rect x="222.242" y="43.4398" width="146.42" height="115.524" rx="3.69409" transform="rotate(22.8188 222.242 43.4398)" stroke="#E4EAEE" strokeWidth="0.671653" shape-rendering="crispEdges"/>
</g>
<g filter="url(#filter1_d_1901_31351)">
<g clip-path="url(#clip2_1901_31351)">
<rect x="146.257" y="32.9434" width="179.958" height="142.158" rx="5.75207" transform="rotate(11.2077 146.257 32.9434)" fill="#F8FBFC"/>
<path d="M145.139 38.5857C145.757 35.4695 148.784 33.4439 151.9 34.0614L317.141 66.803C320.257 67.4205 322.282 70.4472 321.665 73.5634L319.748 83.2361L143.223 48.2584L145.139 38.5857Z" fill="#E4EAEE"/>
<circle cx="293.78" cy="70.5509" r="2.46517" transform="rotate(11.2077 293.78 70.5509)" fill="#A1B3C4"/>
<circle cx="313.125" cy="74.3839" r="2.46517" transform="rotate(11.2077 313.125 74.3839)" fill="#A1B3C4"/>
<circle cx="303.453" cy="72.4674" r="2.46517" transform="rotate(11.2077 303.453 72.4674)" fill="#A1B3C4"/>
<line x1="143.303" y1="47.855" x2="319.828" y2="82.8327" stroke="#E4EAEE" strokeWidth="0.821725"/>
</g>
<rect x="146.58" y="33.4262" width="179.136" height="141.337" rx="4.51948" transform="rotate(11.2077 146.58 33.4262)" stroke="#E4EAEE" strokeWidth="0.821725" shape-rendering="crispEdges"/>
</g>
<g filter="url(#filter2_d_1901_31351)">
<g clip-path="url(#clip3_1901_31351)">
<rect x="62" y="36" width="219" height="173" rx="7" fill="#F8FBFC"/>
<path d="M62 43C62 39.134 65.134 36 69 36H274C277.866 36 281 39.134 281 43V55H62V43Z" fill="#E4EAEE"/>
<circle cx="247" cy="46" r="3" fill="#A1B3C4"/>
<circle cx="271" cy="46" r="3" fill="#A1B3C4"/>
<circle cx="259" cy="46" r="3" fill="#A1B3C4"/>
<line x1="62" y1="54.5" x2="281" y2="54.5" stroke="#E4EAEE"/>
<mask id="path-27-inside-1_1901_31351" fill="white">
<path d="M62 55H281V65H62V55Z"/>
</mask>
<path d="M62 55H281V65H62V55Z" fill="white"/>
<path d="M281 64H62V66H281V64Z" fill="#EBEFF3" mask="url(#path-27-inside-1_1901_31351)"/>
</g>
<rect x="62.5" y="36.5" width="218" height="172" rx="5.5" stroke="#E4EAEE" shape-rendering="crispEdges"/>
</g>
<g clip-path="url(#clip4_1901_31351)">
<g filter="url(#filter3_d_1901_31351)">
<g clip-path="url(#clip5_1901_31351)">
<rect x="41" y="23" width="439.266" height="347" rx="14.0405" fill="#F8FBFC"/>
<path d="M41 37.0405C41 29.2861 47.2861 23 55.0405 23H466.225C473.98 23 480.266 29.2861 480.266 37.0405V61.1098H41V37.0405Z" fill="#E4EAEE"/>
<line x1="41" y1="60.1065" x2="480.266" y2="60.1065" stroke="#E4EAEE" strokeWidth="2.00578"/>
<mask id="path-35-inside-2_1901_31351" fill="white">
<path d="M41 61.1094H480.266V81.1672H41V61.1094Z"/>
</mask>
<path d="M41 61.1094H480.266V81.1672H41V61.1094Z" fill="white"/>
<path d="M480.266 79.1614H41V83.173H480.266V79.1614Z" fill="#EBEFF3" mask="url(#path-35-inside-2_1901_31351)"/>
<path d="M59.2772 65.9144C60.201 65.9144 60.9392 66.168 61.4916 66.6752C62.0532 67.1824 62.3339 67.8752 62.3339 68.7538C62.3339 69.6685 62.0441 70.3569 61.4645 70.8188C60.8848 71.2807 60.115 71.5116 59.1549 71.5116L59.1006 72.5849H57.7556L57.6877 70.452H58.136C59.0145 70.452 59.6848 70.3342 60.1467 70.0987C60.6176 69.8632 60.8531 69.4149 60.8531 68.7538C60.8531 68.2737 60.7127 67.8979 60.432 67.6262C60.1602 67.3544 59.7799 67.2186 59.2908 67.2186C58.8017 67.2186 58.4168 67.3499 58.136 67.6126C57.8552 67.8752 57.7148 68.242 57.7148 68.713H56.2612C56.2612 68.1696 56.3835 67.685 56.628 67.2593C56.8725 66.8337 57.2212 66.5031 57.6741 66.2676C58.136 66.0321 58.6704 65.9144 59.2772 65.9144ZM58.4077 75.5873C58.1269 75.5873 57.8915 75.4922 57.7013 75.302C57.5111 75.1118 57.416 74.8763 57.416 74.5955C57.416 74.3148 57.5111 74.0793 57.7013 73.8891C57.8915 73.6989 58.1269 73.6038 58.4077 73.6038C58.6794 73.6038 58.9104 73.6989 59.1006 73.8891C59.2908 74.0793 59.3859 74.3148 59.3859 74.5955C59.3859 74.8763 59.2908 75.1118 59.1006 75.302C58.9104 75.4922 58.6794 75.5873 58.4077 75.5873ZM70.8261 68.0066V75.4922H69.2773V74.6091C69.0328 74.9171 68.7112 75.1616 68.3127 75.3427C67.9233 75.5148 67.5067 75.6009 67.0629 75.6009C66.4742 75.6009 65.9443 75.4786 65.4734 75.2341C65.0115 74.9895 64.6446 74.6272 64.3729 74.1472C64.1103 73.6672 63.979 73.0875 63.979 72.4083V68.0066H65.5141V72.1773C65.5141 72.8475 65.6817 73.3638 66.0168 73.7261C66.3519 74.0793 66.8093 74.2559 67.3889 74.2559C67.9686 74.2559 68.426 74.0793 68.7611 73.7261C69.1052 73.3638 69.2773 72.8475 69.2773 72.1773V68.0066H70.8261ZM74.6764 69.27V73.4136C74.6764 73.6944 74.7398 73.8982 74.8666 74.0249C75.0025 74.1427 75.2289 74.2016 75.5459 74.2016H76.4969V75.4922H75.2742C74.5768 75.4922 74.0424 75.3292 73.6711 75.0031C73.2997 74.6771 73.1141 74.1472 73.1141 73.4136V69.27H72.231V68.0066H73.1141V66.1453H74.6764V68.0066H76.4969V69.27H74.6764ZM86.9859 67.8843C87.5746 67.8843 88.0999 68.0066 88.5618 68.2511C89.0327 68.4956 89.3996 68.8579 89.6622 69.3379C89.9339 69.818 90.0698 70.3976 90.0698 71.0769V75.4922H88.5346V71.3078C88.5346 70.6376 88.3671 70.1259 88.0319 69.7727C87.6968 69.4104 87.2395 69.2293 86.6598 69.2293C86.0802 69.2293 85.6182 69.4104 85.2741 69.7727C84.939 70.1259 84.7714 70.6376 84.7714 71.3078V75.4922H83.2362V71.3078C83.2362 70.6376 83.0687 70.1259 82.7336 69.7727C82.3985 69.4104 81.9411 69.2293 81.3614 69.2293C80.7818 69.2293 80.3199 69.4104 79.9757 69.7727C79.6406 70.1259 79.473 70.6376 79.473 71.3078V75.4922H77.9243V68.0066H79.473V68.8624C79.7266 68.5545 80.0482 68.3145 80.4376 68.1424C80.8271 67.9703 81.2437 67.8843 81.6875 67.8843C82.2853 67.8843 82.8196 68.0111 83.2906 68.2647C83.7616 68.5183 84.1238 68.8851 84.3774 69.3651C84.6039 68.9123 84.9571 68.5545 85.4371 68.2918C85.9171 68.0201 86.4334 67.8843 86.9859 67.8843ZM100.314 76.0356V77.4757H92.7334V76.0356H100.314ZM105.597 75.6145C105.008 75.6145 104.478 75.5103 104.007 75.302C103.545 75.0846 103.179 74.7948 102.907 74.4325C102.635 74.0612 102.49 73.6491 102.472 73.1962H104.075C104.102 73.5132 104.252 73.7804 104.524 73.9978C104.804 74.2061 105.153 74.3102 105.57 74.3102C106.004 74.3102 106.34 74.2287 106.575 74.0657C106.82 73.8936 106.942 73.6763 106.942 73.4136C106.942 73.1328 106.806 72.9245 106.534 72.7887C106.272 72.6528 105.85 72.5034 105.271 72.3403C104.709 72.1864 104.252 72.0369 103.899 71.892C103.545 71.7471 103.238 71.5252 102.975 71.2263C102.721 70.9274 102.594 70.5335 102.594 70.0444C102.594 69.6459 102.712 69.2836 102.948 68.9575C103.183 68.6224 103.518 68.3598 103.953 68.1696C104.397 67.9794 104.904 67.8843 105.475 67.8843C106.326 67.8843 107.01 68.1017 107.526 68.5364C108.051 68.9621 108.332 69.5462 108.368 70.2889H106.82C106.792 69.9538 106.657 69.6866 106.412 69.4874C106.167 69.2881 105.837 69.1885 105.42 69.1885C105.013 69.1885 104.7 69.2655 104.483 69.4194C104.265 69.5734 104.157 69.7772 104.157 70.0308C104.157 70.2301 104.229 70.3976 104.374 70.5335C104.519 70.6693 104.696 70.778 104.904 70.8595C105.112 70.932 105.42 71.0271 105.828 71.1448C106.371 71.2897 106.815 71.4392 107.159 71.5931C107.512 71.738 107.816 71.9554 108.069 72.2452C108.323 72.5351 108.454 72.92 108.463 73.4C108.463 73.8257 108.346 74.2061 108.11 74.5412C107.875 74.8763 107.54 75.139 107.105 75.3292C106.679 75.5194 106.177 75.6145 105.597 75.6145ZM113.384 75.6145C112.677 75.6145 112.039 75.456 111.468 75.139C110.898 74.8129 110.449 74.3601 110.123 73.7804C109.797 73.1917 109.634 72.5124 109.634 71.7426C109.634 70.9818 109.802 70.307 110.137 69.7183C110.472 69.1296 110.929 68.6768 111.509 68.3598C112.089 68.0428 112.736 67.8843 113.452 67.8843C114.167 67.8843 114.815 68.0428 115.394 68.3598C115.974 68.6768 116.432 69.1296 116.767 69.7183C117.102 70.307 117.269 70.9818 117.269 71.7426C117.269 72.5034 117.097 73.1781 116.753 73.7668C116.409 74.3555 115.938 74.8129 115.34 75.139C114.751 75.456 114.099 75.6145 113.384 75.6145ZM113.384 74.2695C113.782 74.2695 114.154 74.1744 114.498 73.9842C114.851 73.794 115.136 73.5087 115.354 73.1283C115.571 72.7479 115.68 72.286 115.68 71.7426C115.68 71.1992 115.576 70.7418 115.367 70.3704C115.159 69.99 114.883 69.7047 114.539 69.5145C114.194 69.3244 113.823 69.2293 113.425 69.2293C113.026 69.2293 112.655 69.3244 112.311 69.5145C111.975 69.7047 111.708 69.99 111.509 70.3704C111.31 70.7418 111.21 71.1992 111.21 71.7426C111.21 72.5487 111.414 73.1736 111.822 73.6174C112.238 74.0521 112.759 74.2695 113.384 74.2695ZM125.58 68.0066V75.4922H124.031V74.6091C123.786 74.9171 123.465 75.1616 123.066 75.3427C122.677 75.5148 122.26 75.6009 121.816 75.6009C121.228 75.6009 120.698 75.4786 120.227 75.2341C119.765 74.9895 119.398 74.6272 119.126 74.1472C118.864 73.6672 118.732 73.0875 118.732 72.4083V68.0066H120.268V72.1773C120.268 72.8475 120.435 73.3638 120.77 73.7261C121.105 74.0793 121.563 74.2559 122.142 74.2559C122.722 74.2559 123.179 74.0793 123.515 73.7261C123.859 73.3638 124.031 72.8475 124.031 72.1773V68.0066H125.58ZM129.172 69.0934C129.398 68.713 129.697 68.4186 130.068 68.2103C130.449 67.993 130.897 67.8843 131.413 67.8843V69.4874H131.019C130.413 69.4874 129.951 69.6413 129.634 69.9493C129.326 70.2572 129.172 70.7916 129.172 71.5524V75.4922H127.623V68.0066H129.172V69.0934ZM132.321 71.7426C132.321 70.9727 132.475 70.298 132.783 69.7183C133.1 69.1296 133.534 68.6768 134.087 68.3598C134.639 68.0428 135.273 67.8843 135.989 67.8843C136.895 67.8843 137.642 68.1017 138.23 68.5364C138.828 68.9621 139.231 69.5734 139.44 70.3704H137.769C137.633 69.9991 137.415 69.7093 137.116 69.501C136.818 69.2927 136.442 69.1885 135.989 69.1885C135.355 69.1885 134.848 69.4149 134.467 69.8678C134.096 70.3116 133.91 70.9365 133.91 71.7426C133.91 72.5487 134.096 73.1781 134.467 73.631C134.848 74.0838 135.355 74.3102 135.989 74.3102C136.885 74.3102 137.479 73.9163 137.769 73.1283H139.44C139.222 73.8891 138.815 74.4959 138.217 74.9488C137.619 75.3926 136.876 75.6145 135.989 75.6145C135.273 75.6145 134.639 75.456 134.087 75.139C133.534 74.8129 133.1 74.3601 132.783 73.7804C132.475 73.1917 132.321 72.5124 132.321 71.7426ZM147.844 71.566C147.844 71.8467 147.826 72.1003 147.789 72.3268H142.07C142.115 72.9245 142.337 73.4045 142.736 73.7668C143.134 74.1291 143.623 74.3102 144.203 74.3102C145.036 74.3102 145.625 73.9615 145.969 73.2642H147.64C147.413 73.9525 147.001 74.5186 146.404 74.9624C145.815 75.3971 145.081 75.6145 144.203 75.6145C143.487 75.6145 142.844 75.456 142.274 75.139C141.712 74.8129 141.268 74.3601 140.942 73.7804C140.625 73.1917 140.467 72.5124 140.467 71.7426C140.467 70.9727 140.621 70.298 140.929 69.7183C141.246 69.1296 141.685 68.6768 142.246 68.3598C142.817 68.0428 143.469 67.8843 144.203 67.8843C144.909 67.8843 145.539 68.0383 146.091 68.3462C146.644 68.6541 147.074 69.0889 147.382 69.6504C147.69 70.2029 147.844 70.8414 147.844 71.566ZM146.227 71.0769C146.218 70.5063 146.014 70.0489 145.616 69.7047C145.217 69.3606 144.724 69.1885 144.135 69.1885C143.6 69.1885 143.143 69.3606 142.763 69.7047C142.382 70.0399 142.156 70.4972 142.083 71.0769H146.227Z" fill="#525D67"/>
</g>
<rect x="42.0029" y="24.0029" width="437.26" height="344.994" rx="11.0318" stroke="#E4EAEE" strokeWidth="2.00578" shape-rendering="crispEdges"/>
</g>
</g>
<g clip-path="url(#clip6_1901_31351)">
<g filter="url(#filter4_d_1901_31351)">
<path d="M77.8259 13.3488C41.7897 27.4748 24.176 68.517 38.4846 105.019C44.6735 120.807 55.8208 133.16 69.3953 140.953L42.8021 202.92C41.2127 206.624 42.9097 210.953 46.5924 212.589C49.9403 214.077 53.7767 212.828 55.6407 209.806L56.1382 208.847L82.7324 146.881C97.5751 151.718 114.055 151.645 129.642 145.535C165.678 131.409 183.292 90.3667 168.983 53.8646C154.675 17.3624 113.862 -0.777158 77.8259 13.3488ZM83.1862 27.0232C111.767 15.8199 144.135 30.2064 155.483 59.1564C166.832 88.1064 152.862 120.657 124.282 131.861C95.7013 143.064 63.3327 128.677 51.9845 99.7273C40.6363 70.7773 54.6057 38.2266 83.1862 27.0232Z" fill="url(#paint0_linear_1901_31351)"/>
</g>
</g>
</g>
<defs>
<filter id="filter0_d_1901_31351" x="164.91" y="34.9402" width="204.823" height="188.326" filterUnits="userSpaceOnUse" color-interpolation-filters="sRGB">
<feFlood flood-opacity="0" result="BackgroundImageFix"/>
<feColorMatrix in="SourceAlpha" type="matrix" values="0 0 0 0 0 0 0 0 0 0 0 0 0 0 0 0 0 0 127 0" result="hardAlpha"/>
<feOffset dy="4.02992"/>
<feGaussianBlur stdDeviation="6.04488"/>
<feComposite in2="hardAlpha" operator="out"/>
<feColorMatrix type="matrix" values="0 0 0 0 0.0350313 0 0 0 0 0.156512 0 0 0 0 0.2375 0 0 0 0.11 0"/>
<feBlend mode="normal" in2="BackgroundImageFix" result="effect1_dropShadow_1901_31351"/>
<feBlend mode="normal" in="SourceGraphic" in2="effect1_dropShadow_1901_31351" result="shape"/>
</filter>
<filter id="filter1_d_1901_31351" x="103.835" y="23.0827" width="233.739" height="204.007" filterUnits="userSpaceOnUse" color-interpolation-filters="sRGB">
<feFlood flood-opacity="0" result="BackgroundImageFix"/>
<feColorMatrix in="SourceAlpha" type="matrix" values="0 0 0 0 0 0 0 0 0 0 0 0 0 0 0 0 0 0 127 0" result="hardAlpha"/>
<feOffset dy="4.93035"/>
<feGaussianBlur stdDeviation="7.39552"/>
<feComposite in2="hardAlpha" operator="out"/>
<feColorMatrix type="matrix" values="0 0 0 0 0.0350313 0 0 0 0 0.156512 0 0 0 0 0.2375 0 0 0 0.11 0"/>
<feBlend mode="normal" in2="BackgroundImageFix" result="effect1_dropShadow_1901_31351"/>
<feBlend mode="normal" in="SourceGraphic" in2="effect1_dropShadow_1901_31351" result="shape"/>
</filter>
<filter id="filter2_d_1901_31351" x="44" y="24" width="255" height="209" filterUnits="userSpaceOnUse" color-interpolation-filters="sRGB">
<feFlood flood-opacity="0" result="BackgroundImageFix"/>
<feColorMatrix in="SourceAlpha" type="matrix" values="0 0 0 0 0 0 0 0 0 0 0 0 0 0 0 0 0 0 127 0" result="hardAlpha"/>
<feOffset dy="6"/>
<feGaussianBlur stdDeviation="9"/>
<feComposite in2="hardAlpha" operator="out"/>
<feColorMatrix type="matrix" values="0 0 0 0 0.0350313 0 0 0 0 0.156512 0 0 0 0 0.2375 0 0 0 0.11 0"/>
<feBlend mode="normal" in2="BackgroundImageFix" result="effect1_dropShadow_1901_31351"/>
<feBlend mode="normal" in="SourceGraphic" in2="effect1_dropShadow_1901_31351" result="shape"/>
</filter>
<filter id="filter3_d_1901_31351" x="4.89596" y="-1.06936" width="511.474" height="419.208" filterUnits="userSpaceOnUse" color-interpolation-filters="sRGB">
<feFlood flood-opacity="0" result="BackgroundImageFix"/>
<feColorMatrix in="SourceAlpha" type="matrix" values="0 0 0 0 0 0 0 0 0 0 0 0 0 0 0 0 0 0 127 0" result="hardAlpha"/>
<feOffset dy="12.0347"/>
<feGaussianBlur stdDeviation="18.052"/>
<feComposite in2="hardAlpha" operator="out"/>
<feColorMatrix type="matrix" values="0 0 0 0 0.0350313 0 0 0 0 0.156512 0 0 0 0 0.2375 0 0 0 0.11 0"/>
<feBlend mode="normal" in2="BackgroundImageFix" result="effect1_dropShadow_1901_31351"/>
<feBlend mode="normal" in="SourceGraphic" in2="effect1_dropShadow_1901_31351" result="shape"/>
</filter>
<filter id="filter4_d_1901_31351" x="23.5107" y="8.55322" width="160.447" height="225.664" filterUnits="userSpaceOnUse" color-interpolation-filters="sRGB">
<feFlood flood-opacity="0" result="BackgroundImageFix"/>
<feColorMatrix in="SourceAlpha" type="matrix" values="0 0 0 0 0 0 0 0 0 0 0 0 0 0 0 0 0 0 127 0" result="hardAlpha"/>
<feOffset dy="11"/>
<feGaussianBlur stdDeviation="5"/>
<feComposite in2="hardAlpha" operator="out"/>
<feColorMatrix type="matrix" values="0 0 0 0 0.121569 0 0 0 0 0.831372 0 0 0 0 0.913725 0 0 0 0.27 0"/>
<feBlend mode="normal" in2="BackgroundImageFix" result="effect1_dropShadow_1901_31351"/>
<feBlend mode="normal" in="SourceGraphic" in2="effect1_dropShadow_1901_31351" result="shape"/>
</filter>
<linearGradient id="paint0_linear_1901_31351" x1="-18.9231" y1="51.2738" x2="208.654" y2="148.941" gradientUnits="userSpaceOnUse">
<stop stop-color="#00E5FF"/>
<stop offset="1" stop-color="#2FCCDE"/>
</linearGradient>
<clipPath id="clip0_1901_31351">
<rect width="374" height="234" rx="8" fill="white"/>
</clipPath>
<clipPath id="clip1_1901_31351">
<rect x="222.063" y="43" width="147.092" height="116.196" rx="4.02992" transform="rotate(22.8188 222.063 43)" fill="white"/>
</clipPath>
<clipPath id="clip2_1901_31351">
<rect x="146.257" y="32.9434" width="179.958" height="142.158" rx="4.93035" transform="rotate(11.2077 146.257 32.9434)" fill="white"/>
</clipPath>
<clipPath id="clip3_1901_31351">
<rect x="62" y="36" width="219" height="173" rx="6" fill="white"/>
</clipPath>
<clipPath id="clip4_1901_31351">
<rect x="45" y="21" width="119" height="118" rx="59" fill="white"/>
</clipPath>
<clipPath id="clip5_1901_31351">
<rect x="41" y="23" width="439.266" height="347" rx="12.0347" fill="white"/>
</clipPath>
<clipPath id="clip6_1901_31351">
<rect width="232" height="235" fill="white" transform="matrix(-0.931025 0.364956 0.364956 0.931025 157.998 -47)"/>
</clipPath>
</defs>
</svg>
