<svg width="49" height="16" viewBox="0 0 49 16" fill="none" xmlns="http://www.w3.org/2000/svg">
<path d="M31.6728 0.0246582C28.2226 0.0246582 25.1394 1.83643 25.1394 5.18383C25.1394 9.02266 30.6076 9.2878 30.6076 11.2163C30.6076 12.0283 29.6891 12.7552 28.1203 12.7552C25.8939 12.7552 24.2299 11.7396 24.2299 11.7396L23.5179 15.1174C23.5179 15.1174 25.4348 15.9754 27.9798 15.9754C31.7519 15.9754 34.7202 14.0746 34.7202 10.67C34.7202 6.6136 29.2291 6.35633 29.2291 4.56634C29.2291 3.93024 29.9832 3.23327 31.5474 3.23327C33.3124 3.23327 34.7524 3.97194 34.7524 3.97194L35.4493 0.70947C35.4493 0.70947 33.8824 0.0246582 31.6728 0.0246582ZM0.10698 0.270883L0.0234375 0.763332C0.0234375 0.763332 1.47493 1.03247 2.78224 1.56933C4.46551 2.18496 4.58541 2.54334 4.8689 3.65647L7.95808 15.7215H12.0991L18.4787 0.270883H14.3472L10.2479 10.7758L8.57515 1.87134C8.42175 0.852232 7.6447 0.270883 6.69355 0.270883H0.10698ZM20.1401 0.270883L16.899 15.7215H20.8388L24.0685 0.270883H20.1401ZM42.1137 0.270883C41.1636 0.270883 40.6603 0.786189 40.2909 1.68667L34.5189 15.7215H38.6505L39.4498 13.3823H44.4832L44.9693 15.7215H48.6148L45.4345 0.270883H42.1137ZM42.651 4.44516L43.8757 10.243H40.5947L42.651 4.44516Z" fill="#1434CB"/>
</svg>
