<svg width="116" height="116" viewBox="0 0 116 116" fill="none" xmlns="http://www.w3.org/2000/svg">
<path d="M48.0327 39.25C46.7739 39.25 45.5805 39.8108 44.777 40.7799L36.123 51.2178C34.4905 53.1867 35.8908 56.1667 38.4485 56.1667H85.554C88.1117 56.1667 89.512 53.1867 87.8795 51.2178L79.2256 40.7799C78.4221 39.8108 77.2287 39.25 75.9699 39.25H48.0327ZM40.2505 59.7917V77.3125C40.2505 80.6492 42.9554 83.3542 46.2922 83.3542H77.7088C81.0455 83.3542 83.7505 80.6492 83.7505 77.3125V59.7917H40.2505ZM54.7505 68.8542C54.7505 70.5225 53.398 71.875 51.7297 71.875C50.0613 71.875 48.7088 70.5225 48.7088 68.8542C48.7088 67.1858 50.0613 65.8333 51.7297 65.8333C53.398 65.8333 54.7505 67.1858 54.7505 68.8542ZM62.0005 71.875C60.3321 71.875 58.9797 70.5225 58.9797 68.8542C58.9797 67.1858 60.3321 65.8333 62.0005 65.8333C63.6688 65.8333 65.0213 67.1858 65.0213 68.8542C65.0213 70.5225 63.6688 71.875 62.0005 71.875ZM75.2922 68.8542C75.2922 70.5225 73.9397 71.875 72.2713 71.875C70.603 71.875 69.2505 70.5225 69.2505 68.8542C69.2505 67.1858 70.603 65.8333 72.2713 65.8333C73.9397 65.8333 75.2922 67.1858 75.2922 68.8542Z" fill="#E4EAEE"/>
<g filter="url(#filter0_d_718_68614)">
<circle cx="36.5387" cy="38.86" r="16.82" fill="url(#paint0_linear_718_68614)"/>
<path d="M38.333 32.6667C35.5716 32.6667 33.333 34.9052 33.333 37.6667C33.333 38.8068 33.7146 39.8577 34.357 40.6988L31.1949 43.8619C30.9346 44.1223 30.9346 44.5444 31.1949 44.8047C31.4353 45.0451 31.8134 45.0636 32.0749 44.8602L32.1377 44.8047L35.3008 41.6427C36.1419 42.2851 37.1929 42.6667 38.333 42.6667C41.0944 42.6667 43.333 40.4281 43.333 37.6667C43.333 34.9052 41.0944 32.6667 38.333 32.6667ZM38.333 34C40.3581 34 41.9997 35.6416 41.9997 37.6667C41.9997 39.6917 40.3581 41.3333 38.333 41.3333C36.308 41.3333 34.6663 39.6917 34.6663 37.6667C34.6663 35.6416 36.308 34 38.333 34Z" fill="white"/>
</g>
<path d="M91.3047 32.0017C90.5844 31.7059 90.2204 30.8718 90.583 30.1827C90.7813 29.8056 91.0068 29.4442 91.2771 29.116C91.6841 28.6302 92.1192 28.2841 92.5824 28.0777C93.0477 27.866 93.5717 27.7121 94.1544 27.6158C94.5544 27.5482 94.928 27.4484 95.2751 27.3164C95.6297 27.1813 95.9401 26.9975 96.2064 26.7652C96.4749 26.5276 96.6842 26.2261 96.8343 25.8605C97.0037 25.448 97.0541 25.0507 96.9853 24.6685C96.9165 24.2862 96.7519 23.944 96.4916 23.6418C96.2365 23.3417 95.9079 23.1091 95.5058 22.944C95.1351 22.7917 94.7494 22.7278 94.3487 22.7524C93.9554 22.774 93.5826 22.9015 93.2303 23.1352C92.5843 23.567 91.8082 23.9699 91.0894 23.6747L91.0325 23.6513C90.2382 23.325 89.844 22.3813 90.3879 21.7168C90.6675 21.3752 90.9804 21.09 91.3267 20.8612C92.0607 20.3815 92.8723 20.1291 93.7615 20.1037C94.6559 20.0806 95.56 20.2566 96.4738 20.632C97.4711 21.0417 98.2765 21.5769 98.8899 22.2378C99.5086 22.9008 99.8964 23.6429 100.053 24.4641C100.218 25.2822 100.119 26.1325 99.7562 27.015C99.5117 27.6103 99.1963 28.1032 98.8101 28.4938C98.4291 28.8865 97.9886 29.1938 97.4886 29.4156C96.9886 29.6374 96.4394 29.7932 95.8411 29.8831C95.3109 29.9704 94.8521 30.0993 94.4648 30.2698C94.0826 30.4424 93.748 30.6924 93.4609 31.02C93.3869 31.1058 93.318 31.1949 93.2533 31.2869C92.8053 31.9237 92.0249 32.2975 91.3047 32.0017ZM89.3558 36.9133C88.8859 36.7202 88.5498 36.3869 88.3477 35.9133C88.1456 35.4397 88.1432 34.9627 88.3405 34.4823C88.5335 34.0124 88.8684 33.68 89.345 33.4853C89.8217 33.2905 90.295 33.2896 90.765 33.4827C91.2297 33.6736 91.5631 34.0058 91.7653 34.4794C91.9726 34.9551 91.9798 35.428 91.7868 35.8979C91.6559 36.2165 91.456 36.473 91.1868 36.6676C90.9229 36.8643 90.6283 36.9874 90.3029 37.0368C89.9848 37.0832 89.6691 37.042 89.3558 36.9133Z" fill="#E4EAEE"/>
<path d="M27.7864 89.5594C26.9818 90.0303 25.9234 89.7713 25.5306 88.9258C25.3157 88.4632 25.1353 87.9862 25.0191 87.4905C24.8521 86.7503 24.8385 86.0848 24.9782 85.494C25.1146 84.8973 25.3484 84.2867 25.6798 83.662C25.9059 83.2321 26.0821 82.8039 26.2085 82.3776C26.3372 81.942 26.3877 81.513 26.3599 81.0908C26.3286 80.6627 26.1935 80.2445 25.9545 79.8362C25.6848 79.3754 25.343 79.0389 24.9292 78.8269C24.5153 78.6149 24.07 78.5231 23.5933 78.5516C23.1224 78.5766 22.6624 78.7205 22.2132 78.9834C21.7991 79.2258 21.4582 79.5466 21.1908 79.946C20.9257 80.336 20.7765 80.7836 20.7432 81.2886C20.6853 82.2172 20.5053 83.2486 19.7024 83.7185L19.6388 83.7558C18.7515 84.2751 17.5669 83.9652 17.3291 82.9649C17.2069 82.4507 17.1625 81.9457 17.196 81.45C17.2724 80.4029 17.6213 79.4469 18.2427 78.5819C18.87 77.7136 19.6941 76.9807 20.7149 76.3832C21.829 75.7312 22.9234 75.353 23.9979 75.2488C25.0783 75.1412 26.0664 75.3108 26.9622 75.7575C27.8605 76.1951 28.5981 76.9067 29.175 77.8925C29.5642 78.5575 29.8045 79.2157 29.896 79.867C29.9932 80.5148 29.9659 81.1573 29.8141 81.7944C29.6623 82.4314 29.4119 83.0674 29.063 83.7023C28.7612 84.2705 28.5509 84.8009 28.4319 85.2934C28.3188 85.7825 28.3139 86.2826 28.4173 86.7938C28.4453 86.9265 28.4801 87.0569 28.5207 87.1852C28.8017 88.0741 28.591 89.0885 27.7864 89.5594ZM31.0475 94.9808C30.5225 95.2881 29.9612 95.366 29.3636 95.2146C28.7659 95.0632 28.31 94.7192 27.996 94.1825C27.6887 93.6575 27.6154 93.0974 27.7761 92.5022C27.9367 91.907 28.2795 91.4557 28.8045 91.1485C29.3237 90.8446 29.8821 90.7684 30.4797 90.9198C31.0832 91.0678 31.5386 91.4043 31.8458 91.9293C32.0541 92.2851 32.1532 92.6618 32.143 93.0593C32.1387 93.4533 32.042 93.8232 31.8527 94.1689C31.6659 94.5054 31.3975 94.776 31.0475 94.9808Z" fill="#E4EAEE"/>
<defs>
<filter id="filter0_d_718_68614" x="13.4113" y="18.5359" width="46.2546" height="46.255" filterUnits="userSpaceOnUse" color-interpolation-filters="sRGB">
<feFlood flood-opacity="0" result="BackgroundImageFix"/>
<feColorMatrix in="SourceAlpha" type="matrix" values="0 0 0 0 0 0 0 0 0 0 0 0 0 0 0 0 0 0 127 0" result="hardAlpha"/>
<feOffset dy="2.80333"/>
<feGaussianBlur stdDeviation="3.15375"/>
<feColorMatrix type="matrix" values="0 0 0 0 0.0705882 0 0 0 0 0.862745 0 0 0 0 0.952941 0 0 0 0.2 0"/>
<feBlend mode="normal" in2="BackgroundImageFix" result="effect1_dropShadow_718_68614"/>
<feBlend mode="normal" in="SourceGraphic" in2="effect1_dropShadow_718_68614" result="shape"/>
</filter>
<linearGradient id="paint0_linear_718_68614" x1="53.3587" y1="22.04" x2="19.7188" y2="55.68" gradientUnits="userSpaceOnUse">
<stop stop-color="#00E5FF"/>
<stop offset="1" stop-color="#2FCCDE"/>
</linearGradient>
</defs>
</svg>
