<svg width="20" height="20" viewBox="0 0 20 20" fill="none" xmlns="http://www.w3.org/2000/svg">
<path d="M8.74985 6.45964C8.74985 3.81327 10.8952 1.66797 13.5415 1.66797C14.3298 1.66797 15.0753 1.85879 15.7326 2.1973C15.9101 2.28868 16.0332 2.45931 16.064 2.65651C16.0948 2.85371 16.0296 3.05376 15.8884 3.19489L13.5836 5.49971L14.4675 6.38359L16.783 4.06813C16.9231 3.92794 17.1215 3.86258 17.3176 3.89199C17.5137 3.92139 17.6841 4.04208 17.777 4.21722C18.1322 4.88694 18.3332 5.65074 18.3332 6.45964C18.3332 9.106 16.1879 11.2513 13.5415 11.2513C13.1577 11.2513 12.7838 11.2061 12.4251 11.1204L6.28769 17.4695C5.35285 18.4365 3.82653 18.5081 2.80529 17.6328C1.69386 16.6801 1.61451 14.988 2.63192 13.9355L8.86133 7.49132C8.78827 7.15858 8.74985 6.81329 8.74985 6.45964ZM13.5415 2.91797C11.5855 2.91797 9.99985 4.50363 9.99985 6.45964C9.99985 6.8196 10.0534 7.16594 10.1524 7.49173C10.2184 7.70888 10.1616 7.94476 10.0038 8.10794L3.53065 14.8043C3.01349 15.3393 3.05382 16.1994 3.61878 16.6837C4.1379 17.1286 4.91376 17.0923 5.38895 16.6007L11.786 9.98308C11.9527 9.81063 12.2033 9.74879 12.4311 9.82392C12.7796 9.93885 13.1526 10.0013 13.5415 10.0013C15.4975 10.0013 17.0832 8.41564 17.0832 6.45964C17.0832 6.17452 17.0496 5.89766 16.9862 5.6326L14.9094 7.70941C14.6654 7.95349 14.2696 7.95349 14.0256 7.70941L12.2578 5.94165C12.0137 5.69757 12.0137 5.30184 12.2578 5.05776L14.3134 3.00218C14.0652 2.94706 13.8069 2.91797 13.5415 2.91797Z" fill="#A1B3C4"/>
</svg>
