<?xml version="1.0" standalone="no"?>
<!DOCTYPE svg PUBLIC "-//W3C//DTD SVG 1.1//EN" "http://www.w3.org/Graphics/SVG/1.1/DTD/svg11.dtd" >
<svg xmlns="http://www.w3.org/2000/svg">
<metadata>Generated by IcoMoon</metadata>
<defs>
<font id="icomoon" horiz-adv-x="1024">
<font-face units-per-em="1024" ascent="960" descent="-64" />
<missing-glyph horiz-adv-x="1024" />
<glyph unicode="&#x20;" horiz-adv-x="512" d="" />
<glyph unicode="&#xe900;" glyph-name="document-bullet-list-clock" horiz-adv-x="1075" d="M546.232 618.669v256h-255.999c-47.128 0-85.334-38.205-85.334-85.333v-682.665c0-47.13 38.205-85.335 85.334-85.335h290.544c-33.684 35.103-58.225 79.043-69.789 128h-18.088c-17.673 0-32 14.326-32 32s14.327 32 32 32h10.667c0 22.026 2.568 43.453 7.421 64h-18.088c-17.673 0-32 14.326-32 32s14.327 32 32 32h41.91c12.252 23.511 27.776 45.046 45.967 64h-87.877c-17.673 0-32 14.326-32 32s14.327 32.001 32 32.001h181.148c32.886 13.743 68.982 21.333 106.854 21.333 37.796 0 73.83-7.562 106.665-21.255v63.922h-256c-47.13 0-85.335 38.205-85.335 85.333zM332.9 437.335c0 17.674 14.327 32.001 32 32.001s32-14.327 32-32.001c0-17.674-14.327-32-32-32s-32 14.326-32 32zM332.9 309.335c0 17.674 14.327 32 32 32s32-14.326 32-32c0-17.674-14.327-32-32-32s-32 14.326-32 32zM332.9 181.335c0 17.674 14.327 32 32 32s32-14.326 32-32c0-17.674-14.327-32-32-32s-32 14.326-32 32zM610.232 618.669v234.667l256-256h-234.665c-11.781 0-21.335 9.551-21.335 21.333zM1015.567 213.335c0 129.603-105.062 234.667-234.665 234.667-129.608 0-234.67-105.064-234.67-234.667s105.062-234.665 234.67-234.665c129.603 0 234.665 105.062 234.665 234.665zM768.978 195.523c-5.77 3.82-9.58 10.368-9.58 17.812 0 1.029 0.072 2.038 0.215 3.026l-0.046 167.67c0 11.786 9.549 21.335 21.335 21.335 11.781 0 21.33-9.549 21.33-21.335l0.041-149.366h106.481c11.771 0 21.315-9.549 21.315-21.33s-9.544-21.335-21.315-21.335h-125.266c-0.835-0.097-1.679-0.148-2.54-0.148-4.439 0-8.556 1.352-11.971 3.671z" />
<glyph unicode="&#xe901;" glyph-name="key" d="M381.866 593.064c0 154.207 125.26 279.467 279.469 279.467 153.472 0 279.465-120.271 279.465-275.2 0-154.206-125.261-279.466-279.465-279.466-22.63 0-44.979 3.241-66.171 8.694-1.039-28.539-24.504-51.359-53.299-51.359h-74.665v-74.67c0-29.455-23.878-53.33-53.334-53.33h-74.666v-53.335c0-41.236-33.43-74.665-74.666-74.665h-106.667c-41.237 0-74.666 33.428-74.666 74.665v92.652c0 31.119 12.362 60.964 34.366 82.97l266.060 266.059c2.324 2.324 3.713 6.085 2.954 10.415-2.572 14.662-4.713 30.584-4.713 47.105zM778.67 661.331c0 29.455-23.88 53.333-53.335 53.333s-53.335-23.878-53.335-53.333c0-29.455 23.88-53.334 53.335-53.334s53.335 23.878 53.335 53.334z" />
<glyph unicode="&#xe902;" glyph-name="person" horiz-adv-x="1075" d="M800.195 362.67c52.992 0 95.949-42.962 95.949-95.954v-39.188c0-24.463-7.644-48.312-21.868-68.219-65.956-92.298-173.66-138.020-319.596-138.020-145.959 0-253.606 45.742-319.405 138.086-14.164 19.881-21.776 43.684-21.776 68.091v39.25c0 52.992 42.959 95.954 95.952 95.954h490.742zM554.68 874.469c117.821 0 213.335-95.513 213.335-213.334s-95.514-213.335-213.335-213.335c-117.819 0-213.331 95.514-213.331 213.335s95.513 213.334 213.331 213.334z" />
<glyph unicode="&#xe903;" glyph-name="arrow-down" d="M260.27 618.667c-45.821 0-70.311-53.969-40.137-88.453l235.599-269.256c29.748-33.998 82.637-33.998 112.385 0l235.598 269.255c30.174 34.485 5.685 88.454-40.137 88.454h-503.306z" />
<glyph unicode="&#xe904;" glyph-name="shape" horiz-adv-x="1073" d="M536.361 960.048c269.346 0 487.692-218.348 487.692-487.696 0-269.346-218.346-487.692-487.692-487.692s-487.695 218.346-487.695 487.692c0 269.348 218.348 487.696 487.695 487.696zM536.361 886.905c-228.951 0-414.552-185.601-414.552-414.553s185.601-414.549 414.552-414.549c228.952 0 414.549 185.598 414.549 414.549s-185.598 414.553-414.549 414.553zM536.186 545.543c18.515 0.012 33.821-13.736 36.254-31.585l0.336-4.962 0.176-268.268c0.015-20.197-16.35-36.581-36.547-36.596-18.515-0.010-33.821 13.736-36.254 31.583l-0.341 4.964-0.176 268.268c-0.010 20.198 16.35 36.582 36.552 36.595zM536.381 716.101c26.897 0 48.699-21.802 48.699-48.697s-21.801-48.697-48.699-48.697c-26.892 0-48.694 21.802-48.694 48.697s21.801 48.697 48.694 48.697z" />
<glyph unicode="&#xe905;" glyph-name="settings" d="M512.563 864c31.313-0.361 62.507-3.979 93.077-10.796 13.342-2.976 23.322-14.1 24.836-27.687l7.262-65.146c3.285-29.911 28.54-52.567 58.65-52.598 8.094-0.013 16.098 1.673 23.578 4.981l59.759 26.252c12.429 5.46 26.948 2.483 36.228-7.427 43.187-46.124 75.349-101.441 94.071-161.79 4.036-13.013-0.61-27.155-11.58-35.239l-52.966-39.044c-15.113-11.102-24.034-28.732-24.034-47.484 0-18.748 8.922-36.378 24.064-47.505l53.018-39.057c10.97-8.081 15.62-22.225 11.584-35.243-18.714-60.339-50.859-115.652-94.020-161.783-9.271-9.907-23.782-12.894-36.207-7.445l-60.006 26.287c-17.165 7.514-36.881 6.413-53.103-2.965-16.222-9.374-27.021-25.907-29.082-44.531l-7.211-65.139c-1.489-13.431-11.255-24.482-24.401-27.61-61.798-14.703-126.187-14.703-187.989 0-13.147 3.127-22.912 14.178-24.399 27.61l-7.203 65.041c-2.116 18.59-12.929 35.072-29.139 44.416s-35.892 10.441-53.001 2.97l-60.016-26.291c-12.431-5.449-26.946-2.462-36.215 7.454-43.185 46.182-75.332 101.564-94.019 161.967-4.025 13.009 0.625 27.145 11.59 35.221l53.049 39.083c15.11 11.102 24.034 28.732 24.034 47.479 0 18.752-8.924 36.382-24.054 47.497l-53.015 39.017c-10.981 8.081-15.636 22.232-11.597 35.254 18.72 60.349 50.883 115.667 94.070 161.79 9.279 9.91 23.8 12.887 36.229 7.427l59.75-26.247c17.192-7.545 36.957-6.406 53.254 3.116 16.227 9.412 27.030 25.961 29.115 44.589l7.257 65.096c1.516 13.594 11.504 24.722 24.856 27.692 30.606 6.806 61.829 10.423 93.927 10.792zM512.030 576.002c-70.694 0-128.001-57.308-128.001-128.002 0-70.69 57.307-128 128.001-128 70.69 0 128 57.31 128 128 0 70.694-57.31 128.002-128 128.002z" />
<glyph unicode="&#xe906;" glyph-name="peopl-team" d="M629.504 533.333c41.237 0 74.667-33.429 74.667-74.667v-202.624c0-106.061-85.982-192.043-192.043-192.043-106.064 0-192.046 85.982-192.046 192.043v202.624c0 41.237 33.429 74.667 74.667 74.667h234.755zM304.268 533.373c-14.91-18.037-24.53-40.608-26.484-65.337l-0.369-9.37v-202.624c0-36.122 8.16-70.34 22.739-100.907-14.042-3.797-28.838-5.803-44.102-5.803-94.286 0-170.72 76.433-170.72 170.718v138.615c0 39.177 30.17 71.305 68.543 74.419l6.124 0.247 144.268 0.040zM719.987 533.373l144.013-0.040c41.237 0 74.667-33.429 74.667-74.667v-138.667c0-94.255-76.412-170.667-170.667-170.667-15.206 0-29.952 1.988-43.985 5.722 12.826 26.79 20.681 56.35 22.443 87.531l0.38 13.457v202.624c0 28.386-10.078 54.413-26.85 74.707zM512 832c70.694 0 128-57.308 128-128s-57.306-128-128-128c-70.694 0-128 57.308-128 128s57.306 128 128 128zM789.333 789.333c58.91 0 106.667-47.756 106.667-106.667s-47.757-106.667-106.667-106.667c-58.91 0-106.667 47.756-106.667 106.667s47.757 106.667 106.667 106.667zM234.667 789.333c58.91 0 106.667-47.756 106.667-106.667s-47.756-106.667-106.667-106.667c-58.91 0-106.667 47.756-106.667 106.667s47.756 106.667 106.667 106.667z" />
<glyph unicode="&#xe907;" glyph-name="database-lightning" d="M512.034 550.399c169.66 0 307.2 68.769 307.2 153.6s-137.54 153.6-307.2 153.6c-169.663 0-307.201-68.769-307.201-153.6s137.538-153.6 307.201-153.6zM752.154 549.593c24.034 12.018 47.484 27.311 67.081 45.847v-96.24h-98.052c-31.006 0-58.97-18.645-70.895-47.262l-106.667-256c-21.077-50.59 16.090-106.338 70.895-106.338h24.021l-9.937-39.757c-35.947-7.377-75.307-11.443-116.565-11.443-169.663 0-307.201 68.766-307.201 153.6v403.44c19.596-18.537 43.044-33.83 67.080-45.847 64.097-32.050 149.065-50.393 240.121-50.393s176.021 18.342 240.119 50.393zM671.373 140.8c16.653 0 28.873-15.654 24.836-31.808l-22.246-88.986c-6.187-24.738 23.659-42.325 42.304-24.922l249.472 232.841c25.481 23.782 8.653 66.475-26.202 66.475h-20.659c-17.472 0-29.811 17.118-24.286 33.694l28.736 86.208c5.525 16.58-6.814 33.698-24.286 33.698h-177.818c-10.334 0-19.652-6.217-23.629-15.757l-106.667-256c-7.027-16.862 5.363-35.443 23.629-35.443h56.815z" />
<glyph unicode="&#xe908;" glyph-name="data" d="M778.667 832.167c64.802 0 117.333-52.532 117.333-117.333v-533.334c0-64.802-52.531-117.333-117.333-117.333h-533.333c-64.801 0-117.333 52.531-117.333 117.333v533.334c0 64.801 52.532 117.333 117.333 117.333h533.333zM330.667 576.026c-17.673 0-32-14.265-32-31.863v-277.607c0-17.6 14.327-31.863 32-31.863s32 14.263 32 31.863v277.607c0 17.597-14.327 31.863-32 31.863zM693.333 661.359c-17.673 0-32-13.934-32-31.121v-364.424c0-17.186 14.327-31.121 32-31.121s32 13.935 32 31.121v364.424c0 17.188-14.327 31.121-32 31.121zM510.938 448.166c-17.254-0.171-31.108-14.182-30.938-31.296l1.51-151.356c0.171-17.114 14.298-30.852 31.552-30.686 17.254 0.175 31.108 14.187 30.938 31.3l-1.51 151.351c-0.171 17.114-14.298 30.852-31.552 30.686z" />
<glyph unicode="&#xe909;" glyph-name="data-area" d="M128 800c0 17.673 14.327 32 32 32s32-14.327 32-32v-672h672c17.673 0 32-14.327 32-32s-14.327-32-32-32h-704c-17.673 0-32 14.327-32 32v704zM832 672c0 12.121-6.848 23.201-17.69 28.622s-23.812 4.251-33.51-3.022l-238.946-179.213-162.961 95.861c-9.345 5.497-20.838 5.888-30.536 1.040l-113.69-56.845v-387.777h597.333v501.333z" />
<glyph unicode="&#xe90a;" glyph-name="home" d="M450.099 851.918c35.755 30.165 88.047 30.165 123.802 0l288-242.967c21.623-18.24 34.099-45.088 34.099-73.376v-418.258c0-41.237-33.429-74.667-74.667-74.667h-128c-41.237 0-74.667 33.429-74.667 74.667v213.333c0 17.673-14.327 32-32 32h-149.333c-17.673 0-32-14.327-32-32v-213.333c0-41.237-33.429-74.667-74.667-74.667h-128c-41.237 0-74.667 33.429-74.667 74.667v418.258c0 28.288 12.476 55.136 34.097 73.376l288.002 242.967z" />
<glyph unicode="&#xe90b;" glyph-name="edit" d="M901.071 837.111c-60.746 60.746-159.233 60.742-219.974-0.006l-519.427-519.488c-17.661-17.661-30.075-39.882-35.862-64.183l-47.621-200.007c-2.622-11.011 0.657-22.596 8.662-30.602s19.59-11.283 30.602-8.663l200.001 47.622c24.306 5.784 46.53 18.204 64.196 35.875l519.432 519.491c60.735 60.744 60.73 159.223-0.010 219.963zM727.201 791.004c35.281 35.284 92.485 35.286 127.771 0.004 35.276-35.279 35.281-92.478 0-127.759l-38.744-38.748-127.76 127.762 38.734 38.741zM642.368 706.157l127.76-127.763-434.586-434.638c-9.134-9.133-20.626-15.554-33.193-18.548l-148.466-35.349 35.352 148.473c2.991 12.565 9.409 24.051 18.54 33.184l434.593 434.64z" />
<glyph unicode="&#xe90c;" glyph-name="cloud" horiz-adv-x="1396" d="M398.699 625.176c17.307 172.978 136.302 316.21 346.065 316.21s328.658-142.096 346.066-316.21h5.288c135 0 244.429-112.598 244.429-251.495s-109.428-251.494-244.429-251.494h-279.52c1.739 12.161 2.639 24.594 2.639 37.236 0 143.956-116.699 260.655-260.655 260.655h-297.891c-39.623 0-77.181-8.841-110.809-24.658 10.71 128.719 115.65 229.757 243.523 229.757h5.294zM558.582 345.605c102.825 0 186.182-83.356 186.182-186.182s-83.356-186.186-186.182-186.186h-37.236c-20.565 0-37.236 16.673-37.236 37.236 0 20.569 16.672 37.241 37.236 37.241h37.236c61.695 0 111.709 50.014 111.709 111.709s-50.014 111.709-111.709 111.709h-37.236c-20.565 0-37.236 16.671-37.236 37.236s16.672 37.236 37.236 37.236h37.236zM297.927 345.605c20.566 0 37.236-16.672 37.236-37.236s-16.671-37.236-37.236-37.236h-37.236c-61.695 0-111.709-50.014-111.709-111.709s50.014-111.709 111.709-111.709h37.236c20.566 0 37.236-16.672 37.236-37.241 0-20.564-16.671-37.236-37.236-37.236h-37.236c-102.825 0-186.182 83.361-186.182 186.186s83.356 186.182 186.182 186.182h37.236zM558.582 196.659c20.565 0 37.236-16.672 37.236-37.236s-16.672-37.236-37.236-37.236h-297.891c-20.565 0-37.236 16.671-37.236 37.236s16.672 37.236 37.236 37.236h297.891z" />
<glyph unicode="&#xe90d;" glyph-name="chevron-left" d="M670.17 776.837c16.661-16.663 16.661-43.677 0-60.34l-268.497-268.497 268.497-268.497c16.661-16.661 16.661-43.678 0-60.339s-43.678-16.661-60.339 0l-298.667 298.667c-16.662 16.661-16.662 43.678 0 60.339l298.667 298.667c16.661 16.662 43.678 16.662 60.339 0z" />
<glyph unicode="&#xe90e;" glyph-name="dismiss-circle" d="M512 874.667c235.639 0 426.667-191.025 426.667-426.667 0-235.639-191.027-426.667-426.667-426.667-235.642 0-426.667 191.027-426.667 426.667 0 235.642 191.025 426.667 426.667 426.667zM512 810.667c-200.295 0-362.667-162.371-362.667-362.667s162.371-362.667 362.667-362.667c200.294 0 362.667 162.372 362.667 362.667s-162.372 362.667-362.667 362.667zM659.038 601.726l3.588-3.098c11.362-11.361 12.395-29.138 3.098-41.666l-3.098-3.589-105.357-105.373 105.357-105.374c11.362-11.358 12.395-29.137 3.098-41.664l-3.098-3.588c-11.358-11.362-29.137-12.395-41.664-3.098l-3.588 3.098-105.374 105.357-105.373-105.357c-11.361-11.362-29.138-12.395-41.666-3.098l-3.589 3.098c-11.361 11.358-12.393 29.137-3.098 41.664l3.098 3.588 105.358 105.374-105.358 105.373c-11.361 11.361-12.393 29.138-3.098 41.666l3.098 3.589c11.361 11.361 29.138 12.393 41.666 3.098l3.589-3.098 105.373-105.358 105.374 105.358c11.358 11.361 29.137 12.393 41.664 3.098z" />
<glyph unicode="&#xe90f;" glyph-name="arrow-download" d="M224 85.33h575.903c17.669 0 32-14.326 32-32 0-16.2-12.042-29.588-27.658-31.708l-4.342-0.292h-575.903c-17.673 0-32 14.326-32 32 0 16.2 12.039 29.588 27.658 31.708l4.342 0.292zM507.024 874.563l4.976 0.287c21.883 0 39.916-16.471 42.378-37.691l0.287-4.976v-537.174l140.549 140.493c15.38 15.379 39.583 16.56 56.32 3.543l4.019-3.548c15.38-15.386 16.558-39.588 3.543-56.32l-3.548-4.019-213.233-213.192c-15.375-15.37-39.561-16.558-56.298-3.564l-4.020 3.548-213.48 213.187c-16.674 16.65-16.692 43.668-0.041 60.339 15.37 15.393 39.571 16.592 56.317 3.589l4.022-3.548 140.517-140.293v536.959c0 21.881 16.471 39.915 37.691 42.38v0z" />
<glyph unicode="&#xe910;" glyph-name="spark" horiz-adv-x="910" d="M468.935 948.414c16.385 21.903 51.221 10.315 51.221-17.038v-328.514c0-15.709 12.735-28.444 28.444-28.444h304.852c23.421 0 36.807-26.726 22.773-45.483l-434.88-581.352c-16.385-21.902-51.222-10.314-51.222 17.038v328.511c0 15.713-12.735 28.444-28.444 28.444h-304.85c-23.423 0-36.807 26.726-22.777 45.483l434.883 581.355z" />
<glyph unicode="&#xe911;" glyph-name="add-circle" horiz-adv-x="1075" d="M537.6 960c282.767 0 512-229.23 512-512 0-282.767-229.233-512-512-512-282.77 0-512 229.233-512 512 0 282.77 229.23 512 512 512zM537.6 704c-19.441 0-35.507-14.446-38.049-33.189l-0.351-5.211v-179.2h-179.2c-21.208 0-38.4-17.192-38.4-38.4 0-19.441 14.446-35.507 33.189-38.052l5.211-0.348h179.2v-179.2c0-21.207 17.193-38.4 38.4-38.4 19.441 0 35.507 14.449 38.052 33.188l0.348 5.212v179.2h179.2c21.207 0 38.4 17.193 38.4 38.4 0 19.441-14.449 35.507-33.188 38.049l-5.212 0.351h-179.2v179.2c0 21.208-17.193 38.4-38.4 38.4z" />
<glyph unicode="&#xe912;" glyph-name="dismiss" d="M341.333 886.856c26.931 0 48.762-21.831 48.762-48.762 0-25.007-18.824-45.617-43.076-48.434l-5.686-0.328h-97.524c-80.791 0-146.286-65.494-146.286-146.286 0-77.906 60.9-141.588 137.691-146.037l8.595-0.249h97.524c26.931 0 48.762-21.831 48.762-48.762 0-25.007-18.824-45.617-43.076-48.434l-5.686-0.328h-97.524c-134.652 0-243.809 109.157-243.809 243.809 0 131.109 103.488 238.047 233.234 243.585l10.576 0.225h97.524zM731.429 886.856c134.651 0 243.809-109.157 243.809-243.809 0-40.865-10.054-79.383-27.824-113.212-25.8 19.608-54.696 35.353-85.831 46.371 10.313 20.035 16.131 42.759 16.131 66.842 0 77.906-60.899 141.588-137.689 146.037l-8.597 0.249h-97.524c-26.931 0-48.762 21.831-48.762 48.762 0 25.007 18.822 45.617 43.077 48.434l5.685 0.328h97.524zM243.81 691.808h487.619c26.931 0 48.762-21.831 48.762-48.762 0-25.007-18.822-45.617-43.077-48.434l-5.685-0.328h-487.619c-26.931 0-48.762 21.831-48.762 48.762 0 25.007 18.824 45.617 43.076 48.434l5.686 0.328zM1024 277.333c0-148.119-120.071-268.19-268.19-268.19s-268.19 120.071-268.19 268.19c0 148.118 120.071 268.19 268.19 268.19s268.19-120.073 268.19-268.19zM675.528 392.099c-9.523 9.519-24.961 9.519-34.485 0-9.519-9.523-9.519-24.961 0-34.485l80.287-80.282-80.287-80.282c-9.519-9.523-9.519-24.961 0-34.485 9.523-9.519 24.961-9.519 34.485 0l80.282 80.287 80.282-80.287c9.523-9.519 24.961-9.519 34.485 0 9.519 9.523 9.519 24.961 0 34.485l-80.287 80.282 80.287 80.282c9.519 9.523 9.519 24.961 0 34.485-9.523 9.519-24.961 9.519-34.485 0l-80.282-80.287-80.282 80.287z" />
<glyph unicode="&#xe913;" glyph-name="connect" d="M358.4 704c28.277 0 51.2-22.923 51.2-51.2 0-26.257-19.765-47.898-45.229-50.856l-5.971-0.344h-102.4c-84.831 0-153.6-68.769-153.6-153.6 0-81.801 63.945-148.668 144.575-153.34l9.025-0.26h102.4c28.277 0 51.2-22.924 51.2-51.2 0-26.257-19.765-47.898-45.229-50.856l-5.971-0.345h-102.4c-141.385 0-256 114.616-256 256 0 137.664 108.662 249.949 244.895 255.763l11.105 0.237h102.4zM768 704c141.383 0 256-114.615 256-256 0-137.664-108.662-249.949-244.894-255.764l-11.106-0.236h-102.4c-28.278 0-51.2 22.923-51.2 51.2 0 26.257 19.763 47.898 45.23 50.855l5.97 0.345h102.4c84.833 0 153.6 68.769 153.6 153.6 0 81.801-63.943 148.668-144.573 153.339l-9.026 0.26h-102.4c-28.278 0-51.2 22.924-51.2 51.2 0 26.257 19.763 47.898 45.23 50.856l5.97 0.345h102.4zM256 499.2h512c28.278 0 51.2-22.923 51.2-51.2 0-26.257-19.763-47.898-45.23-50.856l-5.97-0.345h-512c-28.276 0-51.2 22.924-51.2 51.2 0 26.257 19.765 47.898 45.229 50.856l5.971 0.345z" />
<glyph unicode="&#xe914;" glyph-name="eye" d="M512.001 575.803c94.257 0 170.668-76.41 170.668-170.667s-76.412-170.666-170.668-170.666c-94.257 0-170.667 76.41-170.667 170.666s76.41 170.667 170.667 170.667zM512.001 725.334c196.844 0 366.764-134.401 413.913-322.748 4.294-17.144-6.125-34.521-23.27-38.813s-34.522 6.127-38.81 23.272c-40.064 160.029-184.518 274.289-351.833 274.289-167.384 0-311.889-114.358-351.878-274.481-4.282-17.147-21.653-27.575-38.8-23.293s-27.575 21.653-23.293 38.8c47.065 188.458 217.043 322.974 413.971 322.974z" />
<glyph unicode="&#xe915;" glyph-name="image-add" d="M800 789.333c76.582 0 138.667-62.083 138.667-138.667v-490.667c0-76.582-62.084-138.667-138.667-138.667h-490.667c-76.584 0-138.667 62.084-138.667 138.667v266.586c20.235-8.435 41.68-14.545 64.004-17.993l-0.004-248.593c0-8.892 1.554-17.421 4.406-25.331l248.428 243.23c35.546 34.803 91.379 36.459 128.853 4.966l5.478-4.971 248.414-243.268c2.859 7.923 4.42 16.465 4.42 25.374v490.667c0 41.237-33.429 74.667-74.667 74.667l-248.593-0.004c-3.447 22.324-9.557 43.769-17.993 64.004h266.586zM535.842 335.189l-3.567-3.021-247.755-242.615c7.763-2.731 16.114-4.22 24.813-4.22h490.667c8.683 0 17.020 1.481 24.768 4.207l-247.714 242.628c-11.311 11.072-28.783 12.083-41.212 3.021zM693.423 640c53.069 0 96.090-43.021 96.090-96.090 0-53.068-43.021-96.089-96.090-96.089s-96.090 43.021-96.090 96.089c0 53.069 43.021 96.090 96.090 96.090zM277.333 917.333c129.603 0 234.667-105.064 234.667-234.667s-105.064-234.667-234.667-234.667c-129.603 0-234.667 105.064-234.667 234.667s105.064 234.667 234.667 234.667zM693.423 576c-17.724 0-32.090-14.367-32.090-32.090s14.366-32.089 32.090-32.089c17.724 0 32.090 14.366 32.090 32.089s-14.366 32.090-32.090 32.090zM277.333 832.033l-3.835-0.344c-8.708-1.58-15.574-8.447-17.155-17.155l-0.344-3.834-0.015-106.667-106.752-0.033-3.835-0.344c-8.708-1.58-15.574-8.447-17.155-17.155l-0.344-3.835 0.344-3.835c1.58-8.708 8.447-15.574 17.155-17.155l3.835-0.344 106.795 0.033 0.020-106.848 0.343-3.835c1.581-8.708 8.447-15.575 17.155-17.155l3.835-0.344 3.834 0.344c8.708 1.58 15.575 8.447 17.155 17.155l0.344 3.835-0.020 106.848 106.834-0.033 3.834 0.344c8.708 1.58 15.575 8.447 17.155 17.155l0.345 3.835-0.345 3.835c-1.58 8.708-8.447 15.574-17.155 17.155l-3.834 0.344-106.877 0.033 0.015 106.667-0.344 3.834c-1.58 8.708-8.447 15.575-17.155 17.155l-3.835 0.344z" />
<glyph unicode="&#xe916;" glyph-name="edit-fill" d="M678.088 829.937c59.622 59.631 156.298 59.634 215.926 0.007 59.622-59.623 59.622-156.289 0.005-215.916l-38.052-38.057-215.921 215.922 38.042 38.044zM594.796 746.635l-426.578-426.625c-17.336-17.341-29.522-39.148-35.201-63.002l-46.745-196.326c-2.574-10.813 0.645-22.185 8.502-30.039 7.858-7.859 19.229-11.080 30.039-8.504l196.32 46.746c23.859 5.678 45.674 17.869 63.015 35.215l426.568 426.614-215.921 215.921z" />
<glyph unicode="&#xe917;" glyph-name="delete" d="M426.667 746.667h170.667c0 47.128-38.204 85.333-85.333 85.333s-85.333-38.205-85.333-85.333zM362.667 746.667c0 82.475 66.859 149.333 149.333 149.333s149.333-66.859 149.333-149.333h245.333c17.673 0 32-14.327 32-32s-14.327-32-32-32h-56.282l-50.005-516.745c-7.936-82.014-76.86-144.589-159.258-144.589h-258.245c-82.396 0-151.319 62.575-159.256 144.589l-50.007 516.745h-56.281c-17.673 0-32 14.327-32 32s14.327 32 32 32h245.333zM448 544c0 17.673-14.327 32-32 32s-32-14.327-32-32v-320c0-17.673 14.327-32 32-32s32 14.327 32 32v320zM608 576c-17.673 0-32-14.327-32-32v-320c0-17.673 14.327-32 32-32s32 14.327 32 32v320c0 17.673-14.327 32-32 32z" />
<glyph unicode="&#xe918;" glyph-name="person-add" d="M469.184 213.333c0 54.993 16.004 106.249 43.614 149.363l-331.512-0.026c-52.993 0-95.952-42.961-95.952-95.953v-39.253c0-24.41 7.612-48.209 21.776-68.087 65.799-92.343 173.445-138.091 319.407-138.091 39.737 0 76.64 3.392 110.581 10.223-42.304 48.683-67.913 112.265-67.913 181.824zM639.851 661.135c0 117.821-95.514 213.333-213.335 213.333s-213.333-95.512-213.333-213.333c0-117.821 95.512-213.332 213.333-213.332s213.335 95.511 213.335 213.332zM981.184 213.333c0 129.604-105.067 234.667-234.667 234.667-129.604 0-234.667-105.062-234.667-234.667s105.062-234.667 234.667-234.667c129.6 0 234.667 105.062 234.667 234.667zM742.682 362.325l3.836 0.341 3.831-0.341c8.708-1.583 15.578-8.448 17.156-17.156l0.346-3.836-0.043-106.667h106.876l3.831-0.346c8.708-1.579 15.578-8.444 17.156-17.152l0.346-3.836-0.346-3.836c-1.579-8.708-8.448-15.573-17.156-17.152l-3.831-0.346h-106.876l0.043-106.667-0.346-3.836c-1.579-8.708-8.448-15.573-17.156-17.152l-3.831-0.346-3.836 0.346c-8.708 1.579-15.573 8.444-17.156 17.152l-0.341 3.836-0.043 106.667h-106.458l-3.836 0.346c-8.708 1.579-15.573 8.444-17.156 17.152l-0.341 3.836 0.341 3.836c1.583 8.708 8.448 15.573 17.156 17.152l3.836 0.346h106.458l0.043 106.667 0.341 3.836c1.583 8.708 8.448 15.573 17.156 17.156z" />
<glyph unicode="&#xe919;" glyph-name="cloud-link" d="M749.921 537.805c-11.899 118.922-93.711 217.395-237.921 217.395-144.212 0-225.952-97.691-237.919-217.395h-3.639c-92.808 0-168.042-77.411-168.042-172.903s75.234-172.902 168.041-172.902h192.174c-1.196 8.361-1.815 16.906-1.815 25.6 0 98.97 80.23 179.2 179.2 179.2h204.8c27.238 0 53.064-6.077 76.18-16.952-7.363 88.495-79.508 157.958-167.424 157.958h-3.635zM640 345.6c-70.692 0-128-57.308-128-128s57.308-128 128-128h25.6c14.136 0 25.6 11.464 25.6 25.6s-11.464 25.6-25.6 25.6h-25.6c-42.414 0-76.8 34.386-76.8 76.8s34.386 76.8 76.8 76.8h25.6c14.136 0 25.6 11.464 25.6 25.6s-11.464 25.6-25.6 25.6h-25.6zM819.2 345.6c-14.136 0-25.6-11.464-25.6-25.6s11.464-25.6 25.6-25.6h25.6c42.414 0 76.8-34.386 76.8-76.8s-34.386-76.8-76.8-76.8h-25.6c-14.136 0-25.6-11.464-25.6-25.6s11.464-25.6 25.6-25.6h25.6c70.692 0 128 57.308 128 128s-57.308 128-128 128h-25.6zM640 243.2c-14.136 0-25.6-11.464-25.6-25.6s11.464-25.6 25.6-25.6h204.8c14.136 0 25.6 11.464 25.6 25.6s-11.464 25.6-25.6 25.6h-204.8z" />
<glyph unicode="&#xe91a;" glyph-name="calendar-data-bar" d="M896 597.334v-194.134c-15.764-3.2-30.264-9.876-42.665-19.19-0.005 58.906-47.759 106.656-106.67 106.656s-106.665-47.756-106.665-106.666v-85.325c-17.828 13.389-39.987 21.325-64 21.325-58.911 0-106.666-47.754-106.666-106.665v-149.335h-202.667c-76.583 0-138.666 62.085-138.666 138.665v394.669h768zM757.335 832c76.58 0 138.665-62.083 138.665-138.666v-32h-768v32c0 76.583 62.083 138.666 138.666 138.666h490.669zM746.665 448c-35.343 0-64-28.652-64-64v-341.335c0-35.343 28.657-64 64-64 35.348 0 64 28.657 64 64v341.335c0 35.348-28.652 64-64 64zM576 277.335c-35.348 0-64-28.657-64-64v-170.67c0-35.343 28.652-64 64-64s64 28.657 64 64v170.67c0 35.343-28.652 64-64 64zM853.335 298.665c0 35.348 28.652 64 64 64 35.343 0 64-28.652 64-64v-256c0-35.343-28.657-64-64-64-35.348 0-64 28.657-64 64v256z" />
<glyph unicode="&#xe91b;" glyph-name="sign-out" d="M511.967 774.217v-262.221l0.023-21.545 317.501 0.041-73.487 73.546c-11.361 11.363-12.39 29.14-3.092 41.667l3.098 3.588c11.361 11.359 29.143 12.389 41.667 3.091l3.589-3.099 127.857-127.9c11.346-11.352 12.385-29.11 3.113-41.634l-3.092-3.589-127.857-128.148c-12.483-12.513-32.742-12.534-45.256-0.051-11.372 11.346-12.426 29.123-3.144 41.661l3.092 3.594 73.088 73.272-317.076-0.041-0.023-287.79c0-19.896-17.97-34.97-37.566-31.508l-362.666 64.051c-15.289 2.703-26.434 15.99-26.434 31.514v511.946c0 15.671 11.35 29.038 26.814 31.577l362.666 59.555c19.482 3.199 37.186-11.834 37.186-31.577zM362.725 469.328c-23.614 0-42.758-19.144-42.758-42.761 0-23.613 19.144-42.757 42.758-42.757s42.759 19.144 42.759 42.757c0 23.617-19.144 42.761-42.759 42.761zM554.634 170.609l32.645-0.010 4.347 0.292c15.636 2.125 27.679 15.544 27.653 31.764l-0.307 181.34h-64.338v-213.386zM554.716 533.328l-0.082 54.386v158.948h31.795c16.184 0 29.563-12.012 31.703-27.61l0.297-4.337 0.287-181.386h-64z" />
<glyph unicode="&#xe91c;" glyph-name="building-retai-more" d="M265.447 832c-22.225 0-43.295-9.901-57.48-27.010l-152.79-184.283c-28.821-34.762-4.098-87.374 41.057-87.374h831.657c45.153 0 69.878 52.612 41.057 87.373l-152.786 184.283c-14.188 17.109-35.256 27.010-57.482 27.010h-493.235zM128.050 469.334v-309.334c0-58.911 47.756-106.665 106.666-106.665h554.664c58.911 0 106.67 47.754 106.67 106.665v309.334h-768.001zM384.050 309.335c0-29.455-23.878-53.335-53.334-53.335s-53.334 23.88-53.334 53.335c0 29.455 23.878 53.33 53.334 53.33s53.334-23.875 53.334-53.33zM512.051 256c-29.456 0-53.335 23.88-53.335 53.335s23.878 53.33 53.335 53.33c29.455 0 53.33-23.875 53.33-53.33s-23.875-53.335-53.33-53.335zM746.716 309.335c0-29.455-23.88-53.335-53.335-53.335s-53.33 23.88-53.33 53.335c0 29.455 23.875 53.33 53.33 53.33s53.335-23.875 53.335-53.33z" />
<glyph unicode="&#xe91d;" glyph-name="people-settings" d="M341.3 490.666c94.257 0 170.666 76.41 170.666 170.667s-76.41 170.666-170.666 170.666c-94.257 0-170.667-76.41-170.667-170.666s76.41-170.667 170.667-170.667zM725.299 490.666c70.692 0 128 57.308 128 128s-57.308 128-128 128c-70.692 0-128-57.307-128-128s57.308-128 128-128zM181.3 405.335c-53.020 0-96-42.982-96-96v-10.67c0 0 0-192 256-192 59.3 0 104.864 10.307 139.873 26.138-7.721 25.482-11.873 52.521-11.873 80.532 0 70.692 26.45 135.204 69.994 184.187-11.653 5.028-24.499 7.813-37.994 7.813h-320zM609.126 363.699c13.43-46.52-14.49-94.879-61.491-106.506l-24.924-6.17c-1.915-12.273-2.913-24.868-2.913-37.704 0-13.425 1.091-26.588 3.185-39.398l23.020-5.545c47.462-11.428 75.684-60.283 61.865-107.11l-7.951-26.936c18.739-16.451 40.090-29.814 63.324-39.322l21.048 22.134c33.644 35.384 90.061 35.374 123.694-0.020l21.279-22.39c23.194 9.395 44.524 22.63 63.268 38.953l-8.453 29.261c-13.43 46.52 14.495 94.879 61.491 106.506l24.909 6.164c1.915 12.273 2.913 24.868 2.913 37.704 0 13.43-1.091 26.598-3.185 39.409l-22.999 5.54c-47.468 11.428-75.684 60.283-61.865 107.11l7.946 26.916c-18.739 16.461-40.095 29.824-63.329 39.332l-21.038-22.124c-33.644-35.384-90.061-35.374-123.694 0.020l-21.284 22.395c-23.188-9.395-44.524-22.63-63.263-38.943l8.448-29.276zM746.593 149.32c-34.161 0-61.855 28.657-61.855 64 0 35.348 27.694 64 61.855 64s61.855-28.652 61.855-64c0-35.343-27.694-64-61.855-64z" />
<glyph unicode="&#xe91e;" glyph-name="integration" d="M341.262 714.665c0 88.419 71.678 160.098 160.098 160.098 88.418 0 160.098-71.678 160.098-160.098 0-77.458-55.009-142.069-128.092-156.897v-88.435h138.67c53.018 0 96-42.98 96-95.998v-35.18c73.134-14.792 128.195-79.427 128.195-156.918 0-88.422-71.68-160.102-160.097-160.102-88.422 0-160.097 71.68-160.097 160.102 0 77.425 54.958 142.013 128 156.877v35.22c0 17.669-14.331 32-32 32h-341.336c-17.673 0-32-14.331-32-32v-35.18c73.135-14.792 128.195-79.427 128.195-156.918 0-88.422-71.678-160.102-160.097-160.102s-160.098 71.68-160.098 160.102c0 77.425 54.963 142.013 128 156.877v35.22c0 53.018 42.981 95.998 96 95.998h138.667v88.432c-73.090 14.824-128.104 79.437-128.104 156.9z" />
<glyph unicode="&#xe91f;" glyph-name="wallet" d="M128 746.666v-544.002c0-76.58 62.083-138.665 138.666-138.665h511.998c76.585 0 138.67 62.085 138.67 138.665v362.669c0 65.57-45.512 120.51-106.67 134.956v35.71c0 53.019-42.977 96-96 96h-490.665c-49.414 0-90.108-37.334-95.414-85.334h-0.586zM224 704c-17.673 0-32 14.327-32 32s14.327 32 32 32h490.665c17.674 0 32-14.327 32-32v-32h-522.665zM693.335 405.335h85.33c17.674 0 32-14.331 32-32 0-17.674-14.326-32-32-32h-85.33c-17.674 0-32 14.326-32 32 0 17.669 14.326 32 32 32z" />
<glyph unicode="&#xe920;" glyph-name="checkmark-circle" d="M511.952 874.679c235.641 0 426.668-191.026 426.668-426.667s-191.027-426.669-426.668-426.669c-235.641 0-426.666 191.027-426.666 426.669s191.025 426.667 426.666 426.667zM649.325 577.306l-190.706-190.706-84.039 84.039c-12.497 12.497-32.758 12.497-45.255 0s-12.496-32.758 0-45.255l106.666-106.666c12.497-12.496 32.758-12.496 45.255 0l213.334 213.334c12.496 12.496 12.496 32.758 0 45.255s-32.758 12.496-45.255 0z" />
<glyph unicode="&#xe921;" glyph-name="calendar" d="M896 597.333v-394.667c0-76.582-62.084-138.667-138.667-138.667h-490.667c-76.584 0-138.667 62.084-138.667 138.667v394.667h768zM309.333 320c-29.455 0-53.333-23.876-53.333-53.333s23.878-53.333 53.333-53.333c29.455 0 53.333 23.876 53.333 53.333s-23.878 53.333-53.333 53.333zM512 320c-29.457 0-53.333-23.876-53.333-53.333s23.876-53.333 53.333-53.333c29.457 0 53.333 23.876 53.333 53.333s-23.876 53.333-53.333 53.333zM309.333 512c-29.455 0-53.333-23.876-53.333-53.333s23.878-53.333 53.333-53.333c29.455 0 53.333 23.876 53.333 53.333s-23.878 53.333-53.333 53.333zM512 512c-29.457 0-53.333-23.876-53.333-53.333s23.876-53.333 53.333-53.333c29.457 0 53.333 23.876 53.333 53.333s-23.876 53.333-53.333 53.333zM714.667 512c-29.457 0-53.333-23.876-53.333-53.333s23.876-53.333 53.333-53.333c29.457 0 53.333 23.876 53.333 53.333s-23.876 53.333-53.333 53.333zM757.333 832c76.582 0 138.667-62.083 138.667-138.667v-32h-768v32c0 76.584 62.083 138.667 138.667 138.667h490.667z" />
<glyph unicode="&#xe922;" glyph-name="filter" d="M426.667 277.333h170.667c23.565 0 42.667-19.102 42.667-42.667 0-21.879-16.469-39.915-37.692-42.381l-4.975-0.286h-170.667c-23.564 0-42.667 19.102-42.667 42.667 0 21.879 16.471 39.915 37.691 42.381l4.976 0.286zM341.333 490.667h341.333c23.565 0 42.667-19.102 42.667-42.667 0-21.879-16.469-39.915-37.692-42.381l-4.975-0.286h-341.333c-23.564 0-42.667 19.102-42.667 42.667 0 21.879 16.471 39.915 37.691 42.381l4.976 0.286zM213.333 704h597.333c23.565 0 42.667-19.103 42.667-42.667 0-21.881-16.469-39.915-37.692-42.38l-4.975-0.287h-597.333c-23.564 0-42.667 19.103-42.667 42.667 0 21.881 16.471 39.915 37.691 42.38l4.976 0.287z" />
<glyph unicode="&#xe923;" glyph-name="chevron" d="M183.197 606.178c16.663 16.663 43.678 16.663 60.34 0l268.499-268.499 268.493 268.499c16.666 16.663 43.679 16.663 60.339 0 16.666-16.663 16.666-43.678 0-60.34l-298.665-298.665c-16.66-16.666-43.677-16.666-60.339 0l-298.667 298.665c-16.662 16.662-16.662 43.677 0 60.34z" />
<glyph unicode="&#xe924;" glyph-name="copy" d="M234.786 762.58l-0.119-90.58v-448.179c0-76.582 62.083-138.667 138.667-138.667l367.629-0.013c-13.184-37.278-48.738-63.987-90.534-63.987h-277.094c-111.93 0-202.667 90.735-202.667 202.667v448.179c0 41.844 26.771 77.435 64.119 90.58zM757.333 874.667c53.018 0 96-42.981 96-96v-554.667c0-53.018-42.982-96-96-96h-384c-53.019 0-96 42.982-96 96v554.667c0 53.019 42.981 96 96 96h384z" />
<glyph unicode="&#xe925;" glyph-name="Info-filled" d="M512.005 874.727c235.678 0 426.733-191.055 426.733-426.732s-191.055-426.733-426.733-426.733c-235.677 0-426.732 191.055-426.732 426.733s191.055 426.732 426.732 426.732zM511.842 522.702c-21.881-0.014-39.903-16.497-42.352-37.717l-0.284-4.976 0.154-234.738 0.289-4.976c2.476-21.215 20.522-37.674 42.403-37.66s39.903 16.496 42.356 37.716l0.284 4.976-0.154 234.738-0.289 4.976c-2.481 21.217-20.527 37.676-42.408 37.661zM512.023 682.683c-29.491 0-53.397-23.907-53.397-53.398s23.906-53.398 53.397-53.398c29.491 0 53.402 23.907 53.402 53.398s-23.91 53.398-53.402 53.398z" />
<glyph unicode="&#xe926;" glyph-name="tiktok" d="M938.646 447.99c0-235.642-191.027-426.669-426.669-426.669-235.64 0-426.665 191.027-426.665 426.669 0 235.64 191.025 426.666 426.665 426.666 235.642 0 426.669-191.026 426.669-426.666zM733.846 583.411c-69.885 4.608-110.080 47.923-118.454 120.578v-0.154h-83.891v-305.826c12.637-163.283-139.309-138.554-151.034-54.992-6.090 43.626 15.834 68.355 54.506 81.565 12.944 4.454 27.101 7.834 40.349 9.984v86.173c-173.873-6.298-207.064-163.437-152.861-252.989 84.346-139.165 294.15-78.49 294.15 115.664v152.838c41.261-25.19 76.736-38.554 117.235-34.56v81.718z" />
<glyph unicode="&#xe927;" glyph-name="facebook_b_w" d="M938.646 447.99c0 235.64-191.027 426.666-426.669 426.666-235.64 0-426.665-191.026-426.665-426.666 0-230.406 182.632-418.157 411.030-426.387-23.254 0.845-46.029 3.555-68.192 7.971v324.874h-69.584v116.003h69.584v69.632c0 94.637 39.283 150.901 150.912 150.901h92.931v-116.012h-58.090c-43.456 0-46.33-16.202-46.33-46.454l-0.157-58.061h105.226l-12.314-115.99h-92.912v-329.565c-13.552-1.76-27.181-2.87-40.835-3.334 228.88 7.699 412.064 195.667 412.064 426.422z" />
<glyph unicode="&#xe928;" glyph-name="copy-line" d="M234.82 762.582l-0.12-90.579v-448.181c0-76.58 62.084-138.665 138.667-138.665l367.63-0.010c-13.184-37.279-48.742-63.99-90.537-63.99h-277.093c-111.93 0-202.667 90.737-202.667 202.665v448.181c0 41.844 26.771 77.435 64.12 90.579zM757.366 874.669c53.023 0 96-42.98 96-96v-554.669c0-53.018-42.977-96-96-96h-383.999c-53.020 0-96 42.982-96 96v554.669c0 53.020 42.98 96 96 96h383.999zM757.366 810.669h-383.999c-17.673 0-32-14.327-32-32v-554.669c0-17.669 14.327-32 32-32h383.999c17.674 0 32 14.331 32 32v554.669c0 17.673-14.326 32-32 32z" />
<glyph unicode="&#xe929;" glyph-name="chevron-right" d="M353.872 776.831c-16.662-16.662-16.662-43.677 0-60.34l268.497-268.497-268.497-268.494c-16.662-16.666-16.662-43.68 0-60.346 16.662-16.659 43.677-16.659 60.34 0l298.665 298.669c16.666 16.662 16.666 43.677 0 60.34l-298.665 298.667c-16.662 16.662-43.677 16.662-60.34 0z" />
<glyph unicode="&#xe92a;" glyph-name="add-circle-line" d="M512 874.667c235.639 0 426.667-191.025 426.667-426.667 0-235.639-191.027-426.667-426.667-426.667-235.642 0-426.667 191.027-426.667 426.667 0 235.642 191.025 426.667 426.667 426.667zM512 810.667c-200.295 0-362.667-162.371-362.667-362.667s162.371-362.667 362.667-362.667c200.294 0 362.667 162.372 362.667 362.667s-162.372 362.667-362.667 362.667zM512 661.333c17.673 0 32-14.327 32-32v-149.333h149.333c17.673 0 32-14.327 32-32s-14.327-32-32-32h-149.333v-149.333c0-17.673-14.327-32-32-32s-32 14.327-32 32v149.333h-149.333c-17.673 0-32 14.327-32 32s14.327 32 32 32h149.333v149.333c0 17.673 14.327 32 32 32z" />
<glyph unicode="&#xe92b;" glyph-name="calendar-line" d="M757.331 832c76.589 0 138.669-62.083 138.669-138.667v-490.664c0-76.589-62.080-138.669-138.669-138.669h-490.664c-76.584 0-138.667 62.080-138.667 138.669v490.664c0 76.584 62.083 138.667 138.667 138.667h490.664zM832 597.333h-640v-394.664c0-41.242 33.429-74.669 74.667-74.669h490.664c41.242 0 74.669 33.427 74.669 74.669v394.664zM330.667 341.333c29.455 0 53.333-23.88 53.333-53.333s-23.878-53.331-53.333-53.331c-29.455 0-53.334 23.878-53.334 53.331s23.878 53.333 53.334 53.333zM512 341.333c29.455 0 53.333-23.88 53.333-53.333s-23.878-53.331-53.333-53.331c-29.455 0-53.333 23.878-53.333 53.331s23.878 53.333 53.333 53.333zM330.667 512c29.455 0 53.333-23.878 53.333-53.333s-23.878-53.334-53.333-53.334c-29.455 0-53.334 23.878-53.334 53.334s23.878 53.333 53.334 53.333zM512 512c29.455 0 53.333-23.878 53.333-53.333s-23.878-53.334-53.333-53.334c-29.455 0-53.333 23.878-53.333 53.334s23.878 53.333 53.333 53.333zM693.331 512c29.459 0 53.338-23.878 53.338-53.333s-23.878-53.334-53.338-53.334c-29.453 0-53.331 23.878-53.331 53.334s23.878 53.333 53.331 53.333zM757.331 768h-490.664c-41.238 0-74.667-33.429-74.667-74.667v-32h640v32c0 41.238-33.427 74.667-74.669 74.667z" />
<glyph unicode="&#xe92c;" glyph-name="open" d="M266.663 768c-41.236 0-74.665-33.43-74.665-74.666v-490.669c0-41.236 33.428-74.665 74.665-74.665h490.656c41.236 0 74.665 33.428 74.665 74.665v170.67c0 17.669 14.326 32 31.995 32 17.674 0 32-14.331 32-32v-170.67c0-76.58-62.080-138.665-138.66-138.665h-490.656c-76.582 0-138.663 62.085-138.663 138.665v490.669c0 76.583 62.082 138.666 138.663 138.666h170.662c17.672 0 31.999-14.327 31.999-32s-14.327-32-31.999-32h-170.662zM554.655 800c0 17.673 14.326 32 32 32h277.345c17.674 0 32-14.327 32-32v-277.334c0-17.673-14.326-32-32-32s-32 14.327-32 32v200.075l-222.72-222.704c-12.498-12.496-32.758-12.495-45.251 0.002-12.498 12.497-12.498 32.759 0 45.255l222.72 222.705h-200.095c-17.674 0-32 14.327-32 32z" />
<glyph unicode="&#xe92d;" glyph-name="eye-off-fill" d="M94.706 865.294c-11.361-11.361-12.393-29.138-3.098-41.666l3.098-3.589 172.142-172.142c-82.005-57.577-143.295-143.573-168.762-245.312-4.291-17.143 6.128-34.522 23.272-38.814 17.144-4.288 34.521 6.127 38.813 23.275 22.591 90.244 78.384 165.936 152.754 214.787l77.211-77.217c-30.187-30.784-48.802-72.96-48.802-119.479 0-94.259 76.41-170.667 170.667-170.667 46.524 0 88.695 18.615 119.484 48.802l252.557-252.565c12.497-12.497 32.755-12.497 45.252 0 11.362 11.358 12.395 29.137 3.098 41.664l-3.098 3.588-789.332 789.335c-12.497 12.497-32.758 12.497-45.255 0zM512 725.333c-42.679 0-84.092-6.318-123.26-18.133l52.779-52.744c22.861 4.517 46.434 6.877 70.481 6.877 167.386 0 311.889-114.358 351.876-274.483 4.284-17.143 21.653-27.571 38.801-23.292 17.148 4.284 27.575 21.653 23.292 38.801-47.061 188.458-217.041 322.974-413.969 322.974zM520.307 575.604l162.189-162.164c-4.343 87.761-74.615 157.967-162.189 162.164z" />
<glyph unicode="&#xe92e;" glyph-name="eye-off" d="M94.706 865.294c-11.361-11.361-12.393-29.138-3.098-41.666l3.098-3.589 172.142-172.142c-82.005-57.577-143.295-143.573-168.762-245.312-4.291-17.143 6.128-34.522 23.272-38.814 17.144-4.288 34.521 6.127 38.813 23.275 22.591 90.244 78.384 165.936 152.754 214.787l77.211-77.217c-30.187-30.784-48.802-72.96-48.802-119.479 0-94.259 76.41-170.667 170.667-170.667 46.524 0 88.695 18.615 119.484 48.802l252.557-252.565c12.497-12.497 32.755-12.497 45.252 0 11.362 11.358 12.395 29.137 3.098 41.664l-3.098 3.588-789.332 789.335c-12.497 12.497-32.758 12.497-45.255 0zM435.375 479.339l150.831-150.831c-19.2-18.594-45.367-30.037-74.206-30.037-58.91 0-106.667 47.757-106.667 106.667 0 28.838 11.445 55.006 30.042 74.202zM512 725.333c-42.679 0-84.092-6.318-123.26-18.133l52.779-52.744c22.861 4.517 46.434 6.877 70.481 6.877 167.386 0 311.889-114.358 351.876-274.483 4.284-17.143 21.653-27.571 38.801-23.292 17.148 4.284 27.575 21.653 23.292 38.801-47.061 188.458-217.041 322.974-413.969 322.974zM520.307 575.604l162.189-162.164c-4.343 87.761-74.615 157.967-162.189 162.164z" />
<glyph unicode="&#xe92f;" glyph-name="arrow-sort" d="M286.709 588.188l191.777 191.789c11.352 11.353 29.113 12.394 41.639 3.118l3.589-3.092 192.21-191.789c12.508-12.484 12.534-32.744 0.046-45.255-11.346-11.373-29.123-12.425-41.661-3.144l-3.589 3.095-137.513 137.252 0.031-541.691c0-16.2-12.037-29.588-27.658-31.708l-4.342-0.292c-16.2 0-29.589 12.042-31.708 27.658l-0.292 4.342-0.028 541.776-137.244-137.312c-11.36-11.361-29.138-12.394-41.666-3.1l-3.589 3.099c-11.361 11.36-12.394 29.138-3.1 41.666l3.098 3.589z" />
<glyph unicode="&#xe930;" glyph-name="close" d="M179.614 772.817l3.55 4.019c15.38 15.381 39.582 16.564 56.32 3.55l4.019-3.55 268.497-268.463 268.497 268.463c16.662 16.663 43.677 16.663 60.339 0s16.661-43.677 0-60.339l-268.463-268.497 268.463-268.497c15.381-15.38 16.567-39.582 3.55-56.32l-3.55-4.019c-15.38-15.381-39.582-16.567-56.32-3.55l-4.019 3.55-268.497 268.463-268.497-268.463c-16.662-16.661-43.677-16.661-60.339 0s-16.663 43.677 0 60.339l268.463 268.497-268.463 268.497c-15.381 15.38-16.564 39.582-3.55 56.32v0z" />
<glyph unicode="&#xe931;" glyph-name="wrench" d="M448 629.273c0 135.494 109.839 245.333 245.335 245.333 40.356 0 78.525-9.77 112.184-27.102 9.083-4.679 15.386-13.415 16.963-23.512s-1.761-20.339-8.986-27.565l-118.006-118.006 45.251-45.255 118.554 118.552c7.178 7.178 17.336 10.524 27.372 9.019 10.040-1.506 18.77-7.685 23.526-16.652 18.186-34.29 28.472-73.396 28.472-114.811 0-135.494-109.839-245.335-245.33-245.335-19.651 0-38.799 2.319-57.16 6.702l-314.238-325.069c-47.863-49.516-126.011-53.181-178.298-8.361-56.906 48.773-60.968 135.409-8.877 189.297l318.946 329.943c-3.741 17.036-5.708 34.715-5.708 52.823zM693.335 810.606c-100.147 0-181.335-81.185-181.335-181.333 0-18.43 2.739-36.163 7.813-52.844 3.379-11.118 0.466-23.195-7.608-31.55l-331.427-342.855c-26.479-27.392-24.414-71.429 4.512-96.225 26.578-22.779 66.302-20.915 90.632 4.25l327.526 338.824c8.535 8.829 21.371 11.995 33.034 8.148 17.838-5.884 36.941-9.083 56.852-9.083 100.147 0 181.33 81.187 181.33 181.335 0 14.598-1.715 28.773-4.961 42.344l-106.332-106.333c-12.498-12.497-32.758-12.497-45.256 0l-90.511 90.51c-12.493 12.496-12.493 32.758 0 45.255l105.247 105.246c-12.708 2.822-25.928 4.312-39.516 4.312z" />
<glyph unicode="&#xe932;" glyph-name="briefcase" d="M650.665 832c17.674 0 32-14.327 32-32v-138.666h74.67c76.58 0 138.665-62.084 138.665-138.667v-277.331c0-76.585-62.085-138.67-138.665-138.67h-490.669c-76.583 0-138.666 62.085-138.666 138.67v277.331c0 76.583 62.083 138.667 138.666 138.667h74.667v138.666c0 16.2 12.038 29.589 27.658 31.708l4.342 0.292h277.331zM618.665 768h-213.331v-106.666h213.331v106.666z" />
<glyph unicode="&#xe933;" glyph-name="clipboard-text" d="M586.665 810.669h-149.331c-17.673 0-32-14.327-32-32s14.327-32 32-32h149.331c17.674 0 32 14.327 32 32s-14.326 32-32 32zM586.665 874.669c48.604 0 88.771-36.115 95.124-82.973l0.579-5.773-0.292 3.437 75.259-0.024c53.018 0 96-42.981 96-96v-576.001c0-53.018-42.982-96-96-96h-490.668c-53.019 0-96 42.982-96 96v576.001c0 53.019 42.981 96 96 96l75.255 0.024-0.332-3.437 0.62 5.773c6.357 46.858 46.523 82.973 95.124 82.973h149.331zM597.335 234.67h-256.001c-17.673 0-32-14.326-32-32s14.327-32 32-32h256.001c17.674 0 32 14.326 32 32s-14.326 32-32 32zM512 405.335h-170.666c-17.673 0-32-14.326-32-32s14.327-32 32-32h170.666c17.674 0 32 14.326 32 32s-14.326 32-32 32zM682.665 576.002h-341.331c-17.673 0-32-14.327-32-32s14.327-32 32-32h341.331c17.674 0 32 14.327 32 32s-14.326 32-32 32z" />
<glyph unicode="&#xe934;" glyph-name="megaphone-loud" horiz-adv-x="1075" d="M759.967 864.543c5.591 16.765-3.471 34.889-20.234 40.48-16.768 5.591-34.888-3.468-40.479-20.233l-32-95.956c-5.591-16.765 3.466-34.889 20.229-40.48 16.768-5.591 34.893 3.468 40.484 20.233l32 95.956zM954.895 865.293c12.498-12.497 12.498-32.758 0-45.255l-106.67-106.667c-12.493-12.496-32.758-12.496-45.251 0-12.498 12.497-12.498 32.758 0 45.255l106.665 106.666c12.498 12.497 32.758 12.497 45.256 0zM574.746 800.389c-47.611 51.005-131.605 38.225-161.89-24.631l-251.64-522.267c-14.529-30.157-7.855-66.248 16.497-89.211l61.386-57.892c22.498-21.217 55.528-26.87 83.802-14.341l60.478 26.793c27.395-57.651 86.16-97.505 154.236-97.505 94.254 0 170.665 76.406 170.665 170.665 0 23.050-4.567 45.036-12.851 65.096l145.915 64.645c62.372 27.638 78.889 108.524 32.338 158.392l-298.936 320.255zM636.867 231.148c4.787-12.119 7.414-25.329 7.414-39.148 0-58.911-47.754-106.665-106.665-106.665-41.959 0-78.259 24.223-95.676 59.453l194.927 86.359zM836.265 608.030c0 17.673 14.331 32 32 32h85.335c17.674 0 32-14.327 32-32s-14.326-32-32-32h-85.335c-17.669 0-32 14.327-32 32z" />
<glyph unicode="&#xe935;" glyph-name="play-circle" d="M463.175 612.056c-35.547 19.688-79.174-6.020-79.174-46.655v-234.797c0-40.637 43.626-66.345 79.174-46.659l245.664 136.064c10.179 5.637 16.497 16.358 16.497 27.992 0 11.636-6.318 22.355-16.497 27.994l-245.664 136.061zM512 874.669c-235.64 0-426.665-191.025-426.665-426.666 0-235.64 191.025-426.667 426.665-426.667 235.643 0 426.67 191.027 426.67 426.667 0 235.641-191.027 426.666-426.67 426.666zM149.335 448.002c0 200.295 162.371 362.666 362.665 362.666s362.67-162.371 362.67-362.666c0-200.296-162.376-362.667-362.67-362.667s-362.665 162.371-362.665 362.667z" />
<glyph unicode="&#xe936;" glyph-name="caret" d="M384 196.352c0-45.824 53.969-70.31 88.454-40.141l269.255 235.6c33.997 29.748 33.997 82.637 0 112.385l-269.255 235.598c-34.484 30.174-88.454 5.684-88.454-40.137v-503.305z" />
<glyph unicode="&#xe937;" glyph-name="eye-line" d="M512 575.77c94.259 0 170.67-76.41 170.67-170.665 0-94.259-76.411-170.67-170.67-170.67-94.256 0-170.666 76.411-170.666 170.67 0 94.255 76.41 170.665 170.666 170.665zM512 511.77c-58.91 0-106.666-47.756-106.666-106.665 0-58.911 47.756-106.67 106.666-106.67 58.911 0 106.67 47.759 106.67 106.67 0 58.909-47.759 106.665-106.67 106.665zM512 725.3c196.844 0 366.766-134.401 413.916-322.745 4.291-17.147-6.129-34.524-23.27-38.815-17.147-4.291-34.524 6.129-38.815 23.27-40.059 160.030-184.52 274.29-351.831 274.29-167.384 0-311.888-114.358-351.877-274.479-4.282-17.147-21.654-27.576-38.8-23.296-17.147 4.285-27.575 21.652-23.293 38.799 47.065 188.46 217.042 322.976 413.97 322.976z" />
<glyph unicode="&#xe938;" glyph-name="settings-line" d="M512.521 864c31.317-0.361 62.511-3.979 93.077-10.796 13.342-2.976 23.322-14.1 24.836-27.687l7.262-65.146c3.29-29.911 28.544-52.567 58.65-52.598 8.094-0.013 16.098 1.673 23.578 4.981l59.759 26.252c12.429 5.46 26.953 2.483 36.228-7.427 43.187-46.124 75.349-101.441 94.071-161.79 4.036-13.013-0.61-27.155-11.575-35.239l-52.971-39.044c-15.113-11.102-24.034-28.732-24.034-47.484 0-18.748 8.922-36.378 24.068-47.505l53.013-39.057c10.97-8.081 15.62-22.225 11.584-35.243-18.714-60.339-50.859-115.652-94.020-161.783-9.267-9.907-23.778-12.894-36.207-7.445l-60.002 26.287c-17.169 7.514-36.881 6.413-53.107-2.965-16.222-9.374-27.017-25.907-29.077-44.531l-7.215-65.139c-1.489-13.431-11.251-24.482-24.401-27.61-61.798-14.703-126.187-14.703-187.988 0-13.146 3.127-22.911 14.178-24.399 27.61l-7.203 65.041c-2.116 18.59-12.929 35.072-29.139 44.416s-35.892 10.441-53.001 2.97l-60.016-26.291c-12.431-5.449-26.946-2.462-36.215 7.454-43.185 46.182-75.332 101.564-94.019 161.967-4.025 13.009 0.625 27.145 11.59 35.221l53.049 39.083c15.11 11.102 24.034 28.732 24.034 47.479 0 18.752-8.924 36.382-24.054 47.497l-53.015 39.017c-10.981 8.081-15.636 22.232-11.596 35.254 18.72 60.349 50.883 115.667 94.070 161.79 9.278 9.91 23.8 12.887 36.229 7.427l59.75-26.247c17.192-7.545 36.957-6.406 53.254 3.116 16.227 9.412 27.030 25.961 29.116 44.589l7.256 65.096c1.516 13.594 11.504 24.722 24.856 27.692 30.605 6.806 61.833 10.423 93.926 10.792zM512.529 800.004c-19.375-0.228-38.69-1.9-57.796-4.997l-4.646-41.692c-4.343-38.805-26.832-73.252-60.522-92.794-33.897-19.803-75.224-22.187-111.183-6.406l-38.327 16.837c-24.402-29.618-43.825-63.010-57.505-98.864l34.039-25.050c31.523-23.16 50.14-59.943 50.14-99.060 0-39.113-18.617-75.895-50.106-99.029l-34.093-25.118c13.668-35.917 33.094-69.372 57.513-99.046l38.619 16.917c35.759 15.612 76.805 13.329 110.609-6.157s56.353-53.858 60.777-92.723l4.651-41.98c37.956-6.455 76.736-6.455 114.692 0l4.651 41.975c4.301 38.852 26.825 73.344 60.668 92.902 33.843 19.563 74.974 21.858 110.797 6.178l38.588-16.905c24.397 29.628 43.814 63.027 57.493 98.889l-34.048 25.084c-31.522 23.159-50.138 59.942-50.138 99.055 0 39.117 18.615 75.9 50.099 99.031l34.001 25.062c-13.679 35.86-33.105 69.259-57.51 98.881l-38.251-16.803c-15.586-6.897-32.448-10.446-49.476-10.42-62.707 0.066-115.337 47.276-122.18 109.557l-4.646 41.691c-19.008 3.093-38.127 4.761-56.909 4.983zM511.987 608.002c88.367 0 160-71.634 160-160.002 0-88.363-71.633-160-160-160s-160 71.637-160 160c0 88.368 71.634 160.002 160 160.002zM511.987 544.002c-53.018 0-96-42.98-96-96.002 0-53.018 42.982-96 96-96s96 42.982 96 96c0 53.022-42.982 96.002-96 96.002z" />
<glyph unicode="&#xe939;" glyph-name="target-arrow" horiz-adv-x="987" d="M493.616 935.714c58.693 0 114.966-10.368 167.088-29.373l-58.214-58.214c-34.695 9.418-71.197 14.444-108.873 14.444-228.967 0-414.58-185.613-414.58-414.579s185.613-414.577 414.58-414.577c228.963 0 414.577 185.611 414.577 414.577 0 37.625-5.014 74.083-14.405 108.734l58.222 58.223c18.977-52.082 29.327-108.311 29.327-166.957 0-269.36-218.361-487.72-487.72-487.72-269.362 0-487.723 218.361-487.723 487.72 0 269.361 218.36 487.722 487.723 487.722zM493.612 740.564c25.289 0 49.829-3.209 73.234-9.241l0.004-76.421c-22.905 8.107-47.554 12.519-73.238 12.519-121.187 0-219.427-98.242-219.427-219.429s98.241-219.429 219.427-219.429c121.187 0 219.429 98.242 219.429 219.429 0 25.648-4.4 50.264-12.485 73.143h76.412c6.016-23.376 9.216-47.887 9.216-73.143 0-161.584-130.988-292.571-292.571-292.571-161.582 0-292.57 130.988-292.57 292.571 0 161.582 130.989 292.571 292.57 292.571zM591.137 447.993c0-53.862-43.663-97.525-97.525-97.525-53.859 0-97.521 43.663-97.521 97.525s43.663 97.525 97.521 97.525c13.539 0 26.434-2.761 38.151-7.746l83.851 83.85-0.007 155.511c0 9.699 3.851 19.002 10.712 25.861l121.9 121.908c10.459 10.46 26.192 13.589 39.856 7.928 13.667-5.66 22.579-18.996 22.579-33.788v-134.096l134.104-0.002c14.793 0 28.127-8.911 33.788-22.577 5.658-13.666 2.531-29.396-7.929-39.855l-121.907-121.904c-6.861-6.857-16.161-10.712-25.86-10.712h-155.524l-83.88-83.88c4.952-11.685 7.691-24.536 7.691-38.023zM807.698 643.039l48.768 48.763-82.388 0.001c-20.195 0-36.568 16.374-36.568 36.571v82.373l-48.761-48.761 0.004-116.073c0.501-0.449 0.995-0.914 1.474-1.396 0.486-0.483 0.951-0.976 1.401-1.479h116.070z" />
<glyph unicode="&#xe93a;" glyph-name="data-pie" horiz-adv-x="1061" d="M444.957 825.899c20.198 0 36.571-16.373 36.571-36.571v-390.095h390.096c18.516 0 33.814-13.758 36.239-31.609l0.333-4.963c0-242.373-196.484-414.475-438.857-414.475s-438.857 196.484-438.857 438.857c0 242.373 172.102 438.856 414.475 438.856zM408.386 750.952l-10.185-1.157c-179.898-22.958-294.576-176.614-294.576-362.752 0-201.98 163.736-365.714 365.714-365.714 186.138 0 339.796 114.677 362.752 294.576l1.108 10.185h-388.242c-18.512 0-33.814 13.758-36.235 31.609l-0.336 4.963v388.291zM591.243 947.804c242.373 0 438.857-196.483 438.857-438.857 0-20.198-16.373-36.571-36.571-36.571h-402.286c-20.198 0-36.571 16.373-36.571 36.571v402.286c0 20.198 16.373 36.572 36.571 36.572zM627.814 872.857v-327.339h327.292l-1.108 10.185c-21.007 164.589-151.409 294.992-315.995 315.997l-10.189 1.157z" />
<glyph unicode="&#xe93b;" glyph-name="data-histogram" d="M320.853 817.76c0 67.865 55.015 122.88 122.879 122.88h136.536c67.863 0 122.88-55.015 122.88-122.88v-96.665h177.492c67.867 0 122.88-55.015 122.88-122.88v-600.746c0-22.622-18.338-40.96-40.96-40.96h-901.12c-22.622 0-40.96 18.338-40.96 40.96v436.904c0 67.867 55.015 122.882 122.88 122.882h177.493v260.506zM402.773 38.429h218.455v779.331c0 22.622-18.338 40.96-40.96 40.96h-136.536c-22.622 0-40.959-18.338-40.959-40.96v-779.332zM320.853 475.333h-177.493c-22.621 0-40.96-18.338-40.96-40.96v-395.944h218.453v436.904zM703.148 38.429h218.452v559.786c0 22.621-18.338 40.96-40.96 40.96h-177.492v-600.746z" />
<glyph unicode="&#xe93c;" glyph-name="arrow-clockwise" d="M512 768c-176.731 0-320-143.269-320-320s143.269-320 320-320c176.73 0 320 143.27 320 320 0 16.060-1.182 31.838-3.465 47.262-2.871 19.375 11.311 38.071 30.895 38.071 15.825 0 29.7-10.931 32.102-26.573 2.94-19.157 4.467-38.78 4.467-58.761 0-212.079-171.921-384-384-384-212.077 0-384 171.921-384 384 0 212.077 171.923 384 384 384 98.351 0 188.062-36.973 256-97.778v44.445c0 17.673 14.327 32 32 32s32-14.327 32-32v-128c0-17.673-14.327-32-32-32h-128c-17.673 0-32 14.327-32 32s14.327 32 32 32h57.562c-57.097 52.957-133.547 85.333-217.562 85.333z" />
<glyph unicode="&#xe93d;" glyph-name="search" d="M426.671 853.318c176.731 0 319.998-143.269 319.998-320 0-72.965-24.418-140.228-65.536-194.058l202.375-202.44c16.663-16.663 16.663-43.678 0-60.337-15.379-15.383-39.582-16.566-56.32-3.551l-4.022 3.551-202.435 202.37c-53.83-41.114-121.093-65.536-194.060-65.536-176.731 0-320 143.267-320 320 0 176.731 143.269 320 320 320zM426.671 767.985c-129.603 0-234.667-105.064-234.667-234.666s105.064-234.669 234.667-234.669c129.603 0 234.666 105.067 234.666 234.669s-105.062 234.666-234.666 234.666z" />
<glyph unicode="&#xe93e;" glyph-name="star" d="M460.304 827.624c21.129 42.811 82.176 42.811 103.304 0l100.606-203.849 224.962-32.689c47.243-6.865 66.107-64.925 31.92-98.248l-162.779-158.675 38.429-224.053c8.068-47.053-41.318-82.937-83.577-60.716l-201.212 105.779-201.212-105.779c-42.257-22.221-91.645 13.663-83.574 60.716l38.428 224.054-162.783 158.675c-34.187 33.323-15.322 91.382 31.922 98.248l224.961 32.689 100.606 203.849z" />
<glyph unicode="&#xe93f;" glyph-name="image" d="M486.869 354.308l-4.757-4.041-394.11-386.88c28.174-17.37 61.36-27.388 96.887-27.388h654.224c35.524 0 68.71 10.018 96.883 27.388l-394.108 386.88-5.312 4.437c-14.878 10.509-34.961 10.377-49.707-0.397zM1024 775.111c0 102.111-82.778 184.889-184.887 184.889h-654.224c-102.111 0-184.889-82.778-184.889-184.889v-654.224c0-35.669 10.102-68.983 27.602-97.233l394.729 387.511 7.706 6.98c47.497 39.676 116.945 39.565 164.322-0.333l7.309-6.647 394.731-387.511c17.498 28.25 27.601 61.564 27.601 97.233v654.224zM696.887 519.113c-62.835 0-113.775 50.938-113.775 113.776s50.94 113.778 113.775 113.778c62.839 0 113.779-50.94 113.779-113.778s-50.94-113.776-113.779-113.776z" />
</font>
</defs>
</svg>
