<svg width="32" height="32" viewBox="0 0 32 32" fill="none" xmlns="http://www.w3.org/2000/svg">
<path d="M16.0013 2.66675C23.3651 2.66675 29.3346 8.63628 29.3346 16.0001C29.3346 23.3639 23.3651 29.3334 16.0013 29.3334C8.63751 29.3334 2.66797 23.3639 2.66797 16.0001C2.66797 8.63628 8.63751 2.66675 16.0013 2.66675ZM20.2942 11.9596L14.3346 17.9192L11.7084 15.293C11.3179 14.9025 10.6847 14.9025 10.2942 15.293C9.90367 15.6835 9.90367 16.3167 10.2942 16.7072L13.6275 20.0405C14.0181 20.431 14.6512 20.431 15.0417 20.0405L21.7084 13.3739C22.0989 12.9833 22.0989 12.3502 21.7084 11.9596C21.3179 11.5691 20.6847 11.5691 20.2942 11.9596Z" fill="#2FC546"/>
</svg>
