<svg width="21" height="18" viewBox="0 0 21 18" fill="none" xmlns="http://www.w3.org/2000/svg">
<path d="M3.8112 0.583252C2.16585 0.583252 0.832031 1.91707 0.832031 3.56242V4.70825H19.1654V3.56242C19.1654 1.91707 17.8315 0.583252 16.1862 0.583252H3.8112ZM0.832031 10.4374V6.08325H15.957C14.1851 6.08325 12.7487 7.51967 12.7487 9.29159C12.7487 10.1893 13.1174 11.0009 13.7117 11.5833H13.457C12.2992 11.5833 11.3217 12.3571 11.0152 13.4166H3.8112C2.16585 13.4166 0.832031 12.0828 0.832031 10.4374ZM18.2487 9.29159C18.2487 10.5572 17.2227 11.5833 15.957 11.5833C14.6914 11.5833 13.6654 10.5572 13.6654 9.29159C13.6654 8.02593 14.6914 6.99992 15.957 6.99992C17.2227 6.99992 18.2487 8.02593 18.2487 9.29159ZM20.082 14.2187C20.082 15.6455 18.9035 17.0832 15.957 17.0833C13.0106 17.0833 11.832 15.6508 11.832 14.2187V14.1242C11.832 13.2268 12.5596 12.4999 13.457 12.4999H18.457C19.3545 12.4999 20.082 13.2268 20.082 14.1243V14.2187Z" fill="#A1B3C4"/>
</svg>
