<svg width="32" height="32" viewBox="0 0 32 32" fill="none" xmlns="http://www.w3.org/2000/svg">
<g id="Error Circle">
<path id="Shape" d="M16.0001 2.66675C23.3641 2.66675 29.3334 8.63741 29.3334 16.0001C29.3334 23.3627 23.3641 29.3334 16.0001 29.3334C8.63608 29.3334 2.66675 23.3627 2.66675 16.0001C2.66675 8.63741 8.63608 2.66675 16.0001 2.66675ZM16.0025 20.005C15.2671 20.005 14.6709 20.6012 14.6709 21.3366C14.6709 22.072 15.2671 22.6681 16.0025 22.6681C16.7379 22.6681 17.334 22.072 17.334 21.3366C17.334 20.6012 16.7379 20.005 16.0025 20.005ZM15.9996 9.33342C15.3158 9.33366 14.7524 9.84858 14.6757 10.5117L14.6667 10.6672L14.6691 17.3351L14.6782 17.4906C14.7554 18.1536 15.3192 18.6682 16.003 18.6679C16.6867 18.6677 17.2501 18.1528 17.3269 17.4896L17.3358 17.3341L17.3334 10.6663L17.3244 10.5108C17.2471 9.84769 16.6834 9.33317 15.9996 9.33342Z" fill="#EECD5F"/>
</g>
</svg>
