<svg width="56" height="56" viewBox="0 0 56 56" fill="none" xmlns="http://www.w3.org/2000/svg">
<path d="M44.081 13.7548C44.0472 13.5202 43.8323 13.3904 43.6548 13.3761C43.4776 13.362 39.7267 13.096 39.7267 13.096C39.7267 13.096 37.1217 10.6223 36.8358 10.3485C36.5497 10.0749 35.991 10.1581 35.7741 10.2192C35.7422 10.2282 35.205 10.3868 34.3163 10.6498C33.4462 8.25469 31.9104 6.05367 29.2087 6.05367C29.1341 6.05367 29.0573 6.05656 28.9806 6.06074C28.2122 5.08878 27.2604 4.6665 26.4382 4.6665C20.1446 4.6665 17.1378 12.192 16.195 16.0163C13.7495 16.7411 12.0121 17.2564 11.7902 17.3231C10.4252 17.7327 10.382 17.7738 10.2027 19.0041C10.0678 19.9356 6.49609 46.3563 6.49609 46.3563L34.3279 51.3442L49.4082 48.2238C49.4082 48.2238 44.1142 13.9894 44.081 13.7548ZM32.7781 11.1049L30.4231 11.8021C30.4239 11.6433 30.4247 11.4871 30.4247 11.3163C30.4247 9.82776 30.2087 8.62923 29.8622 7.67912C31.2543 7.84623 32.1814 9.3613 32.7781 11.1049ZM28.1352 7.9743C28.5223 8.90191 28.7739 10.2332 28.7739 12.0296C28.7739 12.1215 28.7731 12.2055 28.7723 12.2905C27.2407 12.7443 25.5765 13.2369 23.9085 13.7312C24.845 10.274 26.6005 8.60417 28.1352 7.9743ZM26.2654 6.28119C26.537 6.28119 26.8107 6.36941 27.0726 6.54182C25.0555 7.44967 22.8935 9.73617 21.9805 14.3023L18.136 15.4412C19.2054 11.9584 21.7448 6.28119 26.2654 6.28119Z" fill="#95BF46"/>
<path d="M43.6556 13.376C43.4783 13.3619 39.7275 13.096 39.7275 13.096C39.7275 13.096 37.1225 10.6223 36.8366 10.3485C36.7296 10.2466 36.5853 10.1944 36.4345 10.1719L34.3301 51.3438L49.409 48.2237C49.409 48.2237 44.115 13.9893 44.0818 13.7548C44.048 13.5202 43.8331 13.3903 43.6556 13.376Z" fill="#5E8E3E"/>
<path d="M29.2085 21.3465L27.349 26.6371C27.349 26.6371 25.7199 25.8054 23.7228 25.8054C20.7951 25.8054 20.6478 27.5627 20.6478 28.0056C20.6478 30.4219 27.2329 31.3478 27.2329 37.0076C27.2329 41.4606 24.2802 44.3279 20.2989 44.3279C15.5213 44.3279 13.0781 41.4839 13.0781 41.4839L14.3573 37.4411C14.3573 37.4411 16.8688 39.5035 18.9879 39.5035C20.3726 39.5035 20.9359 38.4607 20.9359 37.6987C20.9359 34.5468 15.5334 34.4062 15.5334 29.2269C15.5334 24.8678 18.8045 20.6494 25.4074 20.6494C27.9516 20.6494 29.2085 21.3465 29.2085 21.3465Z" fill="white"/>
</svg>
