<svg width="14" height="14" viewBox="0 0 14 14" fill="none" xmlns="http://www.w3.org/2000/svg">
<path d="M6.99998 0.332642C10.6824 0.332642 13.6677 3.31787 13.6677 7.00034C13.6677 10.6828 10.6824 13.668 6.99998 13.668C3.31751 13.668 0.332275 10.6828 0.332275 7.00034C0.332275 3.31787 3.31751 0.332642 6.99998 0.332642ZM6.99998 1.33264C3.86979 1.33264 1.33228 3.87016 1.33228 7.00034C1.33228 10.1305 3.86979 12.668 6.99998 12.668C10.1302 12.668 12.6677 10.1305 12.6677 7.00034C12.6677 3.87016 10.1302 1.33264 6.99998 1.33264ZM6.99755 5.9997C7.25068 5.99953 7.46 6.1875 7.49326 6.43153L7.49787 6.49937L7.50027 10.1671C7.50045 10.4432 7.27674 10.6672 7.0006 10.6674C6.74747 10.6676 6.53815 10.4796 6.50488 10.2356L6.50027 10.1678L6.49787 6.50002C6.49769 6.22388 6.7214 5.99988 6.99755 5.9997ZM7.00027 3.66785C7.36797 3.66785 7.66605 3.96593 7.66605 4.33363C7.66605 4.70133 7.36797 4.9994 7.00027 4.9994C6.63258 4.9994 6.3345 4.70133 6.3345 4.33363C6.3345 3.96593 6.63258 3.66785 7.00027 3.66785Z" fill="#525D67"/>
</svg>
